<svg width="114" height="10" viewBox="0 0 114 10" fill="none" xmlns="http://www.w3.org/2000/svg">
<path d="M1.729 4.609L1.462 4.414L1.939 3.775L1.18 3.538L1.282 3.223L2.035 3.478L2.026 2.68H2.356L2.347 3.478L3.103 3.223L3.205 3.538L2.443 3.775L2.917 4.414L2.65 4.609L2.191 3.961L1.729 4.609ZM3.86641 7L5.39641 2.68H5.82541L7.35541 7H6.98941L5.51941 2.86H5.69341L4.23241 7H3.86641ZM4.49941 5.914V5.587H6.71941V5.914H4.49941ZM9.39597 7.09C9.07197 7.09 8.79897 7.018 8.57697 6.874C8.35497 6.728 8.18597 6.527 8.06997 6.271C7.95597 6.013 7.89697 5.716 7.89297 5.38C7.89697 5.038 7.95697 4.739 8.07297 4.483C8.19097 4.225 8.36097 4.025 8.58297 3.883C8.80497 3.741 9.07697 3.67 9.39897 3.67C9.71297 3.67 9.98897 3.746 10.227 3.898C10.467 4.048 10.633 4.255 10.725 4.519L10.389 4.642C10.307 4.44 10.178 4.284 10.002 4.174C9.82597 4.062 9.62397 4.006 9.39597 4.006C9.13997 4.006 8.92897 4.065 8.76297 4.183C8.59697 4.299 8.47297 4.46 8.39097 4.666C8.30897 4.872 8.26597 5.11 8.26197 5.38C8.26797 5.794 8.36497 6.127 8.55297 6.379C8.74297 6.629 9.02397 6.754 9.39597 6.754C9.62597 6.754 9.82497 6.701 9.99297 6.595C10.163 6.489 10.293 6.335 10.383 6.133L10.725 6.25C10.599 6.524 10.423 6.733 10.197 6.877C9.97097 7.019 9.70397 7.09 9.39597 7.09ZM12.7813 7.09C12.4713 7.09 12.2033 7.021 11.9773 6.883C11.7513 6.743 11.5763 6.546 11.4523 6.292C11.3283 6.036 11.2663 5.734 11.2663 5.386C11.2663 5.032 11.3273 4.727 11.4493 4.471C11.5733 4.213 11.7473 4.015 11.9713 3.877C12.1973 3.739 12.4653 3.67 12.7753 3.67C13.0893 3.67 13.3573 3.742 13.5793 3.886C13.8033 4.028 13.9733 4.234 14.0893 4.504C14.2073 4.774 14.2633 5.099 14.2573 5.479H13.8973V5.359C13.8873 4.915 13.7873 4.577 13.5973 4.345C13.4073 4.113 13.1353 3.997 12.7813 3.997C12.4153 3.997 12.1323 4.118 11.9323 4.36C11.7343 4.6 11.6353 4.94 11.6353 5.38C11.6353 5.816 11.7343 6.154 11.9323 6.394C12.1323 6.634 12.4133 6.754 12.7753 6.754C13.0253 6.754 13.2433 6.696 13.4293 6.58C13.6173 6.462 13.7663 6.294 13.8763 6.076L14.1883 6.214C14.0583 6.494 13.8703 6.71 13.6243 6.862C13.3783 7.014 13.0973 7.09 12.7813 7.09ZM11.5033 5.479V5.167H14.0623V5.479H11.5033ZM15.1609 3.106V2.665H15.5059V3.106H15.1609ZM15.1609 7V3.76H15.5059V7H15.1609ZM18.3066 7C18.1346 7.038 17.9646 7.052 17.7966 7.042C17.6286 7.034 17.4786 6.997 17.3466 6.931C17.2166 6.863 17.1186 6.759 17.0526 6.619C16.9986 6.505 16.9686 6.39 16.9626 6.274C16.9566 6.158 16.9536 6.025 16.9536 5.875V2.86H17.3016V5.869C17.3016 6.005 17.3026 6.118 17.3046 6.208C17.3086 6.296 17.3296 6.377 17.3676 6.451C17.4396 6.589 17.5536 6.673 17.7096 6.703C17.8656 6.731 18.0646 6.726 18.3066 6.688V7ZM16.2276 4.075V3.76H18.3066V4.075H16.2276ZM20.0415 7.09C19.7915 7.09 19.5835 7.046 19.4175 6.958C19.2535 6.87 19.1305 6.754 19.0485 6.61C18.9665 6.464 18.9255 6.306 18.9255 6.136C18.9255 5.952 18.9635 5.798 19.0395 5.674C19.1175 5.55 19.2205 5.45 19.3485 5.374C19.4785 5.298 19.6215 5.241 19.7775 5.203C19.9555 5.163 20.1475 5.129 20.3535 5.101C20.5595 5.071 20.7555 5.045 20.9415 5.023C21.1295 5.001 21.2825 4.982 21.4005 4.966L21.2745 5.041C21.2825 4.691 21.2165 4.431 21.0765 4.261C20.9385 4.089 20.6945 4.003 20.3445 4.003C20.0985 4.003 19.8955 4.059 19.7355 4.171C19.5775 4.281 19.4665 4.452 19.4025 4.684L19.0485 4.585C19.1225 4.291 19.2715 4.065 19.4955 3.907C19.7195 3.749 20.0065 3.67 20.3565 3.67C20.6545 3.67 20.9045 3.728 21.1065 3.844C21.3105 3.96 21.4525 4.123 21.5325 4.333C21.5665 4.419 21.5895 4.52 21.6015 4.636C21.6135 4.75 21.6195 4.865 21.6195 4.981V7H21.3045V6.148L21.4215 6.178C21.3235 6.47 21.1525 6.695 20.9085 6.853C20.6645 7.011 20.3755 7.09 20.0415 7.09ZM20.0595 6.772C20.2795 6.772 20.4725 6.733 20.6385 6.655C20.8045 6.575 20.9385 6.464 21.0405 6.322C21.1445 6.178 21.2105 6.009 21.2385 5.815C21.2585 5.707 21.2695 5.59 21.2715 5.464C21.2735 5.338 21.2745 5.245 21.2745 5.185L21.4245 5.281C21.2945 5.297 21.1385 5.314 20.9565 5.332C20.7765 5.35 20.5925 5.372 20.4045 5.398C20.2165 5.424 20.0465 5.457 19.8945 5.497C19.8005 5.523 19.7055 5.561 19.6095 5.611C19.5155 5.659 19.4365 5.726 19.3725 5.812C19.3105 5.898 19.2795 6.007 19.2795 6.139C19.2795 6.237 19.3035 6.335 19.3515 6.433C19.4015 6.531 19.4835 6.612 19.5975 6.676C19.7115 6.74 19.8655 6.772 20.0595 6.772ZM26.4334 7L26.4394 4.822C26.4394 4.56 26.3644 4.355 26.2144 4.207C26.0664 4.057 25.8814 3.982 25.6594 3.982C25.5334 3.982 25.4084 4.011 25.2844 4.069C25.1624 4.127 25.0604 4.221 24.9784 4.351C24.8964 4.481 24.8554 4.657 24.8554 4.879L24.6124 4.84C24.6044 4.604 24.6474 4.399 24.7414 4.225C24.8374 4.049 24.9694 3.913 25.1374 3.817C25.3074 3.721 25.5004 3.673 25.7164 3.673C26.0344 3.673 26.2914 3.771 26.4874 3.967C26.6854 4.163 26.7844 4.431 26.7844 4.771L26.7784 7H26.4334ZM22.5784 7V3.76H22.8934V4.489H22.9234V7H22.5784ZM24.5074 7L24.5134 4.855C24.5134 4.587 24.4404 4.375 24.2944 4.219C24.1484 4.061 23.9584 3.982 23.7244 3.982C23.4864 3.982 23.2934 4.064 23.1454 4.228C22.9974 4.39 22.9234 4.607 22.9234 4.879L22.6834 4.759C22.6834 4.549 22.7314 4.363 22.8274 4.201C22.9234 4.037 23.0544 3.908 23.2204 3.814C23.3884 3.72 23.5804 3.673 23.7964 3.673C23.9904 3.673 24.1674 3.714 24.3274 3.796C24.4874 3.878 24.6154 4.002 24.7114 4.168C24.8074 4.332 24.8554 4.538 24.8554 4.786L24.8494 7H24.5074ZM29.062 7.09C28.74 7.09 28.467 7.017 28.243 6.871C28.019 6.725 27.848 6.523 27.73 6.265C27.612 6.007 27.553 5.71 27.553 5.374C27.553 5.036 27.613 4.739 27.733 4.483C27.853 4.225 28.025 4.025 28.249 3.883C28.475 3.741 28.746 3.67 29.062 3.67C29.384 3.67 29.657 3.743 29.881 3.889C30.107 4.033 30.278 4.233 30.394 4.489C30.512 4.745 30.571 5.04 30.571 5.374C30.571 5.716 30.512 6.016 30.394 6.274C30.276 6.53 30.104 6.73 29.878 6.874C29.652 7.018 29.38 7.09 29.062 7.09ZM29.062 6.754C29.444 6.754 29.729 6.626 29.917 6.37C30.107 6.114 30.202 5.782 30.202 5.374C30.202 4.958 30.107 4.626 29.917 4.378C29.727 4.13 29.442 4.006 29.062 4.006C28.804 4.006 28.591 4.065 28.423 4.183C28.255 4.299 28.129 4.46 28.045 4.666C27.963 4.87 27.922 5.106 27.922 5.374C27.922 5.79 28.018 6.124 28.21 6.376C28.404 6.628 28.688 6.754 29.062 6.754ZM32.5905 7.084C32.2165 7.084 31.9075 7.005 31.6635 6.847C31.4215 6.689 31.2715 6.469 31.2135 6.187L31.5675 6.127C31.6175 6.319 31.7355 6.472 31.9215 6.586C32.1075 6.7 32.3355 6.757 32.6055 6.757C32.8735 6.757 33.0865 6.7 33.2445 6.586C33.4025 6.472 33.4815 6.316 33.4815 6.118C33.4815 6.01 33.4565 5.922 33.4065 5.854C33.3585 5.784 33.2625 5.72 33.1185 5.662C32.9745 5.604 32.7605 5.536 32.4765 5.458C32.1765 5.378 31.9415 5.298 31.7715 5.218C31.6035 5.138 31.4845 5.047 31.4145 4.945C31.3465 4.843 31.3125 4.718 31.3125 4.57C31.3125 4.392 31.3635 4.236 31.4655 4.102C31.5675 3.966 31.7095 3.86 31.8915 3.784C32.0755 3.708 32.2875 3.67 32.5275 3.67C32.7675 3.67 32.9835 3.71 33.1755 3.79C33.3675 3.868 33.5225 3.978 33.6405 4.12C33.7585 4.26 33.8265 4.423 33.8445 4.609L33.4905 4.675C33.4565 4.467 33.3515 4.303 33.1755 4.183C32.9995 4.061 32.7795 3.999 32.5155 3.997C32.2655 3.993 32.0615 4.043 31.9035 4.147C31.7455 4.249 31.6665 4.384 31.6665 4.552C31.6665 4.648 31.6935 4.73 31.7475 4.798C31.8035 4.864 31.9015 4.925 32.0415 4.981C32.1815 5.037 32.3795 5.097 32.6355 5.161C32.9475 5.241 33.1905 5.323 33.3645 5.407C33.5405 5.491 33.6645 5.59 33.7365 5.704C33.8085 5.816 33.8445 5.955 33.8445 6.121C33.8445 6.421 33.7325 6.657 33.5085 6.829C33.2865 6.999 32.9805 7.084 32.5905 7.084ZM37.0079 7.09C36.7579 7.09 36.5499 7.046 36.3839 6.958C36.2199 6.87 36.0969 6.754 36.0149 6.61C35.9329 6.464 35.8919 6.306 35.8919 6.136C35.8919 5.952 35.9299 5.798 36.0059 5.674C36.0839 5.55 36.1869 5.45 36.3149 5.374C36.4449 5.298 36.5879 5.241 36.7439 5.203C36.9219 5.163 37.1139 5.129 37.3199 5.101C37.5259 5.071 37.7219 5.045 37.9079 5.023C38.0959 5.001 38.2489 4.982 38.3669 4.966L38.2409 5.041C38.2489 4.691 38.1829 4.431 38.0429 4.261C37.9049 4.089 37.6609 4.003 37.3109 4.003C37.0649 4.003 36.8619 4.059 36.7019 4.171C36.5439 4.281 36.4329 4.452 36.3689 4.684L36.0149 4.585C36.0889 4.291 36.2379 4.065 36.4619 3.907C36.6859 3.749 36.9729 3.67 37.3229 3.67C37.6209 3.67 37.8709 3.728 38.0729 3.844C38.2769 3.96 38.4189 4.123 38.4989 4.333C38.5329 4.419 38.5559 4.52 38.5679 4.636C38.5799 4.75 38.5859 4.865 38.5859 4.981V7H38.2709V6.148L38.3879 6.178C38.2899 6.47 38.1189 6.695 37.8749 6.853C37.6309 7.011 37.3419 7.09 37.0079 7.09ZM37.0259 6.772C37.2459 6.772 37.4389 6.733 37.6049 6.655C37.7709 6.575 37.9049 6.464 38.0069 6.322C38.1109 6.178 38.1769 6.009 38.2049 5.815C38.2249 5.707 38.2359 5.59 38.2379 5.464C38.2399 5.338 38.2409 5.245 38.2409 5.185L38.3909 5.281C38.2609 5.297 38.1049 5.314 37.9229 5.332C37.7429 5.35 37.5589 5.372 37.3709 5.398C37.1829 5.424 37.0129 5.457 36.8609 5.497C36.7669 5.523 36.6719 5.561 36.5759 5.611C36.4819 5.659 36.4029 5.726 36.3389 5.812C36.2769 5.898 36.2459 6.007 36.2459 6.139C36.2459 6.237 36.2699 6.335 36.3179 6.433C36.3679 6.531 36.4499 6.612 36.5639 6.676C36.6779 6.74 36.8319 6.772 37.0259 6.772ZM40.9638 7.09C40.6718 7.09 40.4248 7.014 40.2228 6.862C40.0208 6.71 39.8668 6.505 39.7608 6.247C39.6548 5.989 39.6018 5.698 39.6018 5.374C39.6018 5.048 39.6548 4.757 39.7608 4.501C39.8668 4.243 40.0238 4.04 40.2318 3.892C40.4398 3.744 40.6948 3.67 40.9968 3.67C41.2908 3.67 41.5418 3.745 41.7498 3.895C41.9578 4.045 42.1158 4.249 42.2238 4.507C42.3338 4.765 42.3888 5.054 42.3888 5.374C42.3888 5.698 42.3328 5.99 42.2208 6.25C42.1108 6.508 41.9498 6.713 41.7378 6.865C41.5278 7.015 41.2698 7.09 40.9638 7.09ZM39.5448 8.44V3.76H39.8598V6.256H39.8898V8.44H39.5448ZM40.9428 6.76C41.1808 6.76 41.3788 6.699 41.5368 6.577C41.6968 6.455 41.8168 6.29 41.8968 6.082C41.9788 5.872 42.0198 5.636 42.0198 5.374C42.0198 5.114 41.9798 4.881 41.8998 4.675C41.8218 4.467 41.7028 4.303 41.5428 4.183C41.3848 4.061 41.1828 4 40.9368 4C40.6988 4 40.4998 4.059 40.3398 4.177C40.1798 4.293 40.0598 4.455 39.9798 4.663C39.8998 4.871 39.8598 5.108 39.8598 5.374C39.8598 5.638 39.8988 5.875 39.9768 6.085C40.0568 6.293 40.1768 6.458 40.3368 6.58C40.4988 6.7 40.7008 6.76 40.9428 6.76ZM44.5638 7.09C44.2538 7.09 43.9858 7.021 43.7598 6.883C43.5338 6.743 43.3588 6.546 43.2348 6.292C43.1108 6.036 43.0488 5.734 43.0488 5.386C43.0488 5.032 43.1098 4.727 43.2318 4.471C43.3558 4.213 43.5298 4.015 43.7538 3.877C43.9798 3.739 44.2478 3.67 44.5578 3.67C44.8718 3.67 45.1398 3.742 45.3618 3.886C45.5858 4.028 45.7558 4.234 45.8718 4.504C45.9898 4.774 46.0458 5.099 46.0398 5.479H45.6798V5.359C45.6698 4.915 45.5698 4.577 45.3798 4.345C45.1898 4.113 44.9178 3.997 44.5638 3.997C44.1978 3.997 43.9148 4.118 43.7148 4.36C43.5168 4.6 43.4178 4.94 43.4178 5.38C43.4178 5.816 43.5168 6.154 43.7148 6.394C43.9148 6.634 44.1958 6.754 44.5578 6.754C44.8078 6.754 45.0258 6.696 45.2118 6.58C45.3998 6.462 45.5488 6.294 45.6588 6.076L45.9708 6.214C45.8408 6.494 45.6528 6.71 45.4068 6.862C45.1608 7.014 44.8798 7.09 44.5638 7.09ZM43.2858 5.479V5.167H45.8448V5.479H43.2858ZM49.1685 7V5.314C49.1685 5.11 49.1475 4.928 49.1055 4.768C49.0655 4.608 49.0035 4.472 48.9195 4.36C48.8375 4.248 48.7335 4.163 48.6075 4.105C48.4835 4.047 48.3365 4.018 48.1665 4.018C47.9905 4.018 47.8375 4.049 47.7075 4.111C47.5795 4.171 47.4735 4.256 47.3895 4.366C47.3075 4.476 47.2455 4.607 47.2035 4.759C47.1635 4.909 47.1435 5.073 47.1435 5.251L46.8705 5.218C46.8705 4.868 46.9295 4.58 47.0475 4.354C47.1675 4.126 47.3285 3.958 47.5305 3.85C47.7325 3.74 47.9595 3.685 48.2115 3.685C48.3895 3.685 48.5485 3.711 48.6885 3.763C48.8305 3.815 48.9535 3.889 49.0575 3.985C49.1615 4.079 49.2475 4.191 49.3155 4.321C49.3835 4.449 49.4335 4.59 49.4655 4.744C49.4995 4.898 49.5165 5.059 49.5165 5.227V7H49.1685ZM46.7955 7V3.76H47.1105V4.489H47.1435V7H46.7955ZM51.4095 7.09C51.1595 7.09 50.9515 7.046 50.7855 6.958C50.6215 6.87 50.4985 6.754 50.4165 6.61C50.3345 6.464 50.2935 6.306 50.2935 6.136C50.2935 5.952 50.3315 5.798 50.4075 5.674C50.4855 5.55 50.5885 5.45 50.7165 5.374C50.8465 5.298 50.9895 5.241 51.1455 5.203C51.3235 5.163 51.5155 5.129 51.7215 5.101C51.9275 5.071 52.1235 5.045 52.3095 5.023C52.4975 5.001 52.6505 4.982 52.7685 4.966L52.6425 5.041C52.6505 4.691 52.5845 4.431 52.4445 4.261C52.3065 4.089 52.0625 4.003 51.7125 4.003C51.4665 4.003 51.2635 4.059 51.1035 4.171C50.9455 4.281 50.8345 4.452 50.7705 4.684L50.4165 4.585C50.4905 4.291 50.6395 4.065 50.8635 3.907C51.0875 3.749 51.3745 3.67 51.7245 3.67C52.0225 3.67 52.2725 3.728 52.4745 3.844C52.6785 3.96 52.8205 4.123 52.9005 4.333C52.9345 4.419 52.9575 4.52 52.9695 4.636C52.9815 4.75 52.9875 4.865 52.9875 4.981V7H52.6725V6.148L52.7895 6.178C52.6915 6.47 52.5205 6.695 52.2765 6.853C52.0325 7.011 51.7435 7.09 51.4095 7.09ZM51.4275 6.772C51.6475 6.772 51.8405 6.733 52.0065 6.655C52.1725 6.575 52.3065 6.464 52.4085 6.322C52.5125 6.178 52.5785 6.009 52.6065 5.815C52.6265 5.707 52.6375 5.59 52.6395 5.464C52.6415 5.338 52.6425 5.245 52.6425 5.185L52.7925 5.281C52.6625 5.297 52.5065 5.314 52.3245 5.332C52.1445 5.35 51.9605 5.372 51.7725 5.398C51.5845 5.424 51.4145 5.457 51.2625 5.497C51.1685 5.523 51.0735 5.561 50.9775 5.611C50.8835 5.659 50.8045 5.726 50.7405 5.812C50.6785 5.898 50.6475 6.007 50.6475 6.139C50.6475 6.237 50.6715 6.335 50.7195 6.433C50.7695 6.531 50.8515 6.612 50.9655 6.676C51.0795 6.74 51.2335 6.772 51.4275 6.772ZM55.1435 7.084C54.7695 7.084 54.4605 7.005 54.2165 6.847C53.9745 6.689 53.8245 6.469 53.7665 6.187L54.1205 6.127C54.1705 6.319 54.2885 6.472 54.4745 6.586C54.6605 6.7 54.8885 6.757 55.1585 6.757C55.4265 6.757 55.6395 6.7 55.7975 6.586C55.9555 6.472 56.0345 6.316 56.0345 6.118C56.0345 6.01 56.0095 5.922 55.9595 5.854C55.9115 5.784 55.8155 5.72 55.6715 5.662C55.5275 5.604 55.3135 5.536 55.0295 5.458C54.7295 5.378 54.4945 5.298 54.3245 5.218C54.1565 5.138 54.0375 5.047 53.9675 4.945C53.8995 4.843 53.8655 4.718 53.8655 4.57C53.8655 4.392 53.9165 4.236 54.0185 4.102C54.1205 3.966 54.2625 3.86 54.4445 3.784C54.6285 3.708 54.8405 3.67 55.0805 3.67C55.3205 3.67 55.5365 3.71 55.7285 3.79C55.9205 3.868 56.0755 3.978 56.1935 4.12C56.3115 4.26 56.3795 4.423 56.3975 4.609L56.0435 4.675C56.0095 4.467 55.9045 4.303 55.7285 4.183C55.5525 4.061 55.3325 3.999 55.0685 3.997C54.8185 3.993 54.6145 4.043 54.4565 4.147C54.2985 4.249 54.2195 4.384 54.2195 4.552C54.2195 4.648 54.2465 4.73 54.3005 4.798C54.3565 4.864 54.4545 4.925 54.5945 4.981C54.7345 5.037 54.9325 5.097 55.1885 5.161C55.5005 5.241 55.7435 5.323 55.9175 5.407C56.0935 5.491 56.2175 5.59 56.2895 5.704C56.3615 5.816 56.3975 5.955 56.3975 6.121C56.3975 6.421 56.2855 6.657 56.0615 6.829C55.8395 6.999 55.5335 7.084 55.1435 7.084ZM60.3498 7.09C59.9198 7.09 59.5588 6.995 59.2668 6.805C58.9748 6.613 58.7548 6.348 58.6068 6.01C58.4588 5.672 58.3848 5.282 58.3848 4.84C58.3848 4.398 58.4588 4.008 58.6068 3.67C58.7548 3.332 58.9748 3.068 59.2668 2.878C59.5588 2.686 59.9198 2.59 60.3498 2.59C60.8518 2.59 61.2588 2.72 61.5708 2.98C61.8848 3.24 62.0978 3.588 62.2098 4.024L61.8528 4.111C61.7608 3.749 61.5888 3.462 61.3368 3.25C61.0868 3.036 60.7578 2.929 60.3498 2.929C59.9958 2.929 59.7008 3.01 59.4648 3.172C59.2308 3.334 59.0538 3.559 58.9338 3.847C58.8158 4.135 58.7558 4.466 58.7538 4.84C58.7498 5.214 58.8068 5.545 58.9248 5.833C59.0448 6.119 59.2238 6.344 59.4618 6.508C59.6998 6.67 59.9958 6.751 60.3498 6.751C60.7578 6.751 61.0868 6.644 61.3368 6.43C61.5888 6.216 61.7608 5.929 61.8528 5.569L62.2098 5.656C62.0978 6.092 61.8848 6.44 61.5708 6.7C61.2588 6.96 60.8518 7.09 60.3498 7.09ZM63.983 7.09C63.733 7.09 63.525 7.046 63.359 6.958C63.195 6.87 63.072 6.754 62.99 6.61C62.908 6.464 62.867 6.306 62.867 6.136C62.867 5.952 62.905 5.798 62.981 5.674C63.059 5.55 63.162 5.45 63.29 5.374C63.42 5.298 63.563 5.241 63.719 5.203C63.897 5.163 64.089 5.129 64.295 5.101C64.501 5.071 64.697 5.045 64.883 5.023C65.071 5.001 65.224 4.982 65.342 4.966L65.216 5.041C65.224 4.691 65.158 4.431 65.018 4.261C64.88 4.089 64.636 4.003 64.286 4.003C64.04 4.003 63.837 4.059 63.677 4.171C63.519 4.281 63.408 4.452 63.344 4.684L62.99 4.585C63.064 4.291 63.213 4.065 63.437 3.907C63.661 3.749 63.948 3.67 64.298 3.67C64.596 3.67 64.846 3.728 65.048 3.844C65.252 3.96 65.394 4.123 65.474 4.333C65.508 4.419 65.531 4.52 65.543 4.636C65.555 4.75 65.561 4.865 65.561 4.981V7H65.246V6.148L65.363 6.178C65.265 6.47 65.094 6.695 64.85 6.853C64.606 7.011 64.317 7.09 63.983 7.09ZM64.001 6.772C64.221 6.772 64.414 6.733 64.58 6.655C64.746 6.575 64.88 6.464 64.982 6.322C65.086 6.178 65.152 6.009 65.18 5.815C65.2 5.707 65.211 5.59 65.213 5.464C65.215 5.338 65.216 5.245 65.216 5.185L65.366 5.281C65.236 5.297 65.08 5.314 64.898 5.332C64.718 5.35 64.534 5.372 64.346 5.398C64.158 5.424 63.988 5.457 63.836 5.497C63.742 5.523 63.647 5.561 63.551 5.611C63.457 5.659 63.378 5.726 63.314 5.812C63.252 5.898 63.221 6.007 63.221 6.139C63.221 6.237 63.245 6.335 63.293 6.433C63.343 6.531 63.425 6.612 63.539 6.676C63.653 6.74 63.807 6.772 64.001 6.772ZM66.52 7V3.76H66.835V4.537L66.757 4.435C66.793 4.343 66.838 4.258 66.892 4.18C66.948 4.1 67.005 4.035 67.063 3.985C67.149 3.905 67.25 3.845 67.366 3.805C67.482 3.763 67.599 3.739 67.717 3.733C67.835 3.725 67.942 3.734 68.038 3.76V4.087C67.91 4.057 67.774 4.051 67.63 4.069C67.486 4.087 67.351 4.149 67.225 4.255C67.115 4.351 67.035 4.463 66.985 4.591C66.935 4.717 66.903 4.85 66.889 4.99C66.875 5.128 66.868 5.263 66.868 5.395V7H66.52ZM70.5049 7C70.3329 7.038 70.1629 7.052 69.9949 7.042C69.8269 7.034 69.6769 6.997 69.5449 6.931C69.4149 6.863 69.3169 6.759 69.2509 6.619C69.1969 6.505 69.1669 6.39 69.1609 6.274C69.1549 6.158 69.1519 6.025 69.1519 5.875V2.86H69.4999V5.869C69.4999 6.005 69.5009 6.118 69.5029 6.208C69.5069 6.296 69.5279 6.377 69.5659 6.451C69.6379 6.589 69.7519 6.673 69.9079 6.703C70.0639 6.731 70.2629 6.726 70.5049 6.688V7ZM68.4259 4.075V3.76H70.5049V4.075H68.4259ZM72.9624 3.232C72.8824 3.232 72.8034 3.216 72.7254 3.184C72.6474 3.152 72.5714 3.116 72.4974 3.076C72.4254 3.034 72.3554 2.997 72.2874 2.965C72.2214 2.933 72.1584 2.917 72.0984 2.917C72.0184 2.917 71.9674 2.948 71.9454 3.01C71.9234 3.07 71.9234 3.131 71.9454 3.193H71.6814C71.6394 3.033 71.6574 2.898 71.7354 2.788C71.8154 2.676 71.9344 2.62 72.0924 2.62C72.1744 2.62 72.2544 2.636 72.3324 2.668C72.4104 2.7 72.4864 2.737 72.5604 2.779C72.6344 2.819 72.7044 2.855 72.7704 2.887C72.8384 2.919 72.9014 2.935 72.9594 2.935C73.0334 2.935 73.0834 2.906 73.1094 2.848C73.1374 2.79 73.1394 2.724 73.1154 2.65H73.3794C73.4194 2.806 73.4004 2.942 73.3224 3.058C73.2444 3.174 73.1244 3.232 72.9624 3.232ZM72.5274 7.09C72.2054 7.09 71.9324 7.017 71.7084 6.871C71.4844 6.725 71.3134 6.523 71.1954 6.265C71.0774 6.007 71.0184 5.71 71.0184 5.374C71.0184 5.036 71.0784 4.739 71.1984 4.483C71.3184 4.225 71.4904 4.025 71.7144 3.883C71.9404 3.741 72.2114 3.67 72.5274 3.67C72.8494 3.67 73.1224 3.743 73.3464 3.889C73.5724 4.033 73.7434 4.233 73.8594 4.489C73.9774 4.745 74.0364 5.04 74.0364 5.374C74.0364 5.716 73.9774 6.016 73.8594 6.274C73.7414 6.53 73.5694 6.73 73.3434 6.874C73.1174 7.018 72.8454 7.09 72.5274 7.09ZM72.5274 6.754C72.9094 6.754 73.1944 6.626 73.3824 6.37C73.5724 6.114 73.6674 5.782 73.6674 5.374C73.6674 4.958 73.5724 4.626 73.3824 4.378C73.1924 4.13 72.9074 4.006 72.5274 4.006C72.2694 4.006 72.0564 4.065 71.8884 4.183C71.7204 4.299 71.5944 4.46 71.5104 4.666C71.4284 4.87 71.3874 5.106 71.3874 5.374C71.3874 5.79 71.4834 6.124 71.6754 6.376C71.8694 6.628 72.1534 6.754 72.5274 6.754ZM76.2114 7.09C75.9014 7.09 75.6334 7.021 75.4074 6.883C75.1814 6.743 75.0064 6.546 74.8824 6.292C74.7584 6.036 74.6964 5.734 74.6964 5.386C74.6964 5.032 74.7574 4.727 74.8794 4.471C75.0034 4.213 75.1774 4.015 75.4014 3.877C75.6274 3.739 75.8954 3.67 76.2054 3.67C76.5194 3.67 76.7874 3.742 77.0094 3.886C77.2334 4.028 77.4034 4.234 77.5194 4.504C77.6374 4.774 77.6934 5.099 77.6874 5.479H77.3274V5.359C77.3174 4.915 77.2174 4.577 77.0274 4.345C76.8374 4.113 76.5654 3.997 76.2114 3.997C75.8454 3.997 75.5624 4.118 75.3624 4.36C75.1644 4.6 75.0654 4.94 75.0654 5.38C75.0654 5.816 75.1644 6.154 75.3624 6.394C75.5624 6.634 75.8434 6.754 76.2054 6.754C76.4554 6.754 76.6734 6.696 76.8594 6.58C77.0474 6.462 77.1964 6.294 77.3064 6.076L77.6184 6.214C77.4884 6.494 77.3004 6.71 77.0544 6.862C76.8084 7.014 76.5274 7.09 76.2114 7.09ZM74.9334 5.479V5.167H77.4924V5.479H74.9334ZM79.728 7.084C79.354 7.084 79.045 7.005 78.801 6.847C78.559 6.689 78.409 6.469 78.351 6.187L78.705 6.127C78.755 6.319 78.873 6.472 79.059 6.586C79.245 6.7 79.473 6.757 79.743 6.757C80.011 6.757 80.224 6.7 80.382 6.586C80.54 6.472 80.619 6.316 80.619 6.118C80.619 6.01 80.594 5.922 80.544 5.854C80.496 5.784 80.4 5.72 80.256 5.662C80.112 5.604 79.898 5.536 79.614 5.458C79.314 5.378 79.079 5.298 78.909 5.218C78.741 5.138 78.622 5.047 78.552 4.945C78.484 4.843 78.45 4.718 78.45 4.57C78.45 4.392 78.501 4.236 78.603 4.102C78.705 3.966 78.847 3.86 79.029 3.784C79.213 3.708 79.425 3.67 79.665 3.67C79.905 3.67 80.121 3.71 80.313 3.79C80.505 3.868 80.66 3.978 80.778 4.12C80.896 4.26 80.964 4.423 80.982 4.609L80.628 4.675C80.594 4.467 80.489 4.303 80.313 4.183C80.137 4.061 79.917 3.999 79.653 3.997C79.403 3.993 79.199 4.043 79.041 4.147C78.883 4.249 78.804 4.384 78.804 4.552C78.804 4.648 78.831 4.73 78.885 4.798C78.941 4.864 79.039 4.925 79.179 4.981C79.319 5.037 79.517 5.097 79.773 5.161C80.085 5.241 80.328 5.323 80.502 5.407C80.678 5.491 80.802 5.59 80.874 5.704C80.946 5.816 80.982 5.955 80.982 6.121C80.982 6.421 80.87 6.657 80.646 6.829C80.424 6.999 80.118 7.084 79.728 7.084ZM83.2094 7V2.68H83.5574L86.0594 6.385V2.68H86.4074V7H86.0594L83.5574 3.289V7H83.2094ZM88.3625 7.09C88.1125 7.09 87.9045 7.046 87.7385 6.958C87.5745 6.87 87.4515 6.754 87.3695 6.61C87.2875 6.464 87.2465 6.306 87.2465 6.136C87.2465 5.952 87.2845 5.798 87.3605 5.674C87.4385 5.55 87.5415 5.45 87.6695 5.374C87.7995 5.298 87.9425 5.241 88.0985 5.203C88.2765 5.163 88.4685 5.129 88.6745 5.101C88.8805 5.071 89.0765 5.045 89.2625 5.023C89.4505 5.001 89.6035 4.982 89.7215 4.966L89.5955 5.041C89.6035 4.691 89.5375 4.431 89.3975 4.261C89.2595 4.089 89.0155 4.003 88.6655 4.003C88.4195 4.003 88.2165 4.059 88.0565 4.171C87.8985 4.281 87.7875 4.452 87.7235 4.684L87.3695 4.585C87.4435 4.291 87.5925 4.065 87.8165 3.907C88.0405 3.749 88.3275 3.67 88.6775 3.67C88.9755 3.67 89.2255 3.728 89.4275 3.844C89.6315 3.96 89.7735 4.123 89.8535 4.333C89.8875 4.419 89.9105 4.52 89.9225 4.636C89.9345 4.75 89.9405 4.865 89.9405 4.981V7H89.6255V6.148L89.7425 6.178C89.6445 6.47 89.4735 6.695 89.2295 6.853C88.9855 7.011 88.6965 7.09 88.3625 7.09ZM88.3805 6.772C88.6005 6.772 88.7935 6.733 88.9595 6.655C89.1255 6.575 89.2595 6.464 89.3615 6.322C89.4655 6.178 89.5315 6.009 89.5595 5.815C89.5795 5.707 89.5905 5.59 89.5925 5.464C89.5945 5.338 89.5955 5.245 89.5955 5.185L89.7455 5.281C89.6155 5.297 89.4595 5.314 89.2775 5.332C89.0975 5.35 88.9135 5.372 88.7255 5.398C88.5375 5.424 88.3675 5.457 88.2155 5.497C88.1215 5.523 88.0265 5.561 87.9305 5.611C87.8365 5.659 87.7575 5.726 87.6935 5.812C87.6315 5.898 87.6005 6.007 87.6005 6.139C87.6005 6.237 87.6245 6.335 87.6725 6.433C87.7225 6.531 87.8045 6.612 87.9185 6.676C88.0325 6.74 88.1865 6.772 88.3805 6.772ZM92.2225 7.09C91.8985 7.09 91.6255 7.018 91.4035 6.874C91.1815 6.728 91.0125 6.527 90.8965 6.271C90.7825 6.013 90.7235 5.716 90.7195 5.38C90.7235 5.038 90.7835 4.739 90.8995 4.483C91.0175 4.225 91.1875 4.025 91.4095 3.883C91.6315 3.741 91.9035 3.67 92.2255 3.67C92.5395 3.67 92.8155 3.746 93.0535 3.898C93.2935 4.048 93.4595 4.255 93.5515 4.519L93.2155 4.642C93.1335 4.44 93.0045 4.284 92.8285 4.174C92.6525 4.062 92.4505 4.006 92.2225 4.006C91.9665 4.006 91.7555 4.065 91.5895 4.183C91.4235 4.299 91.2995 4.46 91.2175 4.666C91.1355 4.872 91.0925 5.11 91.0885 5.38C91.0945 5.794 91.1915 6.127 91.3795 6.379C91.5695 6.629 91.8505 6.754 92.2225 6.754C92.4525 6.754 92.6515 6.701 92.8195 6.595C92.9895 6.489 93.1195 6.335 93.2095 6.133L93.5515 6.25C93.4255 6.524 93.2495 6.733 93.0235 6.877C92.7975 7.019 92.5305 7.09 92.2225 7.09ZM94.3328 3.106V2.665H94.6778V3.106H94.3328ZM94.3328 7V3.76H94.6778V7H94.3328ZM97.0885 7.09C96.7665 7.09 96.4935 7.017 96.2695 6.871C96.0455 6.725 95.8745 6.523 95.7565 6.265C95.6385 6.007 95.5795 5.71 95.5795 5.374C95.5795 5.036 95.6395 4.739 95.7595 4.483C95.8795 4.225 96.0515 4.025 96.2755 3.883C96.5015 3.741 96.7725 3.67 97.0885 3.67C97.4105 3.67 97.6835 3.743 97.9075 3.889C98.1335 4.033 98.3045 4.233 98.4205 4.489C98.5385 4.745 98.5975 5.04 98.5975 5.374C98.5975 5.716 98.5385 6.016 98.4205 6.274C98.3025 6.53 98.1305 6.73 97.9045 6.874C97.6785 7.018 97.4065 7.09 97.0885 7.09ZM97.0885 6.754C97.4705 6.754 97.7555 6.626 97.9435 6.37C98.1335 6.114 98.2285 5.782 98.2285 5.374C98.2285 4.958 98.1335 4.626 97.9435 4.378C97.7535 4.13 97.4685 4.006 97.0885 4.006C96.8305 4.006 96.6175 4.065 96.4495 4.183C96.2815 4.299 96.1555 4.46 96.0715 4.666C95.9895 4.87 95.9485 5.106 95.9485 5.374C95.9485 5.79 96.0445 6.124 96.2365 6.376C96.4305 6.628 96.7145 6.754 97.0885 6.754ZM101.811 7V5.314C101.811 5.11 101.79 4.928 101.748 4.768C101.708 4.608 101.646 4.472 101.562 4.36C101.48 4.248 101.376 4.163 101.25 4.105C101.126 4.047 100.979 4.018 100.809 4.018C100.633 4.018 100.48 4.049 100.35 4.111C100.222 4.171 100.116 4.256 100.032 4.366C99.9495 4.476 99.8875 4.607 99.8455 4.759C99.8055 4.909 99.7855 5.073 99.7855 5.251L99.5125 5.218C99.5125 4.868 99.5715 4.58 99.6895 4.354C99.8095 4.126 99.9705 3.958 100.173 3.85C100.375 3.74 100.602 3.685 100.854 3.685C101.032 3.685 101.191 3.711 101.331 3.763C101.473 3.815 101.596 3.889 101.7 3.985C101.804 4.079 101.89 4.191 101.958 4.321C102.026 4.449 102.076 4.59 102.108 4.744C102.142 4.898 102.159 5.059 102.159 5.227V7H101.811ZM99.4375 7V3.76H99.7525V4.489H99.7855V7H99.4375ZM104.052 7.09C103.802 7.09 103.594 7.046 103.428 6.958C103.264 6.87 103.141 6.754 103.059 6.61C102.977 6.464 102.936 6.306 102.936 6.136C102.936 5.952 102.974 5.798 103.05 5.674C103.128 5.55 103.231 5.45 103.359 5.374C103.489 5.298 103.632 5.241 103.788 5.203C103.966 5.163 104.158 5.129 104.364 5.101C104.57 5.071 104.766 5.045 104.952 5.023C105.14 5.001 105.293 4.982 105.411 4.966L105.285 5.041C105.293 4.691 105.227 4.431 105.087 4.261C104.949 4.089 104.705 4.003 104.355 4.003C104.109 4.003 103.906 4.059 103.746 4.171C103.588 4.281 103.477 4.452 103.413 4.684L103.059 4.585C103.133 4.291 103.282 4.065 103.506 3.907C103.73 3.749 104.017 3.67 104.367 3.67C104.665 3.67 104.915 3.728 105.117 3.844C105.321 3.96 105.463 4.123 105.543 4.333C105.577 4.419 105.6 4.52 105.612 4.636C105.624 4.75 105.63 4.865 105.63 4.981V7H105.315V6.148L105.432 6.178C105.334 6.47 105.163 6.695 104.919 6.853C104.675 7.011 104.386 7.09 104.052 7.09ZM104.07 6.772C104.29 6.772 104.483 6.733 104.649 6.655C104.815 6.575 104.949 6.464 105.051 6.322C105.155 6.178 105.221 6.009 105.249 5.815C105.269 5.707 105.28 5.59 105.282 5.464C105.284 5.338 105.285 5.245 105.285 5.185L105.435 5.281C105.305 5.297 105.149 5.314 104.967 5.332C104.787 5.35 104.603 5.372 104.415 5.398C104.227 5.424 104.057 5.457 103.905 5.497C103.811 5.523 103.716 5.561 103.62 5.611C103.526 5.659 103.447 5.726 103.383 5.812C103.321 5.898 103.29 6.007 103.29 6.139C103.29 6.237 103.314 6.335 103.362 6.433C103.412 6.531 103.494 6.612 103.608 6.676C103.722 6.74 103.876 6.772 104.07 6.772ZM106.649 3.106V2.665H106.994V3.106H106.649ZM106.649 7V3.76H106.994V7H106.649ZM109.272 7.084C108.898 7.084 108.589 7.005 108.345 6.847C108.103 6.689 107.953 6.469 107.895 6.187L108.249 6.127C108.299 6.319 108.417 6.472 108.603 6.586C108.789 6.7 109.017 6.757 109.287 6.757C109.555 6.757 109.768 6.7 109.926 6.586C110.084 6.472 110.163 6.316 110.163 6.118C110.163 6.01 110.138 5.922 110.088 5.854C110.04 5.784 109.944 5.72 109.8 5.662C109.656 5.604 109.442 5.536 109.158 5.458C108.858 5.378 108.623 5.298 108.453 5.218C108.285 5.138 108.166 5.047 108.096 4.945C108.028 4.843 107.994 4.718 107.994 4.57C107.994 4.392 108.045 4.236 108.147 4.102C108.249 3.966 108.391 3.86 108.573 3.784C108.757 3.708 108.969 3.67 109.209 3.67C109.449 3.67 109.665 3.71 109.857 3.79C110.049 3.868 110.204 3.978 110.322 4.12C110.44 4.26 110.508 4.423 110.526 4.609L110.172 4.675C110.138 4.467 110.033 4.303 109.857 4.183C109.681 4.061 109.461 3.999 109.197 3.997C108.947 3.993 108.743 4.043 108.585 4.147C108.427 4.249 108.348 4.384 108.348 4.552C108.348 4.648 108.375 4.73 108.429 4.798C108.485 4.864 108.583 4.925 108.723 4.981C108.863 5.037 109.061 5.097 109.317 5.161C109.629 5.241 109.872 5.323 110.046 5.407C110.222 5.491 110.346 5.59 110.418 5.704C110.49 5.816 110.526 5.955 110.526 6.121C110.526 6.421 110.414 6.657 110.19 6.829C109.968 6.999 109.662 7.084 109.272 7.084ZM111.444 7V6.565H111.879V7H111.444Z" fill="#1A1A1A"/>
</svg>
