<svg width="38" height="56" viewBox="0 0 38 56" fill="none" xmlns="http://www.w3.org/2000/svg">
<g clip-path="url(#clip0)">
<path d="M5.92406 46.4079C6.10434 46.5135 6.24111 46.6503 6.34058 46.8306C6.44004 47.0109 6.48978 47.2036 6.48978 47.4212C6.48978 47.6388 6.44004 47.8315 6.34058 48.0118C6.24111 48.1921 6.10434 48.3226 5.92406 48.4221C5.74377 48.5215 5.53862 48.5713 5.30239 48.5713H4.35745V49.9825H3.7793V46.2524H5.30239C5.53862 46.2524 5.74377 46.3022 5.92406 46.4079ZM5.74377 47.8999C5.86811 47.7817 5.93027 47.6201 5.93027 47.415C5.93027 47.2844 5.90541 47.1663 5.84946 47.0668C5.79351 46.9674 5.71269 46.8865 5.60701 46.8306C5.50132 46.7746 5.37699 46.7498 5.234 46.7498H4.35745V48.0739H5.234C5.45159 48.0739 5.61944 48.018 5.74377 47.8999Z" fill="white"/>
<path d="M8.51644 48.3661H7.78287V49.9825H7.21094V46.2524H8.64078C8.85836 46.2524 9.05108 46.3022 9.22515 46.3954C9.39921 46.4887 9.52355 46.6192 9.6168 46.7871C9.71005 46.9549 9.75357 47.129 9.75357 47.3279C9.75357 47.4833 9.72248 47.6263 9.66653 47.7569C9.61058 47.8874 9.52355 47.9993 9.42408 48.0988C9.32461 48.1983 9.20028 48.2666 9.0573 48.3102L10.0458 49.9887H9.42408L8.51644 48.3661ZM7.77666 47.875H8.58483C8.76511 47.875 8.91431 47.8253 9.02 47.732C9.12568 47.6388 9.18163 47.502 9.18163 47.3279C9.18163 47.216 9.15676 47.1166 9.10703 47.0295C9.0573 46.9425 8.98891 46.8741 8.89566 46.8306C8.80241 46.7871 8.70294 46.756 8.58483 46.756H7.77666V47.875Z" fill="white"/>
<path d="M11.2894 49.7772C10.991 49.6094 10.761 49.3794 10.5869 49.0872C10.4128 48.795 10.332 48.4717 10.332 48.1174C10.332 47.763 10.4191 47.4398 10.5869 47.1476C10.7548 46.8554 10.991 46.6254 11.2894 46.4575C11.5878 46.2897 11.9111 46.2026 12.2716 46.2026C12.6322 46.2026 12.9555 46.2897 13.2539 46.4575C13.5523 46.6254 13.7823 46.8554 13.9564 47.1476C14.1304 47.4398 14.2113 47.763 14.2113 48.1174C14.2113 48.4717 14.1242 48.795 13.9564 49.0872C13.7885 49.3794 13.5523 49.6094 13.2539 49.7772C12.9555 49.9451 12.6322 50.0321 12.2716 50.0321C11.9111 50.0321 11.5878 49.9451 11.2894 49.7772ZM12.9617 49.3048C13.1731 49.1866 13.3347 49.0188 13.459 48.8136C13.5834 48.6085 13.6393 48.3723 13.6393 48.1236C13.6393 47.8749 13.5771 47.6387 13.459 47.4335C13.3409 47.2284 13.1731 47.0605 12.9617 46.9424C12.7503 46.8243 12.5203 46.7621 12.2716 46.7621C12.023 46.7621 11.793 46.8243 11.5816 46.9424C11.3702 47.0605 11.2086 47.2284 11.0843 47.4398C10.9599 47.6511 10.904 47.8687 10.904 48.1174C10.904 48.366 10.9661 48.5961 11.0843 48.8074C11.2024 49.0188 11.3702 49.1804 11.5816 49.3048C11.793 49.4291 12.023 49.4851 12.2716 49.4851C12.5203 49.4851 12.7503 49.4229 12.9617 49.3048Z" fill="white"/>
<path d="M14.9766 46.2524H16.1826C16.5805 46.2524 16.9162 46.327 17.2021 46.4825C17.4881 46.6379 17.6995 46.8492 17.8425 47.129C17.9854 47.4087 18.06 47.7382 18.06 48.1174C18.06 48.4967 17.9854 48.8261 17.8425 49.1059C17.6995 49.3857 17.4819 49.6032 17.2021 49.7524C16.9224 49.9016 16.5805 49.9825 16.1826 49.9825H14.9766V46.2524ZM16.1577 49.4603C16.5929 49.4603 16.9162 49.3421 17.14 49.1121C17.3638 48.8821 17.4695 48.5464 17.4695 48.1112C17.4695 47.6761 17.3576 47.3404 17.14 47.1103C16.9224 46.8803 16.5929 46.7622 16.1577 46.7622H15.5423V49.454H16.1577V49.4603Z" fill="white"/>
<path d="M19.4763 49.8706C19.2525 49.7649 19.0846 49.6157 18.9541 49.4167C18.8235 49.2178 18.7676 48.9878 18.7676 48.7205V46.2524H19.3395V48.621C19.3395 48.9256 19.4203 49.1494 19.582 49.2924C19.7436 49.4354 19.9612 49.51 20.2285 49.51C20.502 49.51 20.7196 49.4354 20.8813 49.2924C21.0429 49.1494 21.1237 48.9256 21.1237 48.621V46.2524H21.6956V48.7267C21.6956 48.994 21.6335 49.224 21.5091 49.423C21.3848 49.6219 21.2107 49.7711 20.9869 49.8768C20.7631 49.9825 20.5145 50.0322 20.2347 50.0322C19.9488 50.0322 19.6939 49.9762 19.4763 49.8706Z" fill="white"/>
<path d="M24.8613 49.3732C25.0354 49.2986 25.1784 49.1991 25.3027 49.0685L25.713 49.4602C25.5514 49.628 25.3524 49.7586 25.1224 49.8581C24.8924 49.9575 24.6562 50.0135 24.4137 50.0259L24.2832 50.2932C24.3267 50.287 24.364 50.2808 24.4013 50.2808C24.4945 50.2808 24.5754 50.2994 24.6437 50.3367C24.7121 50.374 24.7743 50.43 24.8178 50.4984C24.8613 50.5668 24.88 50.6476 24.88 50.7408C24.88 50.8403 24.8551 50.9273 24.8116 51.0081C24.7681 51.089 24.6997 51.1511 24.6189 51.2009C24.5381 51.2506 24.451 51.2692 24.3516 51.2692C24.2272 51.2692 24.1091 51.2382 24.0034 51.1698C23.8977 51.1014 23.8169 51.0206 23.7734 50.9211L24.0469 50.8216C24.0718 50.8714 24.1153 50.9087 24.1775 50.9398C24.2397 50.9708 24.2956 50.9833 24.3516 50.9833C24.4199 50.9833 24.4759 50.9584 24.5256 50.9149C24.5754 50.8714 24.6002 50.8092 24.6002 50.7408C24.6002 50.6662 24.5754 50.6103 24.5318 50.5668C24.4883 50.5232 24.4262 50.5046 24.3516 50.5046C24.2832 50.5046 24.221 50.5232 24.1588 50.5605L23.935 50.4238L24.1464 50.0135C23.8169 49.9824 23.5185 49.8829 23.2512 49.7089C22.9839 49.5348 22.7787 49.311 22.6233 49.0312C22.4679 48.7515 22.3809 48.4469 22.3809 48.1174C22.3809 47.763 22.4679 47.4398 22.6357 47.1476C22.8036 46.8554 23.0398 46.6254 23.3382 46.4575C23.6366 46.2897 23.9599 46.2026 24.3205 46.2026C24.5754 46.2026 24.8302 46.2524 25.0789 46.3581C25.3276 46.4637 25.5389 46.6005 25.713 46.7746L25.3027 47.1662C25.1784 47.0357 25.0292 46.9362 24.8613 46.8616C24.6935 46.787 24.507 46.7497 24.3205 46.7497C24.0656 46.7497 23.8356 46.8119 23.6304 46.93C23.4253 47.0481 23.2574 47.216 23.1331 47.4211C23.0087 47.6263 22.9528 47.8625 22.9528 48.1112C22.9528 48.3598 23.015 48.5961 23.1331 48.8012C23.2512 49.0064 23.419 49.1742 23.6304 49.2923C23.8418 49.4105 24.0718 49.4726 24.3205 49.4726C24.5132 49.4851 24.6873 49.4478 24.8613 49.3732Z" fill="white"/>
<path d="M28.6712 49.1743H26.9057L26.5948 49.9825H25.998L27.4776 46.2525H28.0931L29.5726 49.9825H28.9821L28.6712 49.1743ZM27.6579 45.494C27.6268 45.4443 27.5957 45.4132 27.5647 45.3883C27.5336 45.3635 27.4963 45.3573 27.4528 45.3573C27.3782 45.3573 27.316 45.3946 27.2725 45.4629C27.229 45.5313 27.2103 45.6246 27.2103 45.7365H26.9181C26.9181 45.6059 26.9368 45.494 26.9803 45.3946C27.0238 45.2951 27.086 45.2143 27.1606 45.1583C27.2352 45.1024 27.3346 45.0713 27.4403 45.0713C27.6268 45.0713 27.7822 45.1645 27.9004 45.3448C27.9252 45.3883 27.9563 45.4194 27.9936 45.4443C28.0309 45.4692 28.0682 45.4816 28.1179 45.4816C28.1925 45.4816 28.2547 45.4505 28.292 45.3821C28.3293 45.3137 28.3542 45.2267 28.3542 45.1024H28.6401C28.6401 45.2267 28.6215 45.3448 28.578 45.4443C28.5345 45.5438 28.4785 45.6246 28.3977 45.6805C28.3169 45.7365 28.2236 45.7676 28.1117 45.7676C27.9314 45.7738 27.776 45.6805 27.6579 45.494ZM28.4785 48.6708L27.7885 46.8617L27.0984 48.6708H28.4785Z" fill="white"/>
<path d="M30.7113 49.7772C30.4129 49.6094 30.1829 49.3794 30.0088 49.0872C29.8347 48.795 29.7539 48.4717 29.7539 48.1174C29.7539 47.763 29.8409 47.4398 30.0088 47.1476C30.1766 46.8554 30.4129 46.6254 30.7113 46.4575C31.0097 46.2897 31.3329 46.2026 31.6935 46.2026C32.0541 46.2026 32.3774 46.2897 32.6758 46.4575C32.9742 46.6254 33.2042 46.8554 33.3782 47.1476C33.5523 47.4398 33.6331 47.763 33.6331 48.1174C33.6331 48.4717 33.5461 48.795 33.3782 49.0872C33.2104 49.3794 32.9742 49.6094 32.6758 49.7772C32.3774 49.9451 32.0541 50.0321 31.6935 50.0321C31.3329 50.0321 31.0097 49.9451 30.7113 49.7772ZM32.3836 49.3048C32.5949 49.1866 32.7566 49.0188 32.8809 48.8136C33.0052 48.6085 33.0612 48.3723 33.0612 48.1236C33.0612 47.8749 32.999 47.6387 32.8809 47.4335C32.7628 47.2284 32.5949 47.0605 32.3836 46.9424C32.1722 46.8243 31.9422 46.7621 31.6935 46.7621C31.4448 46.7621 31.2148 46.8243 31.0035 46.9424C30.7921 47.0605 30.6305 47.2284 30.5061 47.4398C30.3818 47.6511 30.3258 47.8687 30.3258 48.1174C30.3258 48.366 30.388 48.5961 30.5061 48.8074C30.6242 49.0188 30.7921 49.1804 31.0035 49.3048C31.2148 49.4291 31.4448 49.4851 31.6935 49.4851C31.9422 49.4851 32.1784 49.4229 32.3836 49.3048Z" fill="white"/>
<path d="M0.571936 52.7429V53.8308H1.94583V54.3468H0.571936V55.4285H2.13854V55.9507H0V52.2207H2.13854V52.7429H0.571936Z" fill="white"/>
<path d="M3.50034 55.7455C3.20194 55.5776 2.97192 55.3476 2.79785 55.0554C2.62379 54.7633 2.54297 54.44 2.54297 54.0856C2.54297 53.7313 2.63 53.408 2.79785 53.1158C2.9657 52.8237 3.20194 52.5936 3.50034 52.4258C3.79874 52.2579 4.12201 52.1709 4.48258 52.1709C4.73746 52.1709 4.99235 52.2206 5.24101 52.3263C5.48968 52.432 5.70105 52.5688 5.87512 52.7428L5.46482 53.1345C5.34048 53.0039 5.19128 52.9045 5.02343 52.8299C4.85558 52.7553 4.66908 52.718 4.48258 52.718C4.22769 52.718 3.99768 52.7801 3.79252 52.8983C3.58737 53.0164 3.41952 53.1842 3.29519 53.3894C3.17086 53.5945 3.1149 53.8308 3.1149 54.0856C3.1149 54.3405 3.17707 54.5705 3.29519 54.7757C3.41331 54.9808 3.58116 55.1487 3.79252 55.2668C4.00389 55.3849 4.22769 55.4533 4.48258 55.4533C4.66908 55.4533 4.84936 55.416 5.02343 55.3414C5.1975 55.2668 5.34048 55.1673 5.46482 55.0368L5.87512 55.4285C5.70105 55.6025 5.48968 55.7455 5.24101 55.845C4.99235 55.9444 4.74368 56.0004 4.48258 56.0004C4.12201 56.0004 3.79874 55.9133 3.50034 55.7455Z" fill="white"/>
<path d="M7.18003 55.7455C6.88163 55.5776 6.65161 55.3476 6.47754 55.0554C6.30347 54.7633 6.22266 54.44 6.22266 54.0856C6.22266 53.7313 6.30969 53.408 6.47754 53.1158C6.64539 52.8237 6.88163 52.5936 7.18003 52.4258C7.47843 52.2579 7.8017 52.1709 8.16227 52.1709C8.52283 52.1709 8.8461 52.2579 9.1445 52.4258C9.4429 52.5936 9.67292 52.8237 9.84699 53.1158C10.0211 53.408 10.1019 53.7313 10.1019 54.0856C10.1019 54.44 10.0148 54.7633 9.84699 55.0554C9.67914 55.3476 9.4429 55.5776 9.1445 55.7455C8.8461 55.9133 8.52283 56.0004 8.16227 56.0004C7.8017 56.0004 7.47843 55.9133 7.18003 55.7455ZM8.85232 55.273C9.06369 55.1549 9.22532 54.9871 9.34965 54.7819C9.47399 54.5768 9.52994 54.3405 9.52994 54.0919C9.52994 53.8432 9.46777 53.607 9.34965 53.4018C9.23154 53.1967 9.06369 53.0288 8.85232 52.9107C8.64095 52.7926 8.41093 52.7304 8.16227 52.7304C7.9136 52.7304 7.68358 52.7926 7.47221 52.9107C7.26084 53.0288 7.09921 53.1967 6.97488 53.408C6.85054 53.6194 6.79459 53.837 6.79459 54.0856C6.79459 54.3343 6.85676 54.5643 6.97488 54.7757C7.09299 54.9871 7.26084 55.1487 7.47221 55.273C7.68358 55.3974 7.9136 55.4533 8.16227 55.4533C8.41093 55.4533 8.64717 55.3912 8.85232 55.273Z" fill="white"/>
<path d="M10.7539 54.4336H12.4946V54.875H10.7539V54.4336Z" fill="white"/>
<path d="M13.9743 52.7429V53.8308H15.3482V54.3468H13.9743V55.9507H13.4023V52.2207H15.5533V52.7429H13.9743Z" fill="white"/>
<path d="M17.5692 54.3344H16.8356V55.9507H16.2637V52.2207H17.6935C17.9111 52.2207 18.1038 52.2704 18.2779 52.3637C18.4519 52.4569 18.5763 52.5875 18.6695 52.7553C18.7628 52.9232 18.8063 53.0973 18.8063 53.2962C18.8063 53.4516 18.7752 53.5946 18.7193 53.7251C18.6633 53.8557 18.5763 53.9676 18.4768 54.0671C18.3773 54.1665 18.253 54.2349 18.11 54.2784L19.0985 55.9569H18.4768L17.5692 54.3344ZM16.8356 53.8433H17.6438C17.8241 53.8433 17.9733 53.7935 18.0789 53.7003C18.1846 53.607 18.2406 53.4703 18.2406 53.2962C18.2406 53.1843 18.2157 53.0848 18.166 52.9978C18.1162 52.9108 18.0479 52.8424 17.9546 52.7989C17.8614 52.7553 17.7619 52.7243 17.6438 52.7243H16.8356V53.8433Z" fill="white"/>
<path d="M19.7383 52.2207H20.3102V55.9507H19.7383V52.2207Z" fill="white"/>
<path d="M21.9079 52.7429V53.8308H23.2818V54.3468H21.9079V55.4285H23.4745V55.9507H21.3359V52.2207H23.4745V52.7429H21.9079Z" fill="white"/>
<path d="M27.6589 52.2207V55.9507H27.174L24.8365 53.1097V55.9507H24.2832V52.2207H24.7619L27.0994 55.0493V52.2207H27.6589Z" fill="white"/>
<path d="M28.6781 52.2207H29.8841C30.282 52.2207 30.6177 52.2953 30.9037 52.4507C31.1896 52.6061 31.401 52.8175 31.544 53.0973C31.687 53.377 31.7616 53.7065 31.7616 54.0857C31.7616 54.4649 31.687 54.7944 31.544 55.0742C31.401 55.3539 31.1834 55.5715 30.9037 55.7207C30.6239 55.8699 30.2758 55.9507 29.8779 55.9507H28.6719V52.2207H28.6781ZM29.8593 55.4285C30.2944 55.4285 30.6177 55.3104 30.8415 55.0804C31.0653 54.8504 31.171 54.5147 31.171 54.0795C31.171 53.6443 31.0591 53.3086 30.8415 53.0786C30.6239 52.8486 30.2944 52.7305 29.8593 52.7305H29.2438V55.4223H29.8593V55.4285Z" fill="white"/>
<path d="M34.4352 55.4285V55.9507H32.5391V52.2207H33.111V55.4285H34.4352Z" fill="white"/>
<path d="M36.2743 54.1852V55.9507H35.7023V54.1976L34.3906 52.2207H35.0682L35.9821 53.6816L36.9022 52.2207H37.5674L36.2743 54.1852Z" fill="white"/>
<path d="M36.2007 1.63503C35.9707 0.453855 34.5968 -0.354315 33.4715 0.354388C33.198 0.528455 32.9493 0.74604 32.6882 0.944974C32.6696 0.926324 32.6447 0.907674 32.6261 0.889024C32.3961 0.559539 32.0666 0.304654 31.6811 0.167887C31.1216 -0.0932143 30.5124 -0.0434807 29.9715 0.310871C29.3064 0.74604 28.9707 1.52934 29.1385 2.294C29.1572 2.37481 29.1758 2.44941 29.2007 2.52401C29.2131 2.56753 29.2318 2.61727 29.2442 2.66078C29.3872 3.06487 29.611 3.43165 29.8534 3.786C30.5 4.73094 31.2957 5.53911 32.135 6.30998C32.4085 6.55865 32.6758 6.57108 32.9556 6.33485C33.2975 6.04888 33.6332 5.7567 33.9564 5.45208C34.6652 4.78689 35.3366 4.09062 35.8277 3.24515C36.1199 2.74782 36.3188 2.22561 36.2007 1.63503Z" fill="white"/>
<path d="M17.0587 33.508C8.00718 33.477 0.851759 26.1102 0.926359 17.1643C0.994743 8.38637 8.23719 1.23096 17.1644 1.23096C25.9423 1.23096 33.1972 8.49828 33.1848 17.2763C33.1724 26.2967 25.9983 33.5143 17.0587 33.508ZM24.2825 16.2318C24.2638 16.9281 24.5747 17.4379 25.1528 17.7176C25.3953 17.8295 25.6502 17.9228 25.8988 18.0223C26.6759 18.3331 26.8811 18.8739 26.4645 19.6075C26.1351 20.1794 25.7994 20.7638 25.3891 21.2798C24.7114 22.1253 24.3633 23.0453 24.3384 24.127C24.3198 24.842 24.2017 25.5507 23.7789 26.1661C23.151 27.0862 22.3429 27.8322 21.4042 28.4166C20.3722 29.0569 19.4708 28.8455 18.7869 27.8446C18.159 26.9246 17.929 25.8864 17.9166 24.7985C17.9104 24.2141 17.8109 23.6732 17.5622 23.1324C17.413 22.8153 17.3757 22.4175 17.3757 22.0569C17.3757 21.2985 17.1333 20.969 16.3873 20.8571C16.1759 20.826 15.9521 20.8384 15.7407 20.8509C14.255 20.9752 13.0489 20.4032 12.048 19.3526C11.8615 19.1537 11.7248 18.8864 11.6315 18.6253C10.5809 15.635 12.7008 12.477 15.7843 12.4334C16.7727 12.4148 17.6928 12.707 18.6439 12.9059C19.5454 13.0924 20.4841 13.1421 21.4104 13.1981C21.8269 13.223 21.9201 13.0551 21.8953 12.651C21.8518 12.0045 21.4415 11.6004 20.6146 11.5382C19.8438 11.4761 19.0605 11.5196 18.2834 11.4947C17.699 11.4761 17.1084 11.4699 16.5365 11.3642C15.9708 11.2585 15.6599 10.8109 15.6972 10.2825C15.7345 9.71053 15.9272 9.15724 16.4557 8.89614C17.04 8.61018 17.1892 8.16879 17.2079 7.60307C17.2265 7.0933 17.4752 6.70787 17.8917 6.47785C18.2336 6.29135 18.6129 6.14215 18.9983 6.07998C19.5454 5.98673 20.1049 5.98673 20.7203 5.94321C20.5463 4.95476 20.2603 3.96009 21.0498 3.0711C19.4894 2.63593 17.9725 2.4743 16.4059 2.54268C16.4059 2.90946 16.4121 3.22652 16.4059 3.54357C16.3811 4.45121 15.9272 5.03557 15.1004 5.38371C14.5036 5.63859 13.9255 5.937 13.366 6.26026C13.1981 6.35973 13.0862 6.59597 13.0178 6.7949C12.9184 7.08087 12.7567 7.26115 12.4583 7.29845C12.1599 7.32954 11.9361 7.19277 11.8056 6.92545C11.6253 6.55245 11.6812 6.17323 11.9423 5.88726C12.2656 5.53291 12.6262 5.19721 13.0365 4.94854C13.5463 4.63771 14.1244 4.44499 14.6528 4.16524C14.8331 4.06577 15.0507 3.88549 15.0942 3.7052C15.1688 3.38193 15.1129 3.0338 15.1129 2.66701C12.9494 2.94677 10.9912 3.67412 9.20078 4.79312C9.31268 5.48318 9.42458 6.13593 9.53027 6.78868C9.74785 8.16879 9.23186 9.18833 7.99474 9.83486C7.64661 10.0214 7.28604 10.1892 6.92547 10.3446C6.18568 10.6617 5.75051 11.3082 5.20345 11.8366C4.60664 12.4086 3.94767 12.8624 3.01517 12.5764C2.90327 12.937 2.8038 13.2851 2.71677 13.5649C3.35087 13.7514 3.96011 13.8633 4.51339 14.1057C5.45211 14.516 5.8189 15.2372 5.75673 16.2567C5.72565 16.7416 5.76917 17.2265 5.76295 17.7114C5.75673 18.3393 6.06135 18.8056 6.49652 19.2096C6.87574 19.5702 7.27361 19.9121 7.63417 20.2976C8.41126 21.1244 8.61641 22.088 8.26828 23.1697C8.15638 23.524 7.98853 23.8722 7.95123 24.2327C7.88284 24.9104 7.89528 25.6004 7.87041 26.2842C7.84554 27.0675 7.55336 27.6954 6.78249 28.0746C7.80824 29.0755 8.9459 29.8899 10.1644 30.524C10.3322 30.3002 10.4441 30.0578 10.6306 29.9334C11.358 29.461 12.0667 28.9388 12.8562 28.6093C14.8207 27.7825 16.7354 28.2985 18.0782 29.9583C18.5072 30.4867 18.8677 31.0897 19.1848 31.699C19.3464 32.0036 19.5081 32.0596 19.8065 31.9974C22.9583 31.3695 25.6626 29.9148 27.8633 27.5711C30.5116 24.7487 31.8544 21.3793 31.9228 17.5125C31.9415 16.5986 31.9539 15.6723 31.5995 14.7958C31.3571 14.1866 31.0773 14.0187 30.4432 14.1741C30.0205 14.2798 29.6164 14.429 29.1937 14.5471C28.7647 14.6652 28.3979 14.6093 28.0436 14.2549C27.8136 14.0249 27.4406 13.9006 27.1049 13.8135C26.8002 13.7327 26.6075 14.0125 26.7194 14.3171C26.794 14.5223 26.8997 14.715 26.9743 14.9139C27.2851 15.7283 26.9308 16.3935 26.0791 16.5924C25.4388 16.7292 24.8544 16.5986 24.2825 16.2318ZM17.0027 10.1333C17.0152 10.1643 17.0338 10.1954 17.0463 10.2265C17.3384 10.2265 17.6244 10.2203 17.9166 10.2265C18.8988 10.2452 19.8873 10.2141 20.8633 10.2949C22.0196 10.3944 22.8216 11.0844 23.0827 12.0604C23.4557 13.4778 22.7345 14.4663 21.2736 14.4725C20.4965 14.4725 19.7132 14.4104 18.9486 14.286C18.0844 14.143 17.2452 13.8384 16.3748 13.7203C14.2177 13.4343 12.4459 15.1999 12.6324 17.3633C12.707 18.215 13.08 18.8242 13.882 19.1848C14.5036 19.4645 15.1129 19.7381 15.8278 19.5702C15.9956 19.5329 16.1821 19.5578 16.3624 19.5702C17.8296 19.6572 18.6688 20.5773 18.6253 22.0507C18.6191 22.1999 18.6066 22.3802 18.675 22.4983C19.1599 23.3562 19.1661 24.3073 19.2159 25.2523C19.2532 25.9237 19.4521 26.5578 19.8313 27.1173C20.1235 27.5462 20.366 27.6146 20.7887 27.2976C21.2985 26.9121 21.7834 26.4956 22.2434 26.0604C22.7843 25.5445 23.064 24.9041 23.064 24.1457C23.0702 22.7096 23.5551 21.4539 24.4939 20.3597C24.8047 19.9992 25.0223 19.564 25.2896 19.1475C25.072 19.0542 24.9042 18.9858 24.7425 18.9175C23.5303 18.3953 23.0081 17.4254 22.977 16.1572C22.9645 15.635 23.0889 15.1439 23.6111 14.9015C24.1457 14.6528 24.6368 14.8082 25.0534 15.1874C25.2647 15.3802 25.4823 15.3988 25.7621 15.318C25.6688 15.1066 25.5756 14.9263 25.5072 14.7336C25.0844 13.6022 25.9548 12.4272 27.1608 12.5205C27.7265 12.564 28.2674 12.7381 28.7088 13.1111C28.8766 13.254 29.0072 13.2665 29.2185 13.2105C29.8526 13.0427 30.493 12.9121 31.1644 12.7567C31.1519 12.7132 31.1209 12.5826 31.0773 12.4583C30.4059 10.5684 29.3988 8.88371 28.056 7.39792C26.5143 5.69454 24.6679 4.42634 22.5418 3.56843C22.4423 3.53113 22.2558 3.56843 22.1875 3.63682C21.7958 4.03469 21.7088 4.50716 21.858 5.04801C22.2496 6.46542 21.6466 7.22385 20.1795 7.23007C19.7629 7.23007 19.3402 7.30467 18.9299 7.37305C18.6004 7.429 18.4512 7.6155 18.4264 7.97607C18.3704 8.79046 18.0907 9.49295 17.2638 9.85351C17.1582 9.90325 17.0898 10.04 17.0027 10.1333ZM2.3935 14.8269C2.33755 15.3864 2.28782 15.8278 2.25673 16.2691C1.97698 20.167 3.1022 23.6235 5.48941 26.6883C5.71321 26.9805 6.0054 26.8873 6.25407 26.8437C6.3784 26.8189 6.48409 26.5826 6.55247 26.4272C6.6022 26.3029 6.62085 26.1475 6.59599 26.0107C6.39705 24.929 6.62085 23.9032 7.00629 22.9024C7.28604 22.1688 7.10576 21.5533 6.55247 21.0249C6.21677 20.7079 5.88107 20.4032 5.54536 20.0862C4.85531 19.4334 4.46366 18.6439 4.46988 17.6803C4.47609 17.1581 4.44501 16.6297 4.47609 16.1075C4.50096 15.6661 4.30203 15.3739 3.92902 15.2372C3.46277 15.0631 2.96544 14.9699 2.3935 14.8269ZM18.0347 32.1963C17.3198 30.9219 16.5738 29.8091 15.0631 29.5231C13.8944 29.2993 12.0356 30.2008 11.3331 31.0773C13.453 31.9477 15.6475 32.3393 18.0347 32.1963ZM3.45034 11.4201C3.67414 11.3269 3.82334 11.2958 3.92281 11.215C4.19634 10.985 4.46988 10.7549 4.69989 10.4814C5.1848 9.89703 5.76917 9.46808 6.44679 9.14481C6.85087 8.95209 7.25496 8.75938 7.64039 8.53557C8.05691 8.29312 8.31179 7.92012 8.28071 7.43522C8.24341 6.8322 8.15016 6.2354 8.06934 5.55778C6.02405 7.14303 4.53204 9.04534 3.45034 11.4201Z" fill="white"/>
<path d="M28.8587 21.9075C28.8027 22.9395 27.7397 24.4439 26.7885 24.7921C26.3969 24.935 26.0239 24.7983 25.8933 24.4626C25.7565 24.1144 25.9368 23.8347 26.3036 23.5985C27.0061 23.1571 27.5407 22.5914 27.5034 21.6713C27.491 21.3729 27.6464 21.1491 27.9262 21.0558C28.2184 20.9564 28.4981 21.0247 28.6597 21.3045C28.7654 21.4848 28.7965 21.7086 28.8587 21.9075Z" fill="white"/>
<path d="M6.19768 32.9111C6.03604 32.0905 5.08489 31.531 4.30158 32.0222C4.10887 32.1403 3.9348 32.2895 3.75451 32.4262C3.74208 32.4138 3.72343 32.4014 3.711 32.3889C3.55558 32.1589 3.32556 31.9849 3.05824 31.8854C2.66038 31.7051 2.24386 31.7424 1.86464 31.9849C1.39839 32.2895 1.16837 32.8303 1.28649 33.3588C1.29892 33.4147 1.31135 33.4644 1.33 33.5204C1.34244 33.5515 1.34865 33.5826 1.36109 33.6136C1.46055 33.8934 1.61597 34.1483 1.78382 34.3969C2.23142 35.0497 2.78471 35.6154 3.36908 36.1501C3.55558 36.3241 3.74208 36.3303 3.94102 36.1687C4.17725 35.9698 4.41348 35.7646 4.63729 35.5532C5.1284 35.0932 5.59466 34.6083 5.93658 34.0177C6.14173 33.682 6.27228 33.3215 6.19768 32.9111Z" fill="white"/>
</g>
<defs>
<clipPath id="clip0">
<rect width="37.5737" height="56" fill="white"/>
</clipPath>
</defs>
</svg>
