<svg width="31" height="31" viewBox="0 0 31 31" fill="none" xmlns="http://www.w3.org/2000/svg">
<path fill-rule="evenodd" clip-rule="evenodd" d="M10.9195 14.4648C9.74671 14.4648 8.78906 15.4156 8.78906 16.5953C8.78906 16.6577 8.78906 16.7271 8.796 16.7896L12.5086 15.1866C12.127 14.7494 11.5579 14.4648 10.9195 14.4648Z" fill="#222222"/>
<path fill-rule="evenodd" clip-rule="evenodd" d="M16.117 4.021C9.43428 4.021 4.02148 9.43379 4.02148 16.1165C4.02148 22.7992 9.43428 28.219 16.117 28.219C22.7997 28.219 28.2195 22.7992 28.2195 16.1165C28.2195 9.43379 22.7997 4.021 16.117 4.021ZM21.3494 12.7994C23.112 12.7994 24.5832 14.0139 24.9857 15.6516L23.3341 15.7904C23.0287 14.9854 22.2584 14.4163 21.3494 14.4163C21.0996 14.4163 20.8567 14.458 20.6346 14.5413L19.9476 13.0701C20.3778 12.8966 20.8497 12.7994 21.3494 12.7994ZM8.87912 19.7042L9.7535 18.3719C10.6348 18.8993 11.5161 18.816 12.4044 18.1151L13.5147 19.2532C12.1893 20.5161 10.4266 20.6411 8.87912 19.7042ZM13.0359 16.3802L11.5022 17.0533L7.82432 18.6633C7.42877 18.0735 7.19977 17.3656 7.19977 16.6023C7.19977 14.5482 8.86524 12.8827 10.9193 12.8827C12.675 12.8827 14.1393 14.0971 14.5348 15.7279L13.0359 16.3802ZM17.0885 20.1067L15.7284 19.5307C15.2149 19.3156 15.0344 18.9964 15.0344 18.3302L15.0275 11.3005H16.3529V18.1428C16.3529 18.2053 16.3599 18.2678 16.4501 18.3025L17.609 18.7535L17.0885 20.1067ZM19.2398 19.6279C18.2544 18.9548 17.609 17.8236 17.609 16.5398C17.609 15.3532 18.1642 14.2914 19.0316 13.6044L19.8921 14.9993C19.4827 15.3879 19.2328 15.9292 19.2328 16.5398C19.2328 17.2199 19.552 17.8306 20.0517 18.2122L19.2398 19.6279ZM21.3494 20.2802C20.9399 20.2802 20.5513 20.2178 20.1835 20.0928L20.8289 18.5939C20.9955 18.6355 21.1689 18.6564 21.3424 18.6564C22.4805 18.6564 23.4104 17.7612 23.459 16.637L25.0759 16.6856C25.0065 18.6911 23.3618 20.2802 21.3494 20.2802Z" fill="#222222"/>
</svg>
