<svg width="58" height="26" viewBox="0 0 58 26" fill="none" xmlns="http://www.w3.org/2000/svg">
<path fill-rule="evenodd" clip-rule="evenodd" d="M17.5329 11C17.522 11.0116 17.511 11.0116 17.5 11.0231C17.522 11.0231 17.5329 11.0231 17.5329 11Z" fill="white"/>
<path fill-rule="evenodd" clip-rule="evenodd" d="M37.8252 14.7996C37.6431 16.3711 39.4648 16.1835 40.1138 15.5267C40.6034 15.0225 40.74 14.1194 40.8425 13.4158C39.3623 13.2164 37.9846 13.4979 37.8252 14.7996Z" fill="#222222"/>
<path fill-rule="evenodd" clip-rule="evenodd" d="M25.164 11.1175C24.1962 11.1526 23.5813 11.9267 23.4902 12.6303H26.4506C26.7238 11.4576 26.0634 11.0823 25.164 11.1175Z" fill="#222222"/>
<path fill-rule="evenodd" clip-rule="evenodd" d="M17.5128 11.7745C17.4217 12.2671 17.342 12.8065 17.2509 13.3812C17.1598 13.9441 16.9549 14.507 17.0118 15.0465C17.137 16.2896 18.7994 16.3013 19.4712 15.5625C20.0291 14.9527 20.4959 13.4515 20.3251 12.2436C20.1201 10.848 18.1732 10.9418 17.5128 11.7745Z" fill="#222222"/>
<path fill-rule="evenodd" clip-rule="evenodd" d="M15.9176 0C13.925 0 9.90577 0 9.90577 0C7.25285 0.129003 5.08952 1.23139 4.4519 3.50654C4.12171 4.69102 3.93954 5.99278 3.68905 7.22418C2.39105 13.4632 1.24107 19.8782 0 26H46.7962C50.417 26 52.8991 25.2143 53.5709 22.2589C53.8783 20.8868 54.1857 19.327 54.4817 17.8142C55.6431 11.9387 56.8159 6.05142 58 0H15.9176ZM14.574 8.09202C14.6765 7.95129 14.8245 7.86919 15.075 7.82228C15.3483 7.77537 15.5418 7.81055 15.6671 7.9161C16.0314 8.2562 15.7126 9.0654 15.4621 9.24132C15.3027 9.35859 14.7676 9.4876 14.5285 9.24132C14.2666 8.99504 14.4146 8.31484 14.574 8.09202ZM10.384 16.7352C10.6117 15.2576 10.9077 13.8502 11.1468 12.3843C9.97409 12.267 8.5053 12.3257 7.27562 12.3491C6.97958 13.7564 6.76325 15.2458 6.54692 16.7235H5.1009C5.65881 13.8385 6.12564 10.848 6.62662 7.90438H8.03848C7.79937 9.0654 7.62858 10.2851 7.38948 11.4344C8.65332 11.5399 9.98547 11.493 11.2949 11.4813C11.4998 10.2968 11.7048 9.12404 11.8869 7.9161H13.3557C12.775 10.7894 12.2968 13.7447 11.83 16.7352H10.384ZM13.0824 16.7352C13.481 14.7181 13.8567 12.6892 14.1413 10.5431C14.1413 10.4962 14.1413 10.461 14.1755 10.4493H15.4393C15.0067 12.4664 14.6537 14.5774 14.3577 16.7352H13.0824ZM19.766 16.5476C18.969 16.9932 17.0903 17.2043 16.8057 16.0668C16.5552 17.1574 16.4299 18.3771 16.2477 19.5381H14.9839C15.5532 16.5593 16.0883 13.5453 16.5324 10.4493H17.6141C17.6027 10.6486 17.5344 10.7894 17.523 10.9887C18.0923 10.5196 19.3903 10.0271 20.4492 10.4375C22.6694 11.3054 21.4056 15.6446 19.766 16.5476ZM27.4743 13.346C26.108 13.3108 24.6961 13.2991 23.3412 13.346C23.1249 14.2724 23.1362 15.3396 23.7852 15.7618C24.6392 16.3248 26.0852 15.8674 26.9278 15.5507C26.8708 15.8908 26.7911 16.2075 26.757 16.5828C24.7303 17.0871 22.2026 17.1691 21.9749 15.0699C21.8155 13.604 22.362 11.9973 23.0338 11.2585C23.5803 10.6604 24.3545 10.3906 25.2654 10.3203C26.3015 10.2382 27.3263 10.461 27.6109 11.3171C27.8045 11.9738 27.5654 12.6892 27.4743 13.346ZM29.7287 12.6892C29.3416 13.862 29.2619 15.5156 29.0797 16.7352H27.8159C28.203 14.6712 28.6015 12.6306 28.8748 10.4493H29.9906C29.9109 10.8011 29.8767 11.1764 29.7856 11.5047C30.1955 10.7659 31.0722 9.98015 32.1881 10.4493C32.1539 10.7776 32.0628 11.0356 32.04 11.3875C30.8673 10.9535 30.0475 11.751 29.7287 12.6892ZM35.7405 16.5476C34.0895 17.134 32.0628 17.0519 31.6074 15.5156C31.2203 14.2138 31.7668 12.1263 32.6093 11.2233C33.4633 10.2968 35.0801 10.1209 36.7766 10.4023C36.7311 10.7542 36.6627 11.0708 36.6286 11.4344C35.5925 11.0591 34.2945 10.9535 33.6341 11.6103C33.1559 12.0911 32.8484 13.1583 32.7801 14.0262C32.746 14.4132 32.7801 14.9292 32.894 15.2341C33.2925 16.3013 35.0118 16.0433 35.9113 15.5625C35.8543 15.9026 35.8202 16.2427 35.7405 16.5476ZM41.9572 13.8385C41.7978 14.8002 41.6498 15.668 41.6384 16.7352H40.5567C40.534 16.3599 40.5909 16.0668 40.6478 15.7736C40.1241 16.6297 38.6325 17.2512 37.3914 16.7118C36.7538 16.4303 36.4123 15.41 36.7197 14.3897C37.1637 12.8534 38.8716 12.4899 40.9666 12.7009C41.0577 12.4312 41.183 12.0794 41.1146 11.7393C40.8869 10.719 38.5756 11.3054 37.8355 11.493C37.9152 11.1529 38.0063 10.8245 38.0746 10.461C39.5662 10.4141 42.2305 9.82769 42.3216 11.493C42.3557 12.1967 42.0938 13.0176 41.9572 13.8385ZM44.2458 14.4718C44.1205 15.2927 43.9611 15.9026 43.9497 16.7352H42.6631C43.0844 14.7064 43.4488 12.6071 43.7448 10.4493H44.8606C44.7695 10.7542 44.7581 11.1529 44.6557 11.4461C45.02 10.8714 45.9423 9.90979 47.0581 10.4844C46.9784 10.7659 46.9442 11.0943 46.8873 11.3875C44.9175 10.8128 44.519 12.7244 44.2458 14.4718ZM51.6125 16.7352H50.4739C50.4853 16.3951 50.5422 16.1019 50.5877 15.797C50.565 15.7149 50.4397 15.9964 50.3486 16.1019C50.2348 16.2427 50.0754 16.442 49.9046 16.5593C49.062 17.134 47.3769 16.9698 46.7962 16.2896C46.4547 15.8908 46.3636 15.3396 46.3522 14.7767C46.318 11.88 48.2195 9.53451 51.3051 10.5431C51.4872 9.65178 51.6353 8.71358 51.7491 7.72846H53.013C52.512 10.6955 51.8288 13.475 51.6125 16.7352Z" fill="#222222"/>
<path fill-rule="evenodd" clip-rule="evenodd" d="M49.6442 11.1407C48.2892 11.2932 47.6175 13.0406 47.6516 14.6121C47.6744 15.5034 48.0957 16.0546 48.9382 16.0311C50.9194 15.9842 50.7714 13.1461 51.1926 11.3753C50.7372 11.2228 50.2818 11.0703 49.6442 11.1407Z" fill="#222222"/>
</svg>
