<svg width="93" height="29" viewBox="0 0 93 29" fill="none" xmlns="http://www.w3.org/2000/svg">
<path d="M40.8629 0.571426C41.2941 0.571426 41.6273 0.872066 41.6273 1.22281V27.7794C41.6273 28.1302 41.2745 28.4308 40.8629 28.4308H38.3347C37.9232 28.4308 37.5704 28.1302 37.5704 27.7794V1.22281C37.5704 0.855364 37.9232 0.571426 38.3347 0.571426H40.8629ZM46.8797 0.571426C45.5274 0.571426 44.4103 1.50675 44.4103 2.67591C44.4103 3.82837 45.5078 4.7804 46.8797 4.7804C48.2516 4.7804 49.3687 3.84507 49.3687 2.67591C49.3687 1.50675 48.2712 0.571426 46.8797 0.571426ZM80.4128 11.0938C80.4128 8.45489 83.4897 7.0018 86.4099 7.0018C89.7221 7.0018 92.2699 8.52171 92.2699 11.6617V27.6959C92.2699 28.0634 91.9171 28.3473 91.5055 28.3473H89.5065C89.0753 28.3473 88.7421 28.0466 88.7421 27.6959V26.9777C88.017 27.9965 86.5079 28.4308 85.1164 28.4308C81.9414 28.4308 80.06 27.0946 80.06 23.8377V21.7666C80.06 20.3302 80.4128 18.6099 81.7063 17.5743C82.941 16.5722 84.2149 16.2381 85.822 15.8039C87.8406 15.236 88.2326 14.3174 88.2326 13.3654V9.18979C88.2326 8.00393 87.4486 7.61978 86.3315 7.61978C85.2144 7.61978 84.2345 8.12085 84.2345 9.40693V13.6326C84.2345 13.9833 83.8817 14.284 83.4701 14.284H81.1967C80.7655 14.284 80.4324 13.9833 80.4324 13.6326V11.0938H80.4128ZM88.213 15.9876C87.6446 16.1713 87.0371 16.3718 86.4883 16.5388C84.8812 17.0232 84.1757 17.6745 84.1757 19.3949V25.7751C84.1757 27.0779 84.9596 27.6458 86.0767 27.6458C87.1938 27.6458 88.213 27.0111 88.213 25.725V15.9876ZM45.6254 7.0018C45.2138 7.0018 44.861 7.30244 44.861 7.65319V27.7627C44.861 28.1135 45.2138 28.4141 45.6254 28.4141H48.1536C48.5848 28.4141 48.9179 28.1135 48.9179 27.7627V7.66989C48.9179 7.31914 48.5652 7.0185 48.1536 7.0185H45.6254V7.0018ZM0 11.9624V27.7794C0 28.1302 0.352772 28.4308 0.764341 28.4308H3.29255C3.72372 28.4308 4.05689 28.1302 4.05689 27.7794V9.42362C4.05689 8.12085 4.76244 7.63648 5.85996 7.63648C6.97707 7.63648 7.78061 8.10415 7.78061 9.37352V27.7627C7.78061 28.1135 8.13339 28.4141 8.54496 28.4141H11.0732C11.5043 28.4141 11.8375 28.1135 11.8375 27.7627V9.40693C11.8375 8.12085 12.6998 7.63648 13.7974 7.63648C14.9145 7.63648 15.5612 8.13755 15.5612 9.42362V27.7627C15.5612 28.1135 15.914 28.4141 16.3256 28.4141H18.8538C19.285 28.4141 19.6181 28.1135 19.6181 27.7627V11.7118C19.6181 8.10415 17.6583 6.9851 14.2873 6.9851C12.739 6.9851 10.7988 7.51957 10.0148 8.70543C9.2701 7.48616 7.40824 6.9851 5.85996 6.9851C2.50861 6.9851 0 8.33798 0 11.9624ZM30.6717 9.42362C30.6717 8.12085 29.7702 7.63648 28.653 7.63648C27.5555 7.63648 26.654 8.13755 26.654 9.42362V19.779C27.1636 19.3448 27.7907 19.0775 28.3787 18.9105C30.3581 18.3092 30.6717 17.3572 30.6717 16.4052V9.42362ZM34.6306 24.5225C34.2386 27.1113 31.4948 28.4308 28.4375 28.4308C24.6745 28.4308 22.5971 26.794 22.5971 23.3366V12.2129C22.5971 8.77224 25.3997 7.0352 28.7314 7.0352C32.0828 7.0352 34.7286 8.28787 34.7286 11.7452V14.2172C34.7286 15.1692 34.5914 16.639 33.3371 17.7079C32.1024 18.7602 30.4365 19.2112 29.1038 19.5619C27.3791 20.0296 26.654 20.8981 26.654 21.8668V26.009C26.654 27.3118 27.5555 27.7961 28.653 27.7961C29.7702 27.7961 30.6717 27.295 30.6717 26.009V24.5893V21.4994C30.6717 21.1486 31.0245 20.848 31.436 20.848H33.9055C34.317 20.848 34.6698 21.1486 34.6698 21.4994V24.0882C34.6698 24.2218 34.6306 24.5225 34.6306 24.5225ZM63.9892 21.6998C63.9892 20.5306 63.754 19.0107 62.4801 18.1255C61.1474 17.1735 59.5011 16.5555 58.2468 16.0377C56.3654 15.2694 55.8754 14.618 55.8754 13.4155V9.44033C55.8754 8.07074 56.7769 7.63648 57.8744 7.63648C58.9916 7.63648 59.8931 8.13755 59.8931 9.42362V13.5324C59.8931 13.8998 60.2459 14.1838 60.6574 14.1838H63.0289C63.46 14.1838 63.7932 13.8831 63.7932 13.5324C63.7932 13.5324 63.7932 11.0772 63.7932 11.0604C63.7932 8.37138 61.0886 7.0185 58.1488 7.0185C54.5035 7.0185 51.7989 8.87245 51.7989 11.929V13.4656C51.7989 14.4009 51.9165 15.7872 53.112 16.806C54.3467 17.8416 56.1106 18.5264 57.4237 19.0775C59.0504 19.7456 59.8735 20.397 59.8735 21.5161V26.009C59.8735 27.4287 58.972 27.7961 57.8549 27.7961C56.7573 27.7961 55.8558 27.295 55.8558 26.009V21.4994C55.8558 21.1486 55.503 20.848 55.0915 20.848H52.6416C52.2105 20.848 51.8773 21.1486 51.8773 21.4994V24.0381C51.8773 24.1884 51.8773 24.4891 51.9165 24.6895C52.3477 27.295 54.4643 28.4308 57.6197 28.4308C61.657 28.4308 63.9892 26.4098 63.9892 23.2531V21.6998ZM78.0609 21.6998C78.0609 20.5306 77.8257 19.0107 76.5518 18.1255C75.2191 17.1735 73.5729 16.5555 72.3186 16.0377C70.4371 15.2694 69.9472 14.618 69.9472 13.4155V9.44033C69.9472 8.07074 70.8487 7.63648 71.9462 7.63648C73.0633 7.63648 73.9648 8.13755 73.9648 9.42362V13.5324C73.9648 13.8998 74.3176 14.1838 74.7292 14.1838H77.1006C77.5318 14.1838 77.8649 13.8831 77.8649 13.5324C77.8649 13.5324 77.8649 11.0772 77.8649 11.0604C77.8649 8.37138 75.1604 7.0185 72.2206 7.0185C68.5752 7.0185 65.8707 8.87245 65.8707 11.929V13.4656C65.8707 14.4009 65.9882 15.7872 67.1837 16.806C68.4185 17.8416 70.1823 18.5264 71.4954 19.0775C73.1221 19.7456 73.9452 20.397 73.9452 21.5161V26.009C73.9452 27.4287 73.0437 27.7961 71.9266 27.7961C70.8291 27.7961 69.9275 27.295 69.9275 26.009V21.4994C69.9275 21.1486 69.5748 20.848 69.1632 20.848H66.7134C66.2822 20.848 65.949 21.1486 65.949 21.4994V24.0381C65.949 24.1884 65.949 24.4891 65.9882 24.6895C66.4194 27.295 68.536 28.4308 71.6914 28.4308C75.7287 28.4308 78.0609 26.4098 78.0609 23.2531V21.6998Z" fill="#333333"/>
</svg>
