<svg width="51" height="20" viewBox="0 0 51 20" fill="none" xmlns="http://www.w3.org/2000/svg">
<g clip-path="url(#clip0_2_659)">
<path fill-rule="evenodd" clip-rule="evenodd" d="M21.2708 17.8432C21.4434 17.8432 21.5834 17.7033 21.5834 17.5307V7.38178C21.5834 5.68722 22.957 4.31349 24.6516 4.31324C24.6518 4.31324 24.6519 4.31324 24.6521 4.31324L27.6479 4.31766C29.3375 4.32103 30.7054 5.69169 30.7054 7.38131V9.54159C30.7054 11.2363 29.3315 12.6103 27.6368 12.6103H23.4025C23.2299 12.6103 23.09 12.7502 23.09 12.9228C23.09 13.0954 23.2299 13.2353 23.4025 13.2353H27.6368C29.6767 13.2353 31.3305 11.5815 31.3305 9.54159V7.38131C31.3305 5.34697 29.6835 3.69667 27.6491 3.6926H27.649L24.6525 3.68818H24.6521C22.6121 3.68818 20.9583 5.34183 20.9583 7.38178V17.5307C20.9583 17.7033 21.0982 17.8432 21.2708 17.8432Z" fill="#222222"/>
<path fill-rule="evenodd" clip-rule="evenodd" d="M34.5434 13.2807C34.716 13.2807 34.8559 13.1408 34.8559 12.9682V5.38689C34.8559 4.44794 34.0949 3.68674 33.1559 3.68674H31.856C31.6834 3.68674 31.5435 3.82667 31.5435 3.99927C31.5435 4.17187 31.6834 4.3118 31.856 4.3118H33.1559C33.7496 4.3118 34.2309 4.79311 34.2309 5.38689V12.9682C34.2309 13.1408 34.3708 13.2807 34.5434 13.2807Z" fill="#222222"/>
<path d="M34.2639 2.82474L33.6745 2.23521C33.5282 2.08901 33.5282 1.85183 33.6745 1.70555L34.2636 1.11648C34.41 0.969971 34.6475 0.969971 34.794 1.11648L35.3831 1.70555C35.5294 1.85183 35.5294 2.08901 35.3831 2.23521L34.7937 2.82474C34.6474 2.97102 34.4102 2.97102 34.2639 2.82474Z" fill="#222222"/>
<path fill-rule="evenodd" clip-rule="evenodd" d="M44.3024 7.51893C44.0338 7.78752 43.5985 7.78752 43.33 7.51893L40.3149 4.50386C40.3149 4.50386 40.3149 4.50387 40.3149 4.50386C39.7874 3.97631 39.0719 3.67999 38.3259 3.67999H37.0368C36.8642 3.67999 36.7243 3.81991 36.7243 3.99251C36.7243 4.16512 36.8642 4.30504 37.0368 4.30504H38.3259C38.9061 4.30504 39.4626 4.53552 39.8728 4.94581L42.888 7.96086C42.888 7.96087 42.888 7.96086 42.888 7.96086C43.4006 8.47358 44.2317 8.4736 44.7444 7.96089C44.7444 7.96088 44.7444 7.9609 44.7444 7.96089L47.7485 4.95684C48.1587 4.54662 48.7152 4.31613 49.2955 4.31613H50.3435C50.5161 4.31613 50.656 4.17621 50.656 4.00361C50.656 3.831 50.5161 3.69108 50.3435 3.69108H49.2955C48.5495 3.69108 47.834 3.98738 47.3065 4.51485L44.3024 7.51893Z" fill="#222222"/>
<path fill-rule="evenodd" clip-rule="evenodd" d="M36.7243 12.9018C36.7243 13.0744 36.8642 13.2143 37.0368 13.2143H38.3259C39.0719 13.2143 39.7874 12.918 40.3148 12.3905C40.3149 12.3905 40.3148 12.3905 40.3148 12.3905L43.33 9.37532C43.5985 9.10678 44.0338 9.10678 44.3024 9.37532L47.3065 12.3794C47.834 12.9069 48.5495 13.2032 49.2955 13.2032H50.3435C50.5161 13.2032 50.656 13.0633 50.656 12.8907C50.656 12.7181 50.5161 12.5782 50.3435 12.5782H49.2955C48.7152 12.5782 48.1587 12.3477 47.7485 11.9374L44.7444 8.93334C44.2317 8.4207 43.4006 8.4207 42.888 8.93334L39.8729 11.9485C39.4626 12.3588 38.9061 12.5893 38.3259 12.5893H37.0368C36.8642 12.5893 36.7243 12.7292 36.7243 12.9018Z" fill="#222222"/>
<path d="M13.586 14.828C12.939 14.828 12.3305 14.5761 11.8731 14.1188L9.39971 11.6455C9.22613 11.4714 8.92341 11.4719 8.74983 11.6455L6.26745 14.1279C5.80993 14.5851 5.20147 14.837 4.55446 14.837H4.06708L7.19957 17.9696C8.17791 18.9479 9.76408 18.9479 10.7424 17.9696L13.884 14.828H13.586Z" fill="#222222"/>
<path d="M4.55439 6.07936C5.20139 6.07936 5.80985 6.33136 6.2673 6.78865L8.74968 9.27142C8.92845 9.45019 9.22039 9.45097 9.39963 9.27119L11.8729 6.79765C12.3305 6.34035 12.9389 6.08844 13.5859 6.08844H13.8838L10.7423 2.94695C9.764 1.96862 8.17783 1.96862 7.19949 2.94695L4.06708 6.07936H4.55439Z" fill="#222222"/>
<path d="M16.4817 8.68687L14.5832 6.78843C14.5414 6.80519 14.4962 6.81566 14.4484 6.81566H13.5854C13.1391 6.81566 12.7023 6.9966 12.387 7.31212L9.9136 9.7855C9.68224 10.0169 9.37813 10.1328 9.07425 10.1328C8.77014 10.1328 8.46626 10.0169 8.23482 9.78573L5.75221 7.30312C5.43685 6.98761 5.00011 6.80666 4.55383 6.80666H3.4925C3.44728 6.80666 3.40493 6.79596 3.36499 6.78091L1.45904 8.68687C0.480696 9.66513 0.480696 11.2513 1.45904 12.2297L3.36491 14.1356C3.40486 14.1206 3.44728 14.1099 3.4925 14.1099H4.55383C5.00011 14.1099 5.43685 13.9289 5.75221 13.6134L8.23459 11.131C8.68327 10.6827 9.46538 10.6825 9.9136 11.1312L12.387 13.6043C12.7023 13.9199 13.1391 14.1009 13.5854 14.1009H14.4484C14.4963 14.1009 14.5414 14.1113 14.5833 14.128L16.4817 12.2297C17.46 11.2513 17.46 9.66513 16.4817 8.68687Z" fill="#222222"/>
<path d="M23.8473 16.6681C23.7072 16.6681 23.5441 16.7018 23.3828 16.7389V17.3575C23.4946 17.3983 23.6221 17.4178 23.7445 17.4178C24.0546 17.4178 24.2017 17.3133 24.2017 17.0402C24.2017 16.7832 24.0812 16.6681 23.8473 16.6681ZM23.2782 17.8166V16.5936H23.3633L23.3722 16.6469C23.5158 16.6131 23.7142 16.5689 23.856 16.5689C23.9713 16.5689 24.0812 16.5864 24.1733 16.6609C24.2797 16.7479 24.3134 16.8878 24.3134 17.0402C24.3134 17.1998 24.2602 17.3505 24.1149 17.4337C24.0138 17.4904 23.8773 17.5135 23.755 17.5135C23.6292 17.5135 23.5087 17.4938 23.3828 17.4568V17.8166H23.2782Z" fill="#222222"/>
<path d="M25.0932 16.6644C24.7829 16.6644 24.6447 16.762 24.6447 17.0349C24.6447 17.299 24.7812 17.4178 25.0932 17.4178C25.4015 17.4178 25.5398 17.322 25.5398 17.049C25.5398 16.785 25.4034 16.6644 25.0932 16.6644ZM25.4919 17.4178C25.3891 17.4921 25.2509 17.5134 25.0932 17.5134C24.9319 17.5134 24.7936 17.4903 24.6925 17.4178C24.5791 17.3381 24.533 17.2068 24.533 17.042C24.533 16.8789 24.5791 16.7461 24.6925 16.6644C24.7936 16.5918 24.9319 16.5688 25.0932 16.5688C25.2527 16.5688 25.3891 16.5918 25.4919 16.6644C25.6072 16.7461 25.6514 16.8789 25.6514 17.0402C25.6514 17.2051 25.6054 17.3381 25.4919 17.4178Z" fill="#222222"/>
<path d="M26.9585 17.4887L26.6128 16.7462H26.6057L26.2653 17.4887H26.1715L25.8029 16.5936H25.918L26.2246 17.345H26.2318L26.565 16.5936H26.6607L27.0027 17.345H27.0099L27.3095 16.5936H27.4211L27.0523 17.4887H26.9585Z" fill="#222222"/>
<path d="M28.0919 16.6627C27.8048 16.6627 27.7073 16.7902 27.6896 16.9747H28.4943C28.4855 16.7709 28.3809 16.6627 28.0919 16.6627ZM28.0885 17.5135C27.9164 17.5135 27.8048 17.4887 27.7162 17.4141C27.6115 17.3237 27.5762 17.1927 27.5762 17.0421C27.5762 16.8984 27.624 16.7461 27.7428 16.6592C27.842 16.5901 27.9644 16.5688 28.0919 16.5688C28.2072 16.5688 28.3401 16.5811 28.45 16.6557C28.5793 16.7424 28.6042 16.8949 28.6042 17.0685H27.6861C27.6896 17.2529 27.7499 17.4161 28.0972 17.4161C28.2621 17.4161 28.4163 17.3893 28.5599 17.3646V17.4585C28.411 17.4852 28.2461 17.5135 28.0885 17.5135Z" fill="#222222"/>
<path d="M28.9023 17.4887V16.5936H28.9874L28.9963 16.6469C29.1859 16.599 29.2746 16.5689 29.4412 16.5689H29.4536V16.6681H29.4288C29.2888 16.6681 29.2037 16.6874 29.007 16.7389V17.4887H28.9023Z" fill="#222222"/>
<path d="M30.0606 16.6627C29.7734 16.6627 29.676 16.7902 29.6582 16.9747H30.4629C30.4541 16.7709 30.3495 16.6627 30.0606 16.6627ZM30.0571 17.5135C29.8851 17.5135 29.7734 17.4887 29.6848 17.4141C29.5802 17.3237 29.5448 17.1927 29.5448 17.0421C29.5448 16.8984 29.5927 16.7461 29.7115 16.6592C29.8107 16.5901 29.933 16.5688 30.0606 16.5688C30.1758 16.5688 30.3088 16.5811 30.4186 16.6557C30.548 16.7424 30.5729 16.8949 30.5729 17.0685H29.6547C29.6582 17.2529 29.7185 17.4161 30.0659 17.4161C30.2307 17.4161 30.3849 17.3893 30.5286 17.3646V17.4585C30.3796 17.4852 30.2148 17.5135 30.0571 17.5135Z" fill="#222222"/>
<path d="M31.7189 16.7249C31.6073 16.684 31.4796 16.6644 31.3574 16.6644C31.0471 16.6644 30.9 16.7691 30.9 17.0421C30.9 17.3007 31.0205 17.4141 31.2545 17.4141C31.3945 17.4141 31.5576 17.3805 31.7189 17.345V16.7249ZM31.7384 17.4887L31.7295 17.4355C31.586 17.4691 31.3875 17.5135 31.2457 17.5135C31.1305 17.5135 31.0205 17.4976 30.9284 17.4213C30.8221 17.3343 30.7883 17.1945 30.7883 17.0421C30.7883 16.8826 30.8415 16.7318 30.9869 16.6502C31.0879 16.5918 31.2244 16.5688 31.3485 16.5688C31.4726 16.5688 31.593 16.5901 31.7189 16.6255V16.2161H31.8235V17.4887H31.7384Z" fill="#222222"/>
<path d="M33.3561 16.6681C33.216 16.6681 33.0529 16.7018 32.8917 16.7389V17.3557C33.0051 17.3983 33.1309 17.4178 33.2533 17.4178C33.5634 17.4178 33.7106 17.3132 33.7106 17.0402C33.7106 16.7832 33.59 16.6681 33.3561 16.6681ZM33.6237 17.4337C33.5226 17.4904 33.3862 17.5134 33.2639 17.5134C33.1309 17.5134 32.9981 17.4904 32.8633 17.446L32.858 17.4887H32.787V16.2161H32.8917V16.6431C33.0352 16.6114 33.2284 16.5688 33.3649 16.5688C33.4802 16.5688 33.59 16.5864 33.6822 16.6609C33.7886 16.7478 33.8222 16.8878 33.8222 17.0402C33.8222 17.1998 33.769 17.3505 33.6237 17.4337Z" fill="#222222"/>
<path d="M33.9615 17.8324V17.7351C34.013 17.7404 34.0609 17.744 34.0946 17.744C34.2239 17.744 34.3019 17.7066 34.3746 17.5595L34.4082 17.4887L33.9404 16.5936H34.0609L34.4615 17.3663H34.4686L34.8496 16.5936H34.9684L34.465 17.5986C34.3728 17.7812 34.2735 17.8413 34.0909 17.8413C34.0502 17.8413 34.0059 17.8378 33.9615 17.8324Z" fill="#222222"/>
<path d="M36.4112 16.9782H36.0638V17.292H36.4129C36.6522 17.292 36.7426 17.2652 36.7426 17.1342C36.7426 16.994 36.6186 16.9782 36.4112 16.9782ZM36.3474 16.4694H36.0638V16.7885H36.3492C36.585 16.7885 36.6788 16.7602 36.6788 16.6272C36.6788 16.4855 36.5601 16.4694 36.3474 16.4694ZM36.8863 17.4037C36.7586 17.4852 36.6044 17.4887 36.3225 17.4887H35.7926V16.2746H36.3102C36.553 16.2746 36.7018 16.2781 36.8259 16.3526C36.9146 16.4058 36.95 16.4873 36.95 16.5936C36.95 16.7212 36.8969 16.8062 36.7586 16.863V16.8699C36.9146 16.9056 37.0156 16.9854 37.0156 17.1573C37.0156 17.2741 36.9731 17.3505 36.8863 17.4037Z" fill="#222222"/>
<path d="M38.0753 17.1129C37.9707 17.104 37.8644 17.0987 37.7527 17.0987C37.5701 17.0987 37.5063 17.136 37.5063 17.2192C37.5063 17.2972 37.5595 17.3398 37.6994 17.3398C37.8165 17.3398 37.9566 17.3133 38.0753 17.2865V17.1129ZM38.1284 17.4887L38.1214 17.4354C37.969 17.4728 37.7917 17.5135 37.6357 17.5135C37.54 17.5135 37.4371 17.501 37.3645 17.4478C37.2972 17.4 37.2653 17.322 37.2653 17.2315C37.2653 17.1305 37.3096 17.0367 37.4159 16.9888C37.5099 16.9445 37.6357 16.941 37.7509 16.941C37.8449 16.941 37.9707 16.9463 38.0753 16.9534V16.9373C38.0753 16.7974 37.9831 16.7514 37.7314 16.7514C37.634 16.7514 37.5152 16.7565 37.4018 16.7672V16.5864C37.5276 16.5759 37.6693 16.5688 37.7864 16.5688C37.9424 16.5688 38.1037 16.5812 38.2029 16.652C38.3057 16.7248 38.3252 16.8259 38.3252 16.9587V17.4887H38.1284Z" fill="#222222"/>
<path d="M39.4932 17.4887V16.994C39.4932 16.8311 39.41 16.7727 39.261 16.7727C39.1511 16.7727 39.0129 16.8009 38.8959 16.8294V17.4887H38.646V16.5936H38.8498L38.8586 16.6502C39.0164 16.6097 39.1919 16.5689 39.3373 16.5689C39.4471 16.5689 39.5588 16.5847 39.6439 16.6609C39.7147 16.7248 39.7414 16.8133 39.7414 16.941V17.4887H39.4932Z" fill="#222222"/>
<path d="M40.4472 17.5135C40.332 17.5135 40.2061 17.4976 40.1139 17.4195C40.0041 17.3309 39.9722 17.191 39.9722 17.0401C39.9722 16.8984 40.0182 16.7441 40.1547 16.6574C40.2664 16.5846 40.4046 16.5688 40.5483 16.5688C40.6511 16.5688 40.7521 16.5759 40.8637 16.5864V16.7779C40.7733 16.7691 40.6652 16.762 40.5784 16.762C40.3408 16.762 40.2291 16.8364 40.2291 17.0421C40.2291 17.2353 40.3125 17.3185 40.5074 17.3185C40.6208 17.3185 40.7538 17.2972 40.8833 17.2725V17.4568C40.7432 17.4852 40.5908 17.5135 40.4472 17.5135Z" fill="#222222"/>
<path d="M41.6214 16.7565C41.3839 16.7565 41.2792 16.8311 41.2792 17.0349C41.2792 17.2388 41.3821 17.3257 41.6214 17.3257C41.8571 17.3257 41.9599 17.2529 41.9599 17.049C41.9599 16.8452 41.859 16.7565 41.6214 16.7565ZM42.0503 17.4196C41.9404 17.4939 41.7969 17.5135 41.6214 17.5135C41.4423 17.5135 41.2989 17.4921 41.1907 17.4196C41.0666 17.338 41.0223 17.2033 41.0223 17.0421C41.0223 16.8807 41.0666 16.7442 41.1907 16.6627C41.2989 16.5901 41.4423 16.5688 41.6214 16.5688C41.7987 16.5688 41.9404 16.5901 42.0503 16.6627C42.1744 16.7442 42.217 16.8807 42.217 17.0401C42.217 17.2015 42.1726 17.338 42.0503 17.4196Z" fill="#222222"/>
<path d="M43.6616 17.5135C43.5111 17.5135 43.348 17.4887 43.2256 17.3876C43.0803 17.267 43.036 17.081 43.036 16.8806C43.036 16.7017 43.0927 16.4891 43.2823 16.3649C43.4294 16.2693 43.612 16.2498 43.7963 16.2498C43.9311 16.2498 44.0693 16.2586 44.22 16.271V16.4891C44.0906 16.4783 43.9311 16.4694 43.807 16.4694C43.4613 16.4694 43.3142 16.6007 43.3142 16.8806C43.3142 17.1661 43.4507 17.2937 43.706 17.2937C43.8725 17.2937 44.0586 17.26 44.2466 17.221V17.4372C44.0586 17.4745 43.8619 17.5135 43.6616 17.5135Z" fill="#222222"/>
<path d="M44.9805 16.7283C44.7731 16.7283 44.6933 16.8029 44.6773 16.9393H45.28C45.2729 16.794 45.1878 16.7283 44.9805 16.7283ZM44.9433 17.5135C44.7961 17.5135 44.6632 17.4958 44.5639 17.4141C44.4577 17.3257 44.4203 17.1927 44.4203 17.0401C44.4203 16.9037 44.4647 16.7514 44.5888 16.6627C44.6986 16.5846 44.8387 16.5688 44.9805 16.5688C45.1081 16.5688 45.2588 16.5829 45.3686 16.6592C45.5123 16.7602 45.5247 16.9163 45.5264 17.1006H44.6756C44.681 17.2371 44.7536 17.3257 45.0052 17.3257C45.1613 17.3257 45.3349 17.3027 45.4821 17.2796V17.455C45.3101 17.4835 45.1223 17.5135 44.9433 17.5135Z" fill="#222222"/>
<path d="M46.637 17.4887V16.994C46.637 16.8311 46.5538 16.7727 46.4048 16.7727C46.2949 16.7727 46.1567 16.8009 46.0397 16.8294V17.4887H45.7898V16.5936H45.9936L46.0025 16.6502C46.1602 16.6097 46.3357 16.5689 46.4811 16.5689C46.5909 16.5689 46.7026 16.5847 46.7877 16.6609C46.8586 16.7248 46.8852 16.8133 46.8852 16.941V17.4887H46.637Z" fill="#222222"/>
<path d="M47.5967 17.5135C47.4762 17.5135 47.3662 17.4797 47.306 17.3858C47.2618 17.322 47.2404 17.2353 47.2404 17.1146V16.7796H47.0596V16.5936H47.2404L47.2671 16.3224H47.4886V16.5936H47.8413V16.7796H47.4886V17.0669C47.4886 17.136 47.4939 17.1945 47.5134 17.237C47.54 17.2972 47.5984 17.3203 47.6765 17.3203C47.7349 17.3203 47.8059 17.3113 47.8554 17.3027V17.4815C47.774 17.4976 47.68 17.5135 47.5967 17.5135Z" fill="#222222"/>
<path d="M48.0853 17.4887V16.5936H48.2891L48.298 16.6502C48.4629 16.6042 48.5851 16.5689 48.7411 16.5689C48.7482 16.5689 48.7589 16.5689 48.773 16.5705V16.7832C48.7446 16.7815 48.7109 16.7815 48.6862 16.7815C48.5638 16.7815 48.4717 16.7956 48.3352 16.8277V17.4887H48.0853Z" fill="#222222"/>
<path d="M49.6824 17.1129C49.5778 17.104 49.4715 17.0987 49.3598 17.0987C49.1773 17.0987 49.1134 17.136 49.1134 17.2192C49.1134 17.2972 49.1666 17.3398 49.3066 17.3398C49.4236 17.3398 49.5637 17.3133 49.6824 17.2865V17.1129ZM49.7355 17.4887L49.7285 17.4354C49.576 17.4728 49.3988 17.5135 49.2428 17.5135C49.1471 17.5135 49.0442 17.501 48.9716 17.4478C48.9043 17.4 48.8724 17.322 48.8724 17.2315C48.8724 17.1305 48.9167 17.0367 49.023 16.9888C49.1169 16.9445 49.2428 16.941 49.3581 16.941C49.4519 16.941 49.5778 16.9463 49.6824 16.9534V16.9373C49.6824 16.7974 49.5902 16.7514 49.3385 16.7514C49.241 16.7514 49.1223 16.7565 49.0088 16.7672V16.5864C49.1347 16.5759 49.2765 16.5688 49.3935 16.5688C49.5494 16.5688 49.7108 16.5812 49.81 16.652C49.9128 16.7248 49.9323 16.8259 49.9323 16.9587V17.4887H49.7355Z" fill="#222222"/>
<path d="M50.253 16.2161H50.5029V17.4887H50.253V16.2161Z" fill="#222222"/>
</g>
<defs>
<clipPath id="clip0_2_659">
<rect width="50.7692" height="20" fill="white"/>
</clipPath>
</defs>
</svg>
