<svg width="39" height="56" viewBox="0 0 39 56" fill="none" xmlns="http://www.w3.org/2000/svg">
<path d="M1.88919 53.9154H0.971415V55.9377H0.255859V51.271H2.04475C2.31697 51.271 2.55808 51.3332 2.77586 51.4499C2.99364 51.5666 3.14919 51.7299 3.26586 51.9399C3.38253 52.1499 3.43697 52.3677 3.43697 52.6166C3.43697 52.811 3.39808 52.9899 3.32808 53.1532C3.25808 53.3166 3.14919 53.4566 3.02475 53.581C2.9003 53.7054 2.74475 53.791 2.56586 53.8454L3.80253 55.9454H3.02475L1.88919 53.9154ZM0.971415 53.3088H1.98253C2.20808 53.3088 2.39475 53.2466 2.52697 53.1299C2.65919 53.0132 2.72919 52.8421 2.72919 52.6243C2.72919 52.4843 2.69808 52.3599 2.63586 52.251C2.57364 52.1421 2.48808 52.0566 2.37141 52.0021C2.25475 51.9477 2.1303 51.9088 1.98253 51.9088H0.971415V53.3088Z" fill="white"/>
<path d="M5.32685 51.9243V53.2854H7.04574V53.931H5.32685V55.2843H7.28685V55.9377H4.60352V51.271H7.27907V51.9243H5.32685Z" fill="white"/>
<path d="M8.98293 55.6812C8.6096 55.4712 8.32182 55.1834 8.10404 54.8179C7.88627 54.4523 7.78516 54.0479 7.78516 53.6045C7.78516 53.1612 7.89404 52.7568 8.10404 52.3912C8.31404 52.0257 8.6096 51.7379 8.98293 51.5279C9.35627 51.3179 9.76071 51.209 10.2118 51.209C10.5307 51.209 10.8496 51.2712 11.1607 51.4034C11.4718 51.5357 11.7363 51.7068 11.954 51.9245L11.4407 52.4145C11.2852 52.2512 11.0985 52.1268 10.8885 52.0334C10.6785 51.9401 10.4452 51.8934 10.2118 51.8934C9.89293 51.8934 9.60516 51.9712 9.34849 52.119C9.09182 52.2668 8.88182 52.4768 8.72627 52.7334C8.57071 52.9901 8.50071 53.2857 8.50071 53.5968C8.50071 53.9079 8.57849 54.2034 8.72627 54.4601C8.87405 54.7168 9.08405 54.9268 9.34849 55.0745C9.61293 55.2223 9.90071 55.3001 10.2118 55.3001C10.4452 55.3001 10.6707 55.2534 10.8885 55.1601C11.1063 55.0668 11.2852 54.9423 11.4407 54.779L11.954 55.269C11.7363 55.4868 11.4718 55.6657 11.1607 55.7901C10.8496 55.9145 10.5385 55.9845 10.2118 55.9845C9.76849 56.0001 9.35627 55.8912 8.98293 55.6812Z" fill="white"/>
<path d="M12.793 51.271H13.5085V55.9377H12.793V51.271Z" fill="white"/>
<path d="M15.6646 55.6812C15.2912 55.4712 15.0035 55.1834 14.7857 54.8179C14.5679 54.4523 14.4668 54.0479 14.4668 53.6045C14.4668 53.1612 14.5757 52.7568 14.7857 52.3912C14.9957 52.0257 15.2912 51.7379 15.6646 51.5279C16.0379 51.3179 16.4424 51.209 16.8935 51.209C17.2124 51.209 17.5312 51.2712 17.8424 51.4034C18.1535 51.5357 18.4179 51.7068 18.6357 51.9245L18.1224 52.4145C17.9668 52.2512 17.7801 52.1268 17.5701 52.0334C17.3601 51.9401 17.1268 51.8934 16.8935 51.8934C16.5746 51.8934 16.2868 51.9712 16.0301 52.119C15.7735 52.2668 15.5635 52.4768 15.4079 52.7334C15.2524 52.9901 15.1824 53.2857 15.1824 53.5968C15.1824 53.9079 15.2601 54.2034 15.4079 54.4601C15.5557 54.7168 15.7657 54.9268 16.0301 55.0745C16.2946 55.2223 16.5824 55.3001 16.8935 55.3001C17.1268 55.3001 17.3524 55.2534 17.5701 55.1601C17.7879 55.0668 17.9668 54.9423 18.1224 54.779L18.6357 55.269C18.4179 55.4868 18.1535 55.6657 17.8424 55.7901C17.5312 55.9145 17.2201 55.9845 16.8935 55.9845C16.4501 56.0001 16.0379 55.8912 15.6646 55.6812Z" fill="white"/>
<path d="M21.8468 55.2921V55.9455H19.4746V51.2788H20.1902V55.2921H21.8468Z" fill="white"/>
<path d="M25.5886 54.9267H23.3797L22.9908 55.9378H22.2441L24.0953 51.2712H24.8653L26.7164 55.9378H25.9775L25.5886 54.9267ZM25.3475 54.2967L24.4841 52.0334L23.6208 54.2967H25.3475ZM25.013 50.8201L25.8141 49.7778L26.1875 50.0578L25.4875 50.8201H25.013Z" fill="white"/>
<path d="M30.9084 51.271L29.0729 55.9377H28.4118L26.584 51.271H27.3229L28.7384 55.0199L30.154 51.271H30.9084Z" fill="white"/>
<path d="M32.4245 51.9243V53.2854H34.1434V53.931H32.4245V55.2843H34.3845V55.9377H31.709V51.271H34.3845V51.9243H32.4245Z" fill="white"/>
<path d="M37.7609 55.2921V55.9455H35.3887V51.2788H36.1042V55.2921H37.7609Z" fill="white"/>
<path d="M15.2289 8.22111L18.4022 2.86222L18.4178 2.81556C18.4178 2.81556 18.6744 2.39556 19.1955 2.39556C19.6778 2.39556 19.9422 2.76111 19.9811 2.83111L27.5411 15.6256C27.2378 15.6722 26.9266 15.7811 26.6466 15.9522C25.4178 16.6756 25.0055 18.2544 25.7289 19.4756C26.0633 20.0589 26.6 20.4478 27.1911 20.6344L27.2455 20.65C27.2844 20.6656 27.3311 20.6733 27.37 20.6811L32.7911 22.0889L34.2455 16.4889H34.2378C34.37 15.8822 34.2766 15.2289 33.9422 14.6533C33.2189 13.4244 31.64 13.0122 30.4111 13.7356C30.1 13.9144 29.8355 14.1633 29.6333 14.4356L22.0655 1.64889C21.7155 1.02667 20.7355 0 19.1955 0C17.6478 0 16.6678 1.02667 16.3178 1.65667L13.1211 7.06222L14.8166 6.62667L15.2289 8.22111Z" fill="white"/>
<path d="M14.6215 17.811C14.9638 17.2355 15.0571 16.5743 14.9249 15.9755L14.9093 15.921C14.9015 15.8821 14.886 15.8355 14.8782 15.7966L13.486 10.3677L7.88599 11.7988H7.89376C7.30265 11.9777 6.76599 12.3743 6.43154 12.9499C5.70821 14.171 6.11265 15.7499 7.33377 16.481C7.62154 16.6521 7.93265 16.761 8.24376 16.8077L0.442654 30.0143C0.287098 30.2632 -0.428457 31.601 0.380431 33.2499C1.06488 34.6499 2.54265 35.0232 3.31265 35.0232H10.3982L9.20043 33.8255L10.3982 32.6277H3.32043C3.26599 32.6199 2.71376 32.5888 2.51932 32.1921C2.27821 31.6943 2.44932 31.321 2.48821 31.2588L10.3127 18.021C10.5149 18.2932 10.7715 18.5343 11.0827 18.721C12.3193 19.4366 13.8982 19.0321 14.6215 17.811Z" fill="white"/>
<path d="M37.1538 29.9835L34.175 24.2124L33.8094 25.8302L32.3472 25.3946L35.3572 31.2202L35.3805 31.2513C35.4272 31.3446 35.575 31.718 35.3805 32.1146C35.155 32.5657 34.7194 32.6124 34.6494 32.6202H21.4816C21.5905 32.3168 21.6527 31.9824 21.6527 31.6324C21.6527 30.2091 20.6416 29.058 19.3972 29.058C18.8138 29.058 18.2772 29.3146 17.8805 29.7346V29.7268L17.8416 29.7657C17.8183 29.7968 17.7872 29.828 17.7638 29.8591L14.3027 33.818L17.8805 37.9091C18.2772 38.3291 18.8138 38.578 19.3972 38.578C20.6416 38.578 21.6527 37.4268 21.6527 36.0035C21.6527 35.6535 21.5905 35.3191 21.4816 35.0157H34.6494C35.2794 35.0157 36.5316 34.6502 37.2005 33.2813C37.8616 31.9435 37.4883 30.5902 37.1538 29.9835Z" fill="white"/>
</svg>
