<svg width="63" height="20" viewBox="0 0 63 20" fill="none" xmlns="http://www.w3.org/2000/svg">
<path d="M43.9602 19.0028C44.0683 19.1686 44.2524 19.2683 44.4507 19.2683H48.6504C48.8935 19.2683 49.1114 19.1179 49.1979 18.8906C49.7141 17.5289 50.0452 16.6613 50.1545 16.3811C50.4333 16.3811 51.7232 16.3827 53.1061 16.3848H53.1841C54.7735 16.3868 56.462 16.3889 56.866 16.3889C56.9853 16.8991 57.2808 18.2505 57.4028 18.8075C57.4615 19.0766 57.6995 19.268 57.9746 19.268H61.637C61.8144 19.268 61.9824 19.1876 62.0934 19.0492C62.2042 18.9109 62.2466 18.7297 62.2087 18.5568L58.2258 0.513487C58.1664 0.245212 57.929 0.0541992 57.6541 0.0541992H54.0764C52.6454 0.0541992 51.8244 0.531243 51.3314 1.64902L43.9151 18.4462C43.8351 18.6278 43.8523 18.8368 43.9602 19.0028ZM54.449 5.23727L54.8032 6.89804L56.0161 12.4464H51.6629L54.449 5.23727Z" fill="#666666"/>
<path d="M29.704 18.3848C31.086 18.8695 33.0158 19.1709 34.8658 19.1908C34.868 19.1908 34.8699 19.1908 34.8721 19.1908C40.1767 19.1896 43.6288 16.7035 43.6666 12.857C43.6869 10.742 42.3377 9.14248 39.437 7.83018C37.6613 6.9676 36.5736 6.39476 36.5839 5.51755C36.5839 4.72892 37.5786 3.93073 39.4897 3.93053C39.5358 3.92975 39.5904 3.92936 39.6438 3.92936C41.2309 3.92936 42.3518 4.28914 43.0567 4.55976C43.2206 4.62258 43.4036 4.60873 43.5564 4.52191C43.7089 4.43508 43.8141 4.28446 43.8438 4.1114L44.3175 1.32583C44.3663 1.03843 44.1963 0.759034 43.9187 0.67026C43.0477 0.391644 41.6394 0.0595703 39.8754 0.0595703C34.8756 0.0595703 31.3642 2.57491 31.3363 6.17409C31.3047 8.83928 33.8468 10.3262 35.7629 11.213C37.7283 12.1195 38.3885 12.6995 38.3795 13.5116C38.3657 14.7548 36.804 15.3208 35.3587 15.3208C33.3016 15.3208 32.193 15.0106 30.6247 14.3583C30.4605 14.2899 30.2735 14.3002 30.1174 14.3864C29.9616 14.4721 29.8533 14.6247 29.823 14.8003L29.321 17.7333C29.2726 18.0151 29.4346 18.2904 29.704 18.3848Z" fill="#666666"/>
<path d="M0.387172 1.13573C3.74012 2.34248 6.48277 4.25728 8.31875 6.67332C8.4323 6.82277 8.60653 6.90452 8.78506 6.90452C8.8672 6.90452 8.95012 6.88735 9.02836 6.85165C9.27732 6.7377 9.41429 6.46611 9.3577 6.19823L8.38196 1.58487C8.37982 1.57492 8.37748 1.56517 8.37494 1.55541C8.02413 0.237838 6.91338 0.0419493 6.10836 0.00936605C6.10075 0.00917094 6.09314 0.00897604 6.08553 0.00897604L0.586379 0C0.585989 0 0.585793 0 0.585403 0C0.301129 0 0.0580237 0.204278 0.00885624 0.48426C-0.0403113 0.764241 0.119287 1.03935 0.387172 1.13573Z" fill="#222222"/>
<path d="M20.6867 19.0519C20.7979 19.1837 20.9616 19.2596 21.1341 19.2596H25.1857C25.4709 19.2596 25.7148 19.054 25.7626 18.7727L28.8414 0.717844C28.8705 0.547904 28.8231 0.37367 28.7119 0.241971C28.6007 0.110273 28.4372 0.0341797 28.2647 0.0341797H24.2101C23.9247 0.0341797 23.681 0.24002 23.6332 0.521172L20.5571 18.576C20.5282 18.7461 20.5756 18.9205 20.6867 19.0519Z" fill="#666666"/>
<path d="M4.49864 4.19178C4.29748 4.03725 4.02023 4.02984 3.81147 4.17285C3.60251 4.31587 3.50905 4.57712 3.58026 4.82022L7.67911 18.8246C7.75209 19.0741 7.98095 19.2456 8.24083 19.2456C8.24103 19.2456 8.24142 19.2456 8.24142 19.2456L12.9617 19.2388C13.1952 19.2388 13.4063 19.0993 13.4986 18.8849L21.2466 0.866336C21.3243 0.68547 21.3061 0.477482 21.1976 0.3132C21.0894 0.148723 20.9058 0.0498047 20.7089 0.0498047H20.7085L16.4463 0.0519512C16.2058 0.0519512 15.9894 0.199647 15.9016 0.423827L10.9152 13.1621L10.3788 11.2208C10.3718 11.195 10.3628 11.1697 10.3521 11.1451C9.56504 9.31827 7.44986 6.45972 4.49864 4.19178Z" fill="#666666"/>
</svg>
