<svg width="54" height="56" viewBox="0 0 54 56" fill="none" xmlns="http://www.w3.org/2000/svg">
<g clip-path="url(#clip0)">
<path d="M2.63173 55.8267C2.37858 55.7134 2.1654 55.5602 1.99219 55.367L2.37858 54.9273C2.51182 55.0939 2.66504 55.2271 2.84491 55.3204C3.02478 55.4137 3.21132 55.467 3.40451 55.467C3.53775 55.467 3.651 55.447 3.75093 55.4003C3.85086 55.3537 3.93747 55.2871 3.99742 55.2005C4.05738 55.1139 4.08403 55.0139 4.08403 54.9007C4.08403 54.7741 4.05072 54.6675 3.97744 54.5809C3.90416 54.4943 3.81755 54.421 3.71096 54.3611C3.60437 54.3011 3.45115 54.2345 3.24463 54.1479C3.01146 54.048 2.82493 53.9547 2.67836 53.8681C2.5318 53.7815 2.41189 53.6682 2.31862 53.5217C2.22535 53.3751 2.17206 53.1952 2.17206 52.9821C2.17206 52.7622 2.22535 52.5757 2.32528 52.4091C2.42521 52.2426 2.57177 52.1227 2.74498 52.0361C2.91819 51.9495 3.11805 51.9028 3.33789 51.9028C3.57772 51.9028 3.80423 51.9495 4.01741 52.0427C4.23059 52.136 4.41046 52.2692 4.57701 52.4358L4.23059 52.8555C4.08403 52.7089 3.93747 52.6023 3.7909 52.5357C3.64434 52.4691 3.49778 52.4291 3.33789 52.4291C3.2313 52.4291 3.13804 52.4491 3.05143 52.4891C2.96483 52.529 2.89821 52.5823 2.84491 52.6556C2.79162 52.7289 2.76497 52.8155 2.76497 52.9221C2.76497 53.042 2.79828 53.1419 2.8649 53.2219C2.93152 53.3018 3.01812 53.3684 3.11805 53.4284C3.21798 53.4884 3.36454 53.5483 3.55774 53.6283L3.61103 53.6549C3.83087 53.7482 4.01741 53.8414 4.16397 53.9347C4.31053 54.028 4.43711 54.1479 4.53704 54.3011C4.63697 54.4543 4.6836 54.6475 4.6836 54.874C4.6836 55.1139 4.6303 55.3204 4.51705 55.4869C4.4038 55.6535 4.25058 55.7867 4.05738 55.8733C3.86418 55.9599 3.651 56.0066 3.41784 56.0066C3.15136 55.9999 2.88488 55.9399 2.63173 55.8267Z" fill="white"/>
<path d="M6.24273 55.7269C5.92296 55.547 5.66981 55.2939 5.48993 54.9808C5.31006 54.6677 5.2168 54.3212 5.2168 53.9415C5.2168 53.5618 5.31006 53.2154 5.48993 52.9023C5.66981 52.5892 5.92296 52.3427 6.24273 52.1628C6.5625 51.9829 6.90892 51.8896 7.29531 51.8896C7.6817 51.8896 8.02812 51.9829 8.34789 52.1628C8.66766 52.3427 8.91416 52.5892 9.10069 52.9023C9.28722 53.2154 9.37383 53.5618 9.37383 53.9415C9.37383 54.3212 9.28056 54.6677 9.10069 54.9808C8.92082 55.2939 8.66766 55.5404 8.34789 55.7202C8.02812 55.9001 7.6817 55.9934 7.29531 55.9934C6.90892 55.9934 6.5625 55.9068 6.24273 55.7269ZM8.03478 55.2206C8.26129 55.094 8.4345 54.9142 8.56774 54.6943C8.70097 54.4745 8.76093 54.2213 8.76093 53.9548C8.76093 53.6884 8.69431 53.4352 8.56774 53.2154C8.44116 52.9955 8.26129 52.8157 8.03478 52.6891C7.80828 52.5625 7.56179 52.4959 7.29531 52.4959C7.02884 52.4959 6.78235 52.5625 6.55584 52.6891C6.32934 52.8157 6.15613 52.9955 6.02289 53.222C5.88965 53.4485 5.82969 53.695 5.82969 53.9615C5.82969 54.228 5.89631 54.4745 6.02289 54.701C6.14946 54.9275 6.32934 55.1007 6.55584 55.2339C6.78235 55.3672 7.02884 55.4271 7.29531 55.4271C7.56179 55.4271 7.80828 55.3472 8.03478 55.2206Z" fill="white"/>
<path d="M14.3304 51.9495V55.9467H13.7175V52.8955L12.4118 55.94H12.112L10.8129 52.8889V55.94H10.1934V51.9429H10.9728L12.2586 54.9274L13.551 51.9429H14.3304V51.9495Z" fill="white"/>
<path d="M16.1763 55.7271C15.8566 55.5472 15.6101 55.3007 15.4235 54.9876C15.237 54.6745 15.1504 54.3281 15.1504 53.9484C15.1504 53.5686 15.2437 53.2222 15.4235 52.9091C15.6034 52.596 15.8566 52.3495 16.1763 52.1696C16.4961 51.9897 16.8425 51.8965 17.2289 51.8965C17.6153 51.8965 17.9617 51.9897 18.2815 52.1696C18.6013 52.3495 18.8477 52.596 19.0343 52.9091C19.2208 53.2222 19.3074 53.5686 19.3074 53.9484C19.3074 54.3281 19.2142 54.6745 19.0343 54.9876C18.8544 55.3007 18.6013 55.5472 18.2815 55.7271C17.9617 55.9069 17.6153 56.0002 17.2289 56.0002C16.8425 56.0002 16.4961 55.9069 16.1763 55.7271ZM17.9684 55.2208C18.1949 55.0942 18.3681 54.9143 18.5013 54.6945C18.6346 54.4746 18.6945 54.2215 18.6945 53.955C18.6945 53.6885 18.6279 53.4354 18.5013 53.2155C18.3748 52.9957 18.1949 52.8158 17.9684 52.6892C17.7419 52.5627 17.4954 52.4961 17.2289 52.4961C16.9624 52.4961 16.7159 52.5627 16.4894 52.6892C16.2629 52.8158 16.0897 52.9957 15.9565 53.2222C15.8232 53.4487 15.7633 53.6952 15.7633 53.9617C15.7633 54.2281 15.8299 54.4746 15.9565 54.7011C16.0831 54.9276 16.2629 55.1009 16.4894 55.2341C16.7159 55.3673 16.9624 55.4273 17.2289 55.4273C17.4954 55.4273 17.7419 55.3473 17.9684 55.2208Z" fill="white"/>
<path d="M20.2665 55.8269C20.0133 55.7136 19.8002 55.5604 19.627 55.3672L20.0133 54.9275C20.1466 55.0941 20.2998 55.2273 20.4797 55.3206C20.6596 55.4138 20.8461 55.4671 21.0393 55.4671C21.1725 55.4671 21.2858 55.4471 21.3857 55.4005C21.4856 55.3539 21.5656 55.2873 21.6255 55.2073C21.6855 55.1274 21.7121 55.0208 21.7121 54.9075C21.7121 54.781 21.6788 54.6744 21.6055 54.5878C21.5323 54.5012 21.4457 54.4279 21.3391 54.3679C21.2325 54.308 21.0793 54.2413 20.8727 54.1547C20.6396 54.0548 20.453 53.9615 20.3065 53.8749C20.1599 53.7883 20.04 53.6751 19.9467 53.5285C19.8535 53.382 19.8002 53.2021 19.8002 52.9889C19.8002 52.7691 19.8535 52.5825 19.9534 52.416C20.0533 52.2494 20.1999 52.1295 20.3731 52.0429C20.5463 51.9563 20.7462 51.9097 20.966 51.9097C21.2058 51.9097 21.4323 51.9563 21.6455 52.0496C21.8587 52.1428 22.0386 52.2761 22.2051 52.4426L21.8587 52.8623C21.7121 52.7158 21.5656 52.6092 21.419 52.5426C21.2724 52.4759 21.1192 52.4426 20.9593 52.4426C20.8527 52.4426 20.7595 52.4626 20.6729 52.5026C20.5863 52.5425 20.5196 52.5958 20.4664 52.6691C20.4131 52.7424 20.3864 52.829 20.3864 52.9356C20.3864 53.0555 20.4197 53.1554 20.4863 53.2354C20.553 53.3153 20.6396 53.382 20.7395 53.4419C20.8394 53.5019 20.986 53.5618 21.1792 53.6418L21.2325 53.6684C21.4523 53.7617 21.6389 53.8549 21.7854 53.9482C21.932 54.0415 22.0586 54.1614 22.1585 54.3146C22.2584 54.4678 22.305 54.661 22.305 54.8875C22.305 55.1274 22.2517 55.3339 22.1385 55.5004C22.0252 55.667 21.872 55.8002 21.6788 55.8868C21.4856 55.9734 21.2724 56.0201 21.0393 56.0201C20.7861 56.0001 20.5197 55.9401 20.2665 55.8269Z" fill="white"/>
<path d="M27.9403 51.9497L26.3681 55.9469H25.8019L24.2363 51.9497H24.8692L26.0817 55.1607L27.2941 51.9497H27.9403Z" fill="white"/>
<path d="M29.232 52.5025V53.6683H30.7043V54.2212H29.232V55.3804H30.9108V55.94H28.6191V51.9429H30.9108V52.5025H29.232Z" fill="white"/>
<path d="M35.5008 53.9417C35.5008 54.3214 35.4075 54.6678 35.2276 54.9809C35.0478 55.2941 34.7946 55.5405 34.4748 55.7271C34.1551 55.9136 33.8087 56.0002 33.4223 56.0002C33.0359 56.0002 32.6895 55.9069 32.3697 55.7271C32.0499 55.5472 31.8034 55.3007 31.6169 54.9876C31.4304 54.6745 31.3438 54.3281 31.3438 53.9484C31.3438 53.5686 31.437 53.2222 31.6169 52.9091C31.7968 52.596 32.0499 52.3495 32.3697 52.1696C32.6895 51.9897 33.0359 51.8965 33.4223 51.8965C33.782 51.8965 34.1218 51.9764 34.4282 52.143C34.7347 52.3095 34.9812 52.5294 35.1677 52.8158L34.6347 53.1156C34.5015 52.9224 34.3283 52.7692 34.1151 52.6559C33.9019 52.5427 33.6688 52.4894 33.4223 52.4894C33.1558 52.4894 32.9093 52.556 32.6828 52.6826C32.4563 52.8092 32.2831 52.989 32.1498 53.2155C32.0166 53.442 31.9566 53.6885 31.9566 53.9617C31.9566 54.2281 32.0166 54.4746 32.1498 54.6945C32.2831 54.9143 32.4496 55.0942 32.6761 55.2208C32.9026 55.3473 33.1491 55.414 33.4289 55.414C33.6621 55.414 33.8819 55.3673 34.0818 55.2741C34.2817 55.1808 34.4415 55.0542 34.5748 54.8877C34.708 54.7211 34.8013 54.5279 34.8479 54.3148H33.7687V53.7818H35.4941C35.5008 53.8284 35.5008 53.8817 35.5008 53.9417Z" fill="white"/>
<path d="M38.4986 55.0808H36.6066L36.2735 55.9469H35.6406L37.2262 51.9497H37.8857L39.4712 55.9469H38.8383L38.4986 55.0808ZM38.2921 54.5412L37.5526 52.6026L36.8131 54.5412H38.2921Z" fill="white"/>
<path d="M43.7698 51.9497V55.9469H43.2501L40.7453 52.9024V55.9469H40.1523V51.9497H40.6653L43.1702 54.9809V51.9497H43.7698Z" fill="white"/>
<path d="M45.6138 55.7271C45.2941 55.5472 45.0476 55.3007 44.861 54.9876C44.6745 54.6745 44.5879 54.3281 44.5879 53.9484C44.5879 53.5686 44.6812 53.2222 44.861 52.9091C45.0409 52.596 45.2941 52.3495 45.6138 52.1696C45.9336 51.9897 46.28 51.8965 46.6664 51.8965C47.0528 51.8965 47.3992 51.9897 47.719 52.1696C48.0388 52.3495 48.2852 52.596 48.4718 52.9091C48.6583 53.2222 48.7449 53.5686 48.7449 53.9484C48.7449 54.3281 48.6517 54.6745 48.4718 54.9876C48.2919 55.3007 48.0388 55.5472 47.719 55.7271C47.3992 55.9069 47.0528 56.0002 46.6664 56.0002C46.28 56.0002 45.9269 55.9069 45.6138 55.7271ZM47.4059 55.2208C47.6324 55.0942 47.8056 54.9143 47.9388 54.6945C48.0721 54.4746 48.132 54.2215 48.132 53.955C48.132 53.6885 48.0654 53.4354 47.9388 53.2155C47.8123 52.9957 47.6324 52.8158 47.4059 52.6892C47.1794 52.5627 46.9329 52.4961 46.6664 52.4961C46.3999 52.4961 46.1534 52.5627 45.9269 52.6892C45.7004 52.8158 45.5272 52.9957 45.394 53.2222C45.2607 53.4487 45.2008 53.6952 45.2008 53.9617C45.2008 54.2281 45.2674 54.4746 45.394 54.7011C45.5206 54.9276 45.7004 55.1009 45.9269 55.2341C46.1534 55.3673 46.3999 55.4273 46.6664 55.4273C46.9329 55.4273 47.1794 55.3473 47.4059 55.2208Z" fill="white"/>
<path d="M49.704 55.8269C49.4508 55.7136 49.2377 55.5604 49.0645 55.3672L49.4508 54.9275C49.5841 55.0941 49.7373 55.2273 49.9172 55.3206C50.097 55.4138 50.2836 55.4671 50.4768 55.4671C50.61 55.4671 50.7233 55.4471 50.8232 55.4005C50.9231 55.3539 51.0031 55.2873 51.063 55.2073C51.123 55.1274 51.1496 55.0208 51.1496 54.9075C51.1496 54.781 51.1163 54.6744 51.043 54.5878C50.9698 54.5012 50.8832 54.4279 50.7766 54.3679C50.67 54.308 50.5167 54.2413 50.3102 54.1547C50.0771 54.0548 49.8905 53.9615 49.744 53.8749C49.5974 53.7883 49.4775 53.6751 49.3842 53.5285C49.291 53.382 49.2377 53.2021 49.2377 52.9889C49.2377 52.7691 49.291 52.5825 49.3909 52.416C49.4908 52.2494 49.6374 52.1295 49.8106 52.0429C49.9838 51.9563 50.1837 51.9097 50.4035 51.9097C50.6433 51.9097 50.8698 51.9563 51.083 52.0496C51.2962 52.1428 51.4761 52.2761 51.6426 52.4426L51.2962 52.8623C51.1496 52.7158 51.0031 52.6092 50.8565 52.5426C50.7099 52.4759 50.5567 52.4426 50.3968 52.4426C50.2902 52.4426 50.197 52.4626 50.1104 52.5026C50.0238 52.5425 49.9572 52.5958 49.9039 52.6691C49.8506 52.7424 49.8239 52.829 49.8239 52.9356C49.8239 53.0555 49.8572 53.1554 49.9238 53.2354C49.9905 53.3153 50.0771 53.382 50.177 53.4419C50.2769 53.5019 50.4235 53.5618 50.6167 53.6418L50.67 53.6684C50.8898 53.7617 51.0763 53.8549 51.2229 53.9482C51.3695 54.0415 51.496 54.1614 51.596 54.3146C51.6959 54.4678 51.7425 54.661 51.7425 54.8875C51.7425 55.1274 51.6892 55.3339 51.576 55.5004C51.4627 55.667 51.3095 55.8002 51.1163 55.8868C50.9231 55.9734 50.7099 56.0201 50.4768 56.0201C50.2236 56.0001 49.9571 55.9401 49.704 55.8269Z" fill="white"/>
<path fill-rule="evenodd" clip-rule="evenodd" d="M52.3093 29.6454L52.296 29.3989C52.2894 29.1991 52.2094 29.1657 52.1295 29.1391C52.2161 29.0791 52.3227 29.0125 52.3227 28.806C52.3227 28.5062 52.0962 28.4263 51.8697 28.4263H51.7631H51.2168V29.8186H51.4033V29.219H51.7631H51.863C52.0828 29.219 52.1162 29.3523 52.1162 29.4655C52.1162 29.5122 52.1162 29.732 52.1428 29.812H52.376V29.7853C52.316 29.752 52.3093 29.7253 52.3093 29.6454ZM51.843 29.0592H51.7631H51.4033V28.5862H51.7631H51.8697C51.9696 28.5862 52.1228 28.5995 52.1228 28.8127C52.1295 29.0192 51.9763 29.0592 51.843 29.0592Z" fill="white"/>
<path d="M50.5703 29.1659C50.5703 28.4931 51.0899 27.9468 51.7361 27.9468C52.3824 27.9468 52.9086 28.4864 52.9086 29.1659C52.9086 29.8321 52.3824 30.3717 51.7361 30.3717C51.0899 30.3717 50.5703 29.8321 50.5703 29.1659Z" stroke="white" stroke-width="1.354" stroke-miterlimit="10"/>
<path fill-rule="evenodd" clip-rule="evenodd" d="M38.1051 33.9556C38.8579 33.6159 39.7839 33.2828 40.4767 32.6899C41.6492 31.7972 40.4035 30.0318 39.1977 30.7579C38.0252 31.4175 39.3309 32.3501 39.0578 32.8364C38.9911 32.9031 38.9578 33.1429 38.8179 33.2162C38.5848 33.3894 38.1984 33.456 38.0318 33.456C36.9593 33.4227 36.4396 31.2442 38.205 30.2117C38.9312 29.792 40.2436 29.6587 41.2762 29.8985C42.1422 30.1051 42.7951 30.658 43.0416 31.3842C43.1149 31.5574 43.0749 31.9371 43.0416 32.2435C43.0416 33.1096 42.935 34.2488 42.9017 35.2147C42.875 36.4872 43.0815 37.3199 44.4606 36.767C44.4606 36.7337 44.5938 36.5271 44.5938 36.3206C44.7004 35.1814 44.7737 32.1836 44.7004 31.9438C44.5672 31.6306 43.5612 31.5973 43.7344 30.9045C43.8677 30.4581 44.3873 30.1783 45.1867 29.9052C45.4665 29.772 45.8396 29.5655 46.2859 29.6254C46.4258 29.6254 46.6723 29.6587 46.7722 29.792C46.9121 30.0051 46.9121 30.3449 46.9121 30.5914C47.4318 30.2783 47.565 29.8652 48.2179 29.6987C48.6309 29.5655 49.2904 29.6654 49.8367 29.9052C50.2564 30.1117 50.5962 30.5248 50.7694 30.8379C50.876 31.1177 50.9093 31.7039 50.9093 32.1569C50.9426 33.1229 50.876 34.1555 50.836 35.328C50.836 35.8143 50.7361 36.234 50.836 36.6071C50.9426 37.0201 51.6687 36.8869 51.802 37.26C51.8753 37.4665 51.8753 37.9195 51.8753 37.9195H48.1446C48.1446 37.9195 48.1179 37.4998 48.1446 37.3266C48.2179 37.0867 48.5643 37.0135 48.7708 36.8403C48.8041 36.8069 48.8441 36.667 48.8441 36.6004V36.3939C48.8441 36.1874 48.8108 36.0475 48.8441 35.7743C48.8707 34.9749 48.8707 34.7751 48.9107 33.6958C48.984 32.6299 48.944 31.8705 48.531 31.5574C48.3578 31.3841 48.2179 31.3175 47.8381 31.3842C46.6657 31.624 46.6657 32.6899 46.6657 33.8357C46.6657 35.1814 46.5258 36.0741 46.7323 36.5938C46.8389 36.8003 47.2519 36.8736 47.525 37.0068C47.6982 37.0801 47.8381 37.2466 47.8381 37.2466C47.8381 37.2466 47.9381 37.693 47.8381 37.9328C46.0727 37.9328 44.5272 37.9062 43.6545 37.9328C42.482 37.9328 42.1422 37.9328 41.8291 37.8662C41.4161 37.7263 41.3828 37.5531 41.1363 37.4798C40.6499 37.3466 39.0578 38.3125 37.9585 37.9261C37.1325 37.6197 36.5462 37.1733 36.3397 36.3073C36.0599 35.0415 36.9326 34.5019 38.1051 33.9556ZM38.5514 36.254C38.698 36.4672 38.8779 36.5738 39.191 36.6004C39.5907 36.6471 40.057 36.5938 40.4101 36.0741C40.7898 35.5878 40.8964 34.6618 40.8964 33.9357C40.6899 34.1755 40.4834 34.2488 40.2636 34.3221C39.8505 34.4953 39.3376 34.795 39.1177 34.9283C38.9045 35.1015 38.5714 35.3347 38.4249 35.7544C38.4315 35.9076 38.4715 36.1341 38.5514 36.254Z" fill="white"/>
<path d="M15.8078 35.2082C6.63434 33.4428 0.898438 26.9608 0.898438 18.1271C0.898438 8.62723 8.69953 0.899414 18.1928 0.899414C27.686 0.899414 35.4138 8.62723 35.4471 18.1271C35.4471 22.0243 34.4478 24.5026 32.6158 27.7469" stroke="white" stroke-width="2.7079" stroke-miterlimit="10"/>
<path fill-rule="evenodd" clip-rule="evenodd" d="M29.0652 35.1349C28.7788 34.8284 28.5723 34.3088 28.3657 33.7559C28.2325 33.2695 28.2591 32.2436 28.8121 31.3043C29.2584 30.6514 30.0579 29.9253 30.9905 29.6854C31.7167 29.4789 32.1963 29.4456 32.5494 29.4456C33.129 29.4789 33.4421 29.6188 34.1683 29.6854C34.3015 29.3457 34.8544 28.6195 35.2342 28.5463C36.2001 28.3064 37.3127 29.4056 38.4852 28.373C38.5451 28.7528 38.3786 29.0992 38.0988 29.5122C37.819 29.9586 37.5792 30.1318 37.1661 30.2051C36.44 30.3383 35.4007 29.1059 34.9277 29.8253C34.7478 30.0918 34.9277 30.2717 35.1675 30.4449C35.6405 30.758 36.2334 31.2443 36.4733 31.7506C36.8197 32.5501 36.853 32.9964 36.7131 33.5827C36.6065 33.9224 36.4733 34.2688 36.2268 34.6153C36.0536 34.8284 35.8804 35.0683 35.6339 35.2748C35.394 35.448 35.0876 35.5812 34.9144 35.7611C34.7012 35.9676 34.6746 36.0409 34.6746 36.2807C34.6746 36.4539 34.9477 36.5539 35.2208 36.5872C35.6339 36.6938 36.0203 36.9336 36.3334 37.3133C36.6731 37.7996 36.8197 38.206 36.8463 38.6923C36.8797 39.0388 36.8797 39.2853 36.6065 39.9381C36.4333 40.4244 36.0935 40.9374 35.7138 41.3171C34.3015 42.7028 32.9891 43.0825 31.1904 42.7028C30.7773 42.6295 29.6781 42.1099 29.1585 41.557C28.499 40.8641 28.399 40.0447 28.3591 39.9381C28.2858 39.5251 28.3258 38.7323 28.6722 38.0062C28.9786 37.3866 29.5316 36.9403 29.9779 36.7004C30.9439 36.2141 32.8092 36.7337 33.0824 37.8729C33.1556 38.186 32.8425 38.8389 32.5361 38.9122C32.3895 38.9721 32.0498 39.1187 31.7367 38.9122C31.4569 38.7323 31.2903 38.286 30.844 38.3193C30.4975 38.3526 30.2177 38.4925 29.9779 38.9122C29.5982 39.6983 30.4642 40.984 31.67 41.1839C32.5627 41.3171 33.3289 40.9441 33.9151 40.4244C34.6413 39.7316 34.981 38.9122 34.4614 38.0062C33.9751 37.3133 33.0491 36.867 32.223 36.5938C31.0971 36.2807 29.9513 36.1741 29.0652 35.1349ZM30.9172 33.1363C30.9172 34.1023 30.784 35.1682 31.6767 35.5546C31.8832 35.6212 32.0631 35.6878 32.3029 35.6878C32.5094 35.6878 32.6827 35.6145 32.8492 35.5546C33.7419 35.1682 33.6087 34.1023 33.6087 33.1363C33.6087 32.2703 33.8152 31.3043 33.089 30.8912C32.8492 30.758 32.6094 30.6514 32.3029 30.6514C32.0231 30.6514 31.8166 30.7913 31.6034 30.8912C30.8573 31.3376 30.9172 32.2436 30.9172 33.1363Z" fill="white"/>
<path fill-rule="evenodd" clip-rule="evenodd" d="M24.3223 33.9293H23.2963C23.2963 35.3816 23.4362 36.3476 24.8552 36.694C25.1617 36.7939 25.4748 36.694 25.6813 36.5874C26.3408 36.3809 26.9271 35.3816 27.6066 35.4482C27.7798 35.4815 27.953 35.6547 27.9197 35.7613C26.9271 38.3861 24.0625 38.9657 22.0572 36.5874C21.7508 36.2476 21.3377 35.4149 21.1645 34.5555C20.9247 33.483 21.0979 32.3438 21.371 31.7509C21.8574 30.7582 22.5169 30.0321 23.3763 29.679C23.7893 29.5058 24.2357 29.3726 24.7553 29.3726C25.4082 29.3726 26.1343 29.7123 26.554 29.8855C27.7198 30.5784 28.5459 32.5836 27.9264 33.9226H24.3223V33.9293ZM25.8212 32.7568C26.1276 31.8241 25.5814 30.5184 24.6154 30.5184C23.6494 30.5184 23.303 31.9307 23.3696 32.7568H24.2756H25.8212Z" fill="white"/>
<path fill-rule="evenodd" clip-rule="evenodd" d="M22.3104 10.8259C21.6642 11.5254 21.2445 12.3381 20.3118 12.9111C19.2059 13.5306 18.3799 14.2235 16.308 14.7764C15.1622 15.0562 13.4434 15.4293 12.5374 14.3301C11.9178 13.6039 12.3642 12.578 12.9904 11.7785C13.6432 10.7726 14.6825 9.77331 16.1614 8.84065C16.9942 8.32102 17.8536 7.90798 19.0993 7.46163C19.9321 7.18183 20.6249 6.97531 21.6842 6.90869L22.8367 7.04859C23.323 7.18183 23.6894 7.42832 23.8626 7.66815C24.2423 8.35433 24.1024 9.15375 23.4496 10.0465C23.2031 10.4328 22.9166 10.8126 22.6435 11.1257C22.2438 11.5321 21.411 11.7053 20.7382 12.1916C19.5657 13.0177 18.9128 13.3907 17.5937 13.9437C16.7011 14.3301 15.4886 14.6365 14.5959 14.7431C14.1762 14.7431 13.8697 14.6698 13.5566 14.5699C13.2768 14.4633 13.037 14.3567 12.7972 14.0503C12.7306 13.8704 12.6639 13.6306 12.6639 13.4973C12.5573 12.7379 13.1836 12.0117 13.7632 11.2523C14.2495 10.6327 15.2821 9.63341 16.4945 8.94057C17.4272 8.42094 18.2866 7.93463 19.599 7.56156C20.0453 7.45497 20.4917 7.32173 21.0113 7.24845L21.2178 7.28176C21.4243 7.24845 22.357 7.2751 22.7701 7.37502C23.343 7.60153 23.6894 8.02123 23.6761 8.60082C23.6761 8.84064 23.5362 9.22037 23.5362 9.29365C23.1165 9.97317 22.7634 10.3662 22.3104 10.8259Z" fill="white"/>
<path fill-rule="evenodd" clip-rule="evenodd" d="M26.4732 21.8179C25.8204 21.9911 23.7152 21.7446 22.5094 22.6173C21.5434 23.2369 21.1237 24.2695 21.157 25.3687C21.157 25.9616 21.3969 26.6145 21.5434 27.2074C22.0297 24.9623 22.8158 23.7165 25.2341 23.5167C25.0276 24.2695 24.408 24.3427 23.6153 25.3753C22.5427 26.6211 22.0564 27.274 21.1637 28.6264C20.3776 29.7988 20.1311 30.3518 19.6781 31.3844C19.6781 31.3844 19.5782 31.6242 19.4383 31.9373C19.3383 32.1438 19.2317 32.4836 18.9919 32.5169C18.9919 27.9602 17.3731 26.5478 19.3783 22.1377C20.0711 20.4455 20.1644 20.5788 20.4442 19.5861C20.9638 17.6875 20.7573 14.3699 20.7573 14.3699C21.1037 14.4431 21.65 15.096 21.9298 15.5157C21.7566 14.8229 21.8965 14.4432 22.2429 13.4039C23.0024 13.5105 22.6893 14.2699 23.069 15.2759L23.3821 12.7177C24.4214 12.5445 25.0009 12.4779 25.9336 12.6511C25.2807 12.1315 24.7278 11.9583 24.5546 11.2654C25.5939 11.2654 26.0735 11.372 27.3126 10.959C26.0735 10.1995 25.6272 9.91971 25.5206 9.7132C26.7997 9.16026 27.3859 8.67394 28.0654 7.70796C27.8256 8.09435 26.8663 8.33418 26.4866 8.33418C26.5931 7.60803 27.6524 6.98181 28.3053 6.71534C26.4866 6.68203 26.6198 6.92186 25.5206 7.09507C25.7604 5.71605 26.1401 5.02321 26.7997 4.5702C26.0002 4.88331 25.414 5.71605 24.4813 5.77601C24.5879 5.26304 24.9277 4.39699 25.3141 4.15716C25.3141 4.12385 25.2741 4.05724 25.2408 4.02393C25.2408 4.02393 23.1623 5.4096 22.183 6.30896C22.183 6.30896 22.183 6.30896 22.183 6.31562H22.1763C22.103 6.17572 21.9631 5.91591 21.9898 5.89592C21.9898 5.20308 21.8832 4.82335 22.2962 4.23711C21.7832 4.47694 20.8173 5.6894 20.6774 6.10244C20.6774 6.10244 19.9512 4.96325 19.3716 4.58353C19.1651 4.41032 18.9519 4.45029 18.6855 4.41032C19.0252 5.00323 18.7854 5.89592 18.5456 6.58876C17.926 6.51548 17.2332 5.9692 16.8867 5.52286C17.0266 6.17572 17.2998 6.76197 17.06 7.48812C16.547 7.35488 16.2006 6.86856 16.3072 6.21569C15.7542 6.70201 15.9208 7.24829 15.6809 8.04106C14.7882 7.86785 14.1953 7.48812 13.8889 6.73532C13.6491 7.83454 13.7823 8.49407 14.0554 9.59994C12.9162 9.62659 11.8437 9.59994 11.4306 8.66061C11.2241 9.59994 11.7438 10.0463 12.0502 10.979C11.364 11.1522 11.2974 11.2188 10.8777 11.3587C9.84511 11.7051 8.97906 12.2914 8.19295 12.4979C8.67927 12.7044 9.74518 12.7044 10.1915 12.6777L7.95312 14.9161C9.43207 14.4698 8.25957 14.2233 10.8844 14.2233L8.43944 16.9214C9.61194 16.2285 10.3381 15.9887 11.5106 15.9154C11.4773 16.3618 10.398 17.7141 10.6445 18.6135C11.1309 17.6475 12.7231 16.8481 13.689 16.6816C13.5491 17.9273 13.2693 18.3737 13.0628 18.4736C14.6217 18.1338 14.7549 16.9614 15.621 16.7815C15.7542 17.3344 15.9607 17.6142 16.0673 18.2338C16.5803 16.575 17.1332 15.8155 17.3731 15.6823C17.5796 16.5417 17.3731 17.028 17.2998 17.8607C18.339 16.928 18.5056 16.968 19.0652 15.549C19.2784 15.5957 19.4383 15.6356 19.5915 15.6889C19.7314 15.7422 19.8846 15.8022 20.0645 15.9221C20.0645 17.3344 19.9912 18.3404 19.6781 19.2331C19.4116 20.0991 18.9519 20.8519 18.6855 21.5447C18.1658 22.7239 17.8527 23.8165 17.6129 25.2354C17.2998 26.7544 18.1325 31.6175 17.7595 31.4843C17.6862 31.4843 17.6529 31.6175 17.5196 31.3444C17.3398 30.8581 17.3064 30.6582 17.1332 30.1053C16.8934 29.1993 16.6536 28.7929 16.0673 27.687C13.0961 22.6506 9.74518 21.8245 9.22555 21.7579C9.57197 22.2709 10.2248 22.6506 10.6379 23.1036C12.5099 25.0289 12.8829 25.7551 13.196 26.2414C15.0614 29.0327 15.7142 30.6183 16.4404 33.5562C16.6469 34.5954 16.9267 35.7346 17.0333 36.7672C17.06 37.107 17.1332 37.5267 17.1332 37.7998H19.9312C19.9312 35.6613 20.211 33.5562 20.9305 31.5842C21.2103 30.7582 21.69 29.9254 22.0697 29.1726C22.2829 28.8262 22.5893 28.2666 22.9024 27.8536C23.0757 27.6471 23.3155 27.5405 23.3888 27.3673C23.9817 27.6071 24.488 27.4738 25.0809 27.294C25.7004 27.1208 25.907 27.0142 26.1468 26.7743C26.36 26.6011 26.6331 26.4346 26.9396 25.8417C27.5591 24.5359 27.2194 23.6632 27.6924 22.4707C28.1054 21.4315 28.6583 21.1184 28.9381 20.2257C28.0188 21.165 26.7197 21.7513 26.4732 21.8179ZM19.5715 15.0094C19.305 14.8762 19.0452 14.7696 18.812 14.7429C18.6788 15.6356 18.399 15.8422 17.8461 16.5017C17.8461 15.5357 17.9527 15.156 17.8461 14.5764C17.1532 14.8429 16.8801 15.2692 16.6003 15.9554C16.2938 16.5017 16.2605 16.3351 16.114 16.575C16.054 16.0553 15.8342 15.8821 15.8075 15.3292C15.2879 15.5357 15.4211 16.575 14.1154 17.2012C14.2486 16.9614 14.182 16.575 14.182 15.6423L11.7371 16.8148C12.0435 16.0553 12.5232 15.5091 12.5965 15.1959L10.3514 15.5757C10.8044 15.2359 11.0776 14.7496 11.2574 14.5098C11.6705 14.0634 11.7771 13.9568 11.8037 13.7503H9.65857L12.2834 12.0915C11.4573 12.2247 11.0443 12.2647 10.2515 12.2647C10.8311 11.9849 11.2508 11.6851 11.9103 11.4386C12.3233 11.2588 12.5299 11.2588 13.0495 11.0522C12.5299 10.8124 12.2234 10.506 12.0435 9.87974C12.6364 10.0863 13.8423 10.0863 14.6017 9.70653C14.4951 9.05367 14.1554 8.70058 14.3619 8.121C15.2213 8.18762 15.2945 8.60732 16.114 8.77387C16.114 8.32752 16.2206 7.97444 16.2938 7.56806C16.7402 7.74127 16.9467 7.94779 17.433 7.94779C17.5996 7.42816 17.5996 7.16168 17.5996 6.70867C17.7461 6.98181 18.4989 7.28826 18.8054 7.32823C18.8054 6.70867 19.0452 6.28897 19.2917 5.323C19.6714 5.56283 20.191 6.28897 20.2976 6.94184C20.764 6.90187 21.4302 6.29564 21.4302 6.29564L21.7033 6.81526V6.82859C21.6833 6.87522 21.6767 6.90853 21.6767 6.94184L24.0816 5.17644C24.1416 5.17644 24.0216 5.1831 24.0949 5.25638C23.8551 5.52952 23.6086 6.60208 23.6086 7.01512C23.6819 7.01512 25.2275 5.98253 25.3007 5.87594C25.1941 6.67536 24.8544 7.08174 24.5413 7.88117L26.5465 7.25495C26.0669 7.88117 25.3407 8.53404 24.468 8.70725C24.6479 9.09364 25.2608 8.94708 25.9869 8.94708C25.0209 9.33347 24.7811 9.36011 24.0883 9.63991C24.3281 9.84643 24.7744 9.84643 25.9136 10.7125C24.7078 10.919 24.5013 10.6792 23.6019 10.5726C23.6752 11.1988 23.9484 11.6118 24.5346 12.0915C23.7085 12.2247 23.4354 11.9183 22.6693 11.8117C22.7692 12.3646 22.9824 12.4646 22.6693 12.9509C22.1497 12.7444 21.8032 12.851 21.217 12.9509C21.2903 13.2973 21.63 13.5038 21.5301 14.0568C21.0438 13.8502 20.8373 13.5771 20.3576 13.5038C20.1178 13.8502 20.1444 14.6763 20.0445 15.2692C19.9046 15.176 19.7447 15.0827 19.5715 15.0094Z" fill="white"/>
</g>
<defs>
<clipPath id="clip0">
<rect width="53.3619" height="56" fill="white"/>
</clipPath>
</defs>
</svg>
