<svg width="46" height="56" viewBox="0 0 46 56" fill="none" xmlns="http://www.w3.org/2000/svg">
<g clip-path="url(#clip0)">
<path d="M2.80576 47.2418C2.96092 47.4462 3.03698 47.7 3.01994 47.9561C3.02481 48.1692 2.97044 48.3794 2.86287 48.5634C2.75542 48.7371 2.6023 48.878 2.42023 48.9706C2.21259 49.0679 1.98555 49.1167 1.75627 49.1134H0V44.8272H1.42787C1.67372 44.8184 1.91821 44.8674 2.1418 44.97C2.32807 45.062 2.48597 45.2027 2.59872 45.3772C2.70628 45.5612 2.76066 45.7714 2.75578 45.9845C2.76055 46.1758 2.71631 46.3651 2.62727 46.5345C2.54006 46.6859 2.41446 46.8116 2.26317 46.8989C2.47444 46.9558 2.66358 47.0753 2.80576 47.2418ZM1.92048 45.5487C1.78376 45.4314 1.6078 45.3702 1.42787 45.3772H0.64254V46.6488H1.42787C1.55229 46.6519 1.67534 46.6223 1.78483 46.5631C1.88641 46.5124 1.97083 46.4329 2.02757 46.3345C2.09314 46.2103 2.12066 46.0695 2.10669 45.9297C2.09272 45.79 2.03788 45.6574 1.94904 45.5487H1.92048ZM2.05613 48.4062C2.15772 48.3547 2.24025 48.2721 2.29172 48.1704C2.34431 48.0767 2.37139 47.9708 2.37026 47.8633C2.37165 47.748 2.34206 47.6345 2.28458 47.5347C2.22828 47.4341 2.14393 47.3522 2.04185 47.2989C1.92721 47.2397 1.79957 47.2102 1.6706 47.2132H0.64254V48.5062H1.6706C1.80483 48.5078 1.93734 48.4759 2.05613 48.4133V48.4062Z" fill="white"/>
<path d="M6.50472 48.1564H4.47001L4.12018 49.0851H3.40625L5.10541 44.7988H5.81934L7.51136 49.0851H6.79743L6.50472 48.1564ZM6.2834 47.5777L5.48379 45.5061L4.69133 47.5777H6.2834Z" fill="white"/>
<path d="M8.26758 44.7988H8.9244V49.0851H8.26758V44.7988Z" fill="white"/>
<path d="M12.5432 49.0851L11.4865 47.442L10.4442 49.0851H9.66602L11.1296 46.8991L9.70171 44.7988H10.4942L11.4865 46.349L12.4861 44.7988H13.2571L11.8292 46.8991L13.2999 49.0851H12.5432Z" fill="white"/>
<path d="M16.678 48.1564H14.6504L14.2935 49.0851H13.6152L15.3144 44.7988H16.0283L17.7275 49.0851H17.0492L16.678 48.1564ZM16.4567 47.5777L15.6642 45.5061L14.8718 47.5777H16.4567Z" fill="white"/>
<path d="M20.7388 45.3989V46.6491H22.3166V47.242H20.7388V48.4921H22.538V49.0851H20.082V44.7988H22.538V45.3989H20.7388Z" fill="white"/>
<path d="M27.9008 44.7988V49.0851H27.244V45.8204L25.8161 49.0851H25.4948L24.067 45.8132V49.0851H23.4102V44.7988H24.274L25.7019 47.9992L27.0869 44.7988H27.9008Z" fill="white"/>
<path d="M29.0723 44.7988H29.7291V49.0851H29.0723V44.7988Z" fill="white"/>
<path d="M31.2139 48.9567C30.9419 48.8483 30.6978 48.6798 30.5 48.4637L30.9141 47.9923C31.051 48.1646 31.2209 48.3078 31.4138 48.4137C31.5968 48.5172 31.8034 48.5713 32.0135 48.5709C32.143 48.5706 32.2713 48.5464 32.3919 48.4995C32.4954 48.4526 32.5842 48.3785 32.6489 48.2851C32.7094 48.1888 32.7415 48.0774 32.7418 47.9637C32.7434 47.8398 32.7031 47.7189 32.6275 47.6208C32.5486 47.5215 32.4486 47.441 32.3348 47.385C32.2206 47.3184 32.0564 47.2398 31.8422 47.1493C31.6321 47.0687 31.4292 46.9707 31.2354 46.8564C31.0805 46.7632 30.9487 46.6362 30.8498 46.4849C30.7386 46.3104 30.6837 46.1059 30.6928 45.8991C30.686 45.6849 30.7432 45.4735 30.857 45.2919C30.9666 45.1174 31.1223 44.9765 31.3067 44.8847C31.5069 44.7877 31.7269 44.7387 31.9493 44.7418C32.1961 44.7396 32.4401 44.7934 32.6632 44.899C32.8867 44.9993 33.09 45.1397 33.2629 45.3133L32.8988 45.7705C32.7605 45.6274 32.5987 45.509 32.4205 45.4205C32.2682 45.3504 32.1026 45.3139 31.935 45.3133C31.8292 45.3117 31.7243 45.3337 31.628 45.3776C31.5385 45.4145 31.4616 45.4765 31.4067 45.5562C31.3443 45.6452 31.3109 45.7512 31.3109 45.8598C31.3109 45.9685 31.3443 46.0745 31.4067 46.1634C31.4849 46.254 31.5793 46.3292 31.6851 46.3849C31.7922 46.4421 31.9493 46.5135 32.1492 46.5992H32.2134C32.4148 46.6838 32.6104 46.7816 32.7989 46.8921C32.9623 46.9915 33.0994 47.1287 33.1987 47.2922C33.31 47.4745 33.3646 47.6859 33.3557 47.8994C33.3632 48.1336 33.301 48.3648 33.1773 48.5638C33.0548 48.7433 32.884 48.8845 32.6846 48.971C32.4603 49.0712 32.2163 49.12 31.9707 49.1138C31.7108 49.1094 31.4541 49.0561 31.2139 48.9567Z" fill="white"/>
<path d="M34.561 48.9566C34.3013 48.8445 34.0697 48.6761 33.8828 48.4637L34.2969 47.9922C34.4323 48.166 34.6025 48.3096 34.7966 48.4137C34.9796 48.5171 35.1862 48.5713 35.3964 48.5708C35.5235 48.5705 35.6494 48.5463 35.7676 48.4994C35.8723 48.4545 35.9616 48.38 36.0246 48.2851C36.0882 48.1902 36.1206 48.0778 36.1174 47.9636C36.1227 47.8391 36.0821 47.7171 36.0032 47.6207C35.927 47.5216 35.8294 47.441 35.7176 47.385C35.6034 47.3207 35.4321 47.2421 35.2179 47.1492C35.0084 47.0671 34.8056 46.9692 34.611 46.8563C34.4593 46.7592 34.3282 46.6329 34.2255 46.4848C34.1175 46.3089 34.0629 46.1054 34.0684 45.899C34.0722 45.6811 34.1419 45.4694 34.2683 45.2918C34.3743 45.1142 34.5309 44.9724 34.7181 44.8846C34.9161 44.7887 35.1335 44.7398 35.3535 44.7418C35.6001 44.7415 35.8438 44.7951 36.0675 44.8989C36.291 44.9992 36.4942 45.1397 36.6672 45.3133L36.2959 45.7705C36.1587 45.6291 35.9996 45.5109 35.8247 45.4204C35.6702 45.3495 35.5021 45.313 35.3321 45.3133C35.2263 45.3117 35.1214 45.3336 35.0251 45.3776C34.9368 45.4163 34.8604 45.478 34.8038 45.5561C34.7513 45.6421 34.7241 45.7412 34.7253 45.8419C34.7212 45.9584 34.7592 46.0725 34.8323 46.1634C34.9078 46.2539 34.9999 46.329 35.1036 46.3848C35.2179 46.442 35.3678 46.5134 35.5748 46.5991H35.632C35.8356 46.6838 36.0335 46.7817 36.2245 46.892C36.3864 46.9933 36.5232 47.1301 36.6243 47.2921C36.7322 47.4759 36.7866 47.6862 36.7814 47.8993C36.7888 48.1335 36.7267 48.3647 36.6029 48.5637C36.4805 48.7433 36.3097 48.8845 36.1103 48.9709C35.8858 49.0709 35.642 49.1197 35.3964 49.1137C35.1101 49.1197 34.8256 49.0662 34.561 48.9566Z" fill="white"/>
<path d="M40.252 48.1562H38.2173L37.8389 49.0849H37.125L38.8242 44.7987H39.5381L41.2301 49.0849H40.5162L40.252 48.1562ZM39.0883 43.9343C39.062 43.8864 39.0254 43.8449 38.9812 43.8128C38.9371 43.7991 38.8898 43.7991 38.8456 43.8128C38.8041 43.8115 38.7631 43.8223 38.7276 43.8438C38.6921 43.8654 38.6636 43.8968 38.6457 43.9343C38.593 44.0303 38.5682 44.1392 38.5743 44.2486H38.2387C38.2349 44.1141 38.2592 43.9802 38.3101 43.8557C38.3634 43.7419 38.4475 43.6454 38.5529 43.5771C38.6469 43.511 38.7592 43.476 38.8741 43.4771C38.9817 43.4798 39.0868 43.5101 39.1793 43.5652C39.2718 43.6202 39.3487 43.6981 39.4024 43.7914C39.4284 43.8376 39.4652 43.8768 39.5095 43.9057C39.551 43.9356 39.6013 43.9507 39.6523 43.9486C39.6926 43.9482 39.7322 43.9375 39.7672 43.9175C39.8022 43.8975 39.8315 43.8688 39.8522 43.8343C39.9023 43.7347 39.9269 43.6242 39.9236 43.5128H40.252C40.2553 43.6473 40.231 43.781 40.1806 43.9057C40.1413 44.0134 40.0719 44.1077 39.9807 44.1772C39.8845 44.2443 39.7696 44.2793 39.6523 44.2772C39.5354 44.2797 39.4203 44.2487 39.3204 44.188C39.2204 44.1273 39.1399 44.0392 39.0883 43.9343ZM40.0307 47.5776L39.2668 45.5059L38.4743 47.5776H40.0307Z" fill="white"/>
<path d="M42.5941 48.8496C42.2577 48.6641 41.9787 48.3898 41.7873 48.0566C41.635 47.8047 41.5349 47.5246 41.493 47.2332C41.4511 46.9417 41.4684 46.6447 41.5436 46.3601C41.6189 46.0754 41.7507 45.8088 41.9312 45.5762C42.1117 45.3436 42.3371 45.1498 42.5941 45.0062C42.8511 44.8552 43.1354 44.7566 43.4307 44.7162C43.726 44.6757 44.0264 44.6942 44.3145 44.7706C44.6026 44.847 44.8727 44.9798 45.1092 45.1612C45.3458 45.3427 45.544 45.5692 45.6925 45.8278C45.8403 46.0785 45.9368 46.3562 45.9762 46.6447C46.0156 46.9332 45.9972 47.2266 45.9221 47.5079C45.847 47.7891 45.7167 48.0526 45.5388 48.283C45.3609 48.5134 45.1389 48.706 44.8858 48.8496C44.5408 49.0416 44.1526 49.1424 43.7578 49.1424C43.363 49.1424 42.9748 49.0416 42.6298 48.8496H42.5941ZM44.5145 48.3066C44.751 48.1659 44.947 47.9662 45.0834 47.7271C45.2198 47.4879 45.2919 47.2175 45.2927 46.9422C45.2957 46.6632 45.2216 46.3888 45.0786 46.1492C44.944 45.9124 44.7495 45.7153 44.5145 45.5777C44.2728 45.441 43.9997 45.3696 43.7221 45.3706C43.4442 45.3679 43.1707 45.4394 42.9296 45.5777C42.691 45.7129 42.4936 45.9105 42.3585 46.1492C42.2086 46.3869 42.1271 46.6612 42.1229 46.9422C42.1177 47.2205 42.1894 47.4949 42.3299 47.7351C42.463 47.9755 42.6609 48.1735 42.9011 48.3066C43.1421 48.4449 43.4157 48.5165 43.6935 48.5138C43.9808 48.5198 44.2644 48.4483 44.5145 48.3066Z" fill="white"/>
<path d="M2.85547 51.6569H4.28333C4.68739 51.6445 5.08791 51.7355 5.44705 51.9212C5.74853 52.0859 5.99635 52.3339 6.16098 52.6356C6.34421 52.9958 6.43499 53.3959 6.42513 53.8C6.43359 54.1931 6.34791 54.5826 6.17526 54.9359C6.01332 55.2395 5.76482 55.4882 5.46132 55.6502C5.1006 55.8482 4.69471 55.9491 4.28333 55.9431H2.85547V51.6569ZM4.28333 55.3502C4.48767 55.3649 4.69283 55.3369 4.88579 55.2681C5.07875 55.1992 5.25529 55.0909 5.40421 54.9501C5.65002 54.6171 5.78266 54.214 5.78266 53.8C5.78266 53.386 5.65002 52.9829 5.40421 52.6498C5.2547 52.5103 5.07788 52.4034 4.88495 52.3358C4.69202 52.2681 4.48716 52.2413 4.28333 52.2569H3.5694V55.3502H4.28333Z" fill="white"/>
<path d="M7.98104 52.2568V53.507H9.55883V54.0999H7.98104V55.3501H9.78015V55.943H7.32422V51.6567H9.78015V52.2568H7.98104Z" fill="white"/>
<path d="M13.151 55.7216C12.814 55.5302 12.5337 55.2528 12.3387 54.9178C12.1437 54.5827 12.041 54.2019 12.041 53.8142C12.041 53.4264 12.1437 53.0456 12.3387 52.7106C12.5337 52.3755 12.814 52.0982 13.151 51.9068C13.4938 51.7076 13.8827 51.6017 14.279 51.5996C14.5781 51.6024 14.8739 51.663 15.15 51.7782C15.4164 51.8907 15.6587 52.0531 15.8639 52.2568L15.3927 52.7069C15.2498 52.5564 15.0772 52.4372 14.8859 52.3568C14.6898 52.272 14.4784 52.2282 14.2647 52.2283C13.9871 52.2273 13.714 52.2987 13.4723 52.4354C13.1174 52.6484 12.8593 52.9912 12.7527 53.3912C12.6461 53.7912 12.6993 54.2171 12.9011 54.5786C13.0363 54.8173 13.2337 55.0148 13.4723 55.1501C13.714 55.2868 13.9871 55.3582 14.2647 55.3572C14.4784 55.3573 14.6898 55.3135 14.8859 55.2286C15.0772 55.1483 15.2498 55.0291 15.3927 54.8786L15.8639 55.3287C15.6607 55.5348 15.4179 55.6976 15.15 55.8073C14.875 55.9259 14.5785 55.9867 14.279 55.9859C13.8865 55.9969 13.4978 55.9058 13.151 55.7216Z" fill="white"/>
<path d="M19.2762 55.0075H17.2415L16.8917 55.9362H16.1777L17.8769 51.6499H18.5908L20.29 55.9362H19.5761L19.2762 55.0075ZM19.0549 54.4288L18.2553 52.3571L17.4628 54.4288H19.0549Z" fill="white"/>
<path d="M22.5383 54.0858H21.6959V55.9431H21.0391V51.6569H22.6811C22.9129 51.6537 23.1415 51.7103 23.3451 51.8212C23.5348 51.9252 23.6908 52.0814 23.7948 52.2712C23.9041 52.46 23.9608 52.6746 23.959 52.8927C23.9591 53.0621 23.9251 53.2297 23.8591 53.3857C23.7879 53.5336 23.6882 53.6659 23.5657 53.775C23.4431 53.8841 23.3002 53.9679 23.1452 54.0215L24.2732 55.9431H23.5592L22.5383 54.0858ZM21.6959 53.5214H22.624C22.8054 53.5323 22.9841 53.4735 23.1237 53.3571C23.1883 53.2989 23.2391 53.227 23.2724 53.1467C23.3058 53.0663 23.3208 52.9796 23.3165 52.8927C23.3226 52.776 23.2948 52.6599 23.2366 52.5585C23.1783 52.4571 23.092 52.3747 22.9881 52.3212C22.8757 52.2629 22.7506 52.2335 22.624 52.2355H21.6959V53.5214Z" fill="white"/>
<path d="M27.8429 54.0999C27.998 54.3044 28.0741 54.5581 28.057 54.8143C28.0584 55.0269 28.0043 55.2362 27.9 55.4215C27.79 55.5958 27.6345 55.7366 27.4502 55.8287C27.2451 55.9259 27.0204 55.9748 26.7934 55.9716H25.0371V51.6853H26.465C26.6966 51.6811 26.9262 51.73 27.1361 51.8282C27.3236 51.9182 27.482 52.0594 27.593 52.2354C27.7031 52.4186 27.7599 52.6289 27.7572 52.8426C27.762 53.0339 27.7177 53.2233 27.6287 53.3927C27.5409 53.5461 27.4124 53.6722 27.2574 53.757C27.4842 53.8058 27.6894 53.9259 27.8429 54.0999ZM26.9504 52.4068C26.8083 52.2843 26.6236 52.2227 26.4364 52.2354H25.7011V53.507H26.415C26.5392 53.5081 26.6618 53.4787 26.772 53.4212C26.8722 53.3686 26.9561 53.2896 27.0147 53.1926C27.0793 53.0942 27.1185 52.9813 27.1289 52.864C27.1326 52.7796 27.1187 52.6953 27.0879 52.6166C27.0572 52.5378 27.0104 52.4664 26.9504 52.4068ZM27.0932 55.2643C27.1932 55.2106 27.2751 55.1286 27.3288 55.0286C27.3809 54.9269 27.4078 54.8142 27.4074 54.7C27.4078 54.5871 27.3783 54.4762 27.3217 54.3785C27.2625 54.2777 27.1758 54.196 27.0718 54.1428C26.9594 54.0844 26.8343 54.055 26.7077 54.057H25.7011V55.3501H26.7291C26.8669 55.3585 27.0046 55.3315 27.1289 55.2715L27.0932 55.2643Z" fill="white"/>
<path d="M29.6217 55.7219C29.2847 55.5305 29.0044 55.2531 28.8094 54.9181C28.6144 54.583 28.5117 54.2022 28.5117 53.8145C28.5117 53.4267 28.6144 53.0459 28.8094 52.7109C29.0044 52.3758 29.2847 52.0985 29.6217 51.9071C29.9667 51.715 30.3549 51.6143 30.7497 51.6143C31.1445 51.6143 31.5327 51.715 31.8777 51.9071C32.2128 52.0943 32.4914 52.3682 32.6845 52.7C32.8765 53.04 32.9775 53.4239 32.9775 53.8145C32.9775 54.205 32.8765 54.5889 32.6845 54.9289C32.4914 55.2608 32.2128 55.5346 31.8777 55.7219C31.5327 55.9139 31.1445 56.0147 30.7497 56.0147C30.3549 56.0147 29.9667 55.9139 29.6217 55.7219ZM31.5422 55.1789C31.7808 55.0437 31.9782 54.8462 32.1133 54.6074C32.3188 54.2468 32.3741 53.8197 32.2672 53.4186C32.1603 53.0175 31.8998 52.6746 31.5422 52.4643C31.3001 52.3285 31.0272 52.2572 30.7497 52.2572C30.4722 52.2572 30.1993 52.3285 29.9572 52.4643C29.7201 52.6015 29.5232 52.7985 29.3861 53.0358C29.2462 53.2763 29.1747 53.5505 29.1791 53.8288C29.1842 54.1028 29.2615 54.3706 29.4031 54.6051C29.5448 54.8397 29.7458 55.0327 29.9858 55.1646C30.2279 55.3004 30.5008 55.3717 30.7783 55.3717C31.0558 55.3717 31.3287 55.3004 31.5707 55.1646L31.5422 55.1789Z" fill="white"/>
<path d="M37.7321 51.6567V55.943H37.1753L34.4909 52.6783V55.943H33.8555V51.6567H34.4052L37.1253 54.9143V51.6567H37.7321Z" fill="white"/>
<path d="M39.7098 55.7219C39.3734 55.5364 39.0944 55.2621 38.9031 54.9289C38.7068 54.5903 38.6035 54.2059 38.6035 53.8145C38.6035 53.4231 38.7068 53.0386 38.9031 52.7C39.0944 52.3668 39.3734 52.0926 39.7098 51.9071C40.0548 51.715 40.443 51.6143 40.8378 51.6143C41.2326 51.6143 41.6208 51.715 41.9658 51.9071C42.3028 52.0985 42.5831 52.3758 42.7781 52.7109C42.9731 53.0459 43.0758 53.4267 43.0758 53.8145C43.0758 54.2022 42.9731 54.583 42.7781 54.9181C42.5831 55.2531 42.3028 55.5305 41.9658 55.7219C41.6208 55.9139 41.2326 56.0147 40.8378 56.0147C40.443 56.0147 40.0548 55.9139 39.7098 55.7219ZM41.6303 55.1789C41.9851 54.966 42.2432 54.6232 42.3498 54.2232C42.4564 53.8231 42.4032 53.3973 42.2014 53.0358C42.0623 52.8001 41.8658 52.6035 41.6303 52.4643C41.3886 52.3276 41.1155 52.2562 40.8378 52.2571C40.56 52.2552 40.2867 52.3266 40.0453 52.4643C39.8067 52.5995 39.6093 52.797 39.4742 53.0358C39.3393 53.268 39.2679 53.5316 39.2672 53.8002C39.262 54.0785 39.3337 54.3529 39.4742 54.5931C39.6072 54.8335 39.8052 55.0315 40.0453 55.1646C40.2867 55.3023 40.56 55.3738 40.8378 55.3718C41.1155 55.3728 41.3886 55.3014 41.6303 55.1646V55.1789Z" fill="white"/>
<path d="M10.7098 7.49397C11.0419 5.55951 11.994 3.78568 13.4223 2.44028C14.8506 1.09488 16.6775 0.250942 18.6273 0.035875C23.0465 -0.31417 26.7875 2.02899 28.1512 6.03664C28.2797 6.42955 28.4653 6.4867 28.8651 6.44384C30.6665 6.15584 32.5105 6.54944 34.0376 7.5479C35.5647 8.54636 36.6655 10.0781 37.1253 11.8445C37.1699 11.9346 37.233 12.0143 37.3105 12.0783C37.3881 12.1423 37.4782 12.1892 37.5751 12.216C38.1676 12.3446 38.7959 12.3589 39.3813 12.5303C41.1079 13.065 42.5882 14.1965 43.5578 15.7227C44.5275 17.2489 44.9232 19.0703 44.6743 20.8616C44.4254 22.6528 43.5482 24.2972 42.1993 25.5009C40.8504 26.7045 39.1178 27.3891 37.3109 27.4322C33.8626 27.4322 30.4215 27.4322 26.9803 27.4322H10.4456C9.93746 27.4454 9.42904 27.4192 8.92494 27.3536C6.78609 27.0135 4.82996 25.9456 3.3866 24.3299C1.94324 22.7143 1.10101 20.65 1.00203 18.4852C0.903041 16.3204 1.55335 14.1877 2.84324 12.447C4.13313 10.7063 5.98362 9.46401 8.0825 8.92987C8.87497 8.75127 9.71027 8.70841 10.5741 8.58697C10.617 8.22263 10.6384 7.8583 10.7098 7.49397ZM28.2582 7.8583C27.5443 8.01546 27.2944 7.89402 27.1302 7.14392C26.8632 6.02726 26.3491 4.98481 25.6258 4.09343C24.9025 3.20205 23.9885 2.48447 22.9512 1.9936C21.9139 1.50272 20.7797 1.25107 19.6322 1.2572C18.4848 1.26332 17.3533 1.52707 16.3213 2.02899C15.0178 2.59228 13.9064 3.52321 13.1229 4.70809C12.3393 5.89297 11.9176 7.28052 11.9092 8.70127C11.9092 8.87986 11.9092 9.05845 11.9092 9.2299C11.9092 9.79426 11.6379 9.98714 11.0667 10.0014C10.3149 9.98309 9.56275 10.0261 8.81785 10.13C7.38193 10.3505 6.03872 10.9765 4.94606 11.9344C3.85339 12.8924 3.05666 14.1425 2.64947 15.5379C2.14562 16.9202 2.05003 18.4184 2.37412 19.8537C2.6982 21.2889 3.42827 22.6005 4.47714 23.6317C5.3409 24.5855 6.42766 25.3099 7.64001 25.74C8.85237 26.1702 10.1524 26.2926 11.4237 26.0963C11.7209 26.0785 12.0189 26.0785 12.3161 26.0963L36.9754 26.1678C37.8056 26.1776 38.6296 26.0238 39.4003 25.715C40.1711 25.4062 40.8736 24.9485 41.4676 24.368C42.0616 23.7876 42.5355 23.0958 42.8623 22.3321C43.1891 21.5683 43.3624 20.7477 43.3722 19.917C43.382 19.0863 43.2283 18.2617 42.9197 17.4905C42.6111 16.7192 42.1537 16.0164 41.5736 15.422C40.9935 14.8276 40.3021 14.3534 39.5389 14.0264C38.7756 13.6994 37.9555 13.526 37.1253 13.5162C36.1758 13.5162 36.1258 13.4662 35.9544 12.566C35.6964 11.1548 34.9433 9.88215 33.8307 8.97717C32.7182 8.07219 31.3193 7.59435 29.886 7.6297C29.322 7.70828 28.7794 7.75829 28.2582 7.8583Z" fill="white"/>
<path d="M22.9599 32.9685C23.2454 32.6828 23.5239 32.3899 23.8094 32.1113C24.095 31.8326 24.4591 31.7898 24.6876 32.0255C24.7411 32.0888 24.781 32.1623 24.8051 32.2415C24.8291 32.3208 24.8367 32.4042 24.8273 32.4865C24.8179 32.5688 24.7919 32.6483 24.7506 32.7201C24.7094 32.792 24.6539 32.8546 24.5876 32.9042C23.9808 33.5186 23.3668 34.1258 22.7528 34.733C22.7027 34.8038 22.6363 34.8615 22.5593 34.9013C22.4823 34.9412 22.3969 34.9619 22.3102 34.9619C22.2235 34.9619 22.1381 34.9412 22.061 34.9013C21.984 34.8615 21.9177 34.8038 21.8675 34.733C21.2393 34.1187 20.6182 33.4971 20.0042 32.8756C19.9446 32.8275 19.8955 32.7677 19.8601 32.6997C19.8247 32.6318 19.8036 32.5573 19.7982 32.4809C19.7929 32.4045 19.8033 32.3278 19.8289 32.2556C19.8545 32.1833 19.8948 32.1172 19.9471 32.0612C19.9964 31.9975 20.0597 31.9458 20.1321 31.9103C20.2045 31.8748 20.2841 31.8564 20.3647 31.8564C20.4453 31.8564 20.5249 31.8748 20.5973 31.9103C20.6697 31.9458 20.733 31.9975 20.7824 32.0612C21.0894 32.3541 21.3749 32.6685 21.6748 32.9757L21.7747 32.9328V32.4613C21.7747 30.8611 21.7747 29.2609 21.7747 27.6607C21.7747 27.0535 21.9247 26.832 22.303 26.8249C22.6814 26.8177 22.867 27.0535 22.867 27.6678V32.9185L22.9599 32.9685Z" fill="white"/>
<path d="M18.4 12.1489C18.4 12.6263 17.5901 12.5162 17.3692 12.5162H17.2956C15.9335 12.4794 15.2709 15.3439 15.234 16.923C15.1972 18.7224 15.3077 20.0077 16.5225 21.0727C17.1115 21.5868 18.0687 21.0727 18.2896 21.4767C18.5473 21.9908 18.0319 22.1377 17.5901 22.1377C14.3874 22.0275 13.9456 17.7676 14.645 15.0133C15.0132 13.5444 15.8967 11.5981 17.7374 11.6348C18.0319 11.6348 18.4 11.8184 18.4 12.1489Z" fill="white"/>
<path d="M19.9833 14.3151L20.0201 14.1682C20.241 13.14 20.7196 11.4507 21.8608 11.4874C23.6646 11.5241 23.9592 13.1032 24.1064 14.6089C24.1432 15.1598 24.2536 16.7389 24.2536 16.8123C24.2536 16.9959 24.1064 19.0892 24.0328 19.7869C23.9223 20.9621 23.4069 22.5779 22.008 22.5779C21.0141 22.5779 20.4987 21.513 20.2778 20.6683C19.8361 19.0525 19.7256 17.8773 19.7624 16.2248C19.7624 15.2699 19.7992 15.1598 19.9833 14.3151ZM22.0817 21.9169C22.7443 21.9169 23.1125 20.1909 23.1861 19.7869L23.2965 19.0525C23.4069 18.0977 23.407 17.8406 23.4438 16.9225C23.4438 16.0411 23.4069 15.4168 23.2965 14.3518C23.2229 13.6174 22.9284 12.1852 21.9344 12.1852C21.5663 12.1852 21.0509 13.6541 20.9773 13.9479C20.7564 14.5722 20.6459 15.4168 20.5723 16.0779C20.5723 16.0779 20.5355 16.4451 20.5355 16.5553C20.4987 17.3265 20.7196 21.8802 22.0817 21.9169Z" fill="white"/>
<path d="M27.4923 12.8096H27.4187C26.2038 12.9565 26.0934 13.2135 25.578 13.4339C25.3203 13.5441 25.2098 13.3972 25.2098 13.1034C25.2098 12.4791 26.756 12.0384 27.3082 11.9649C28.1917 11.8915 28.7072 12.4056 28.7072 13.287C28.6703 15.8944 27.0137 18.4283 26.2406 21.256L26.1302 21.66V21.7334L28.1181 21.6232H28.1918C28.744 21.6232 28.9649 22.3577 28.339 22.4312L25.4307 22.7249C25.0994 22.7249 25.0626 22.6515 25.0994 22.3577C25.0994 21.8436 29.0016 12.8463 27.4923 12.8096Z" fill="white"/>
</g>
<defs>
<clipPath id="clip0">
<rect width="45.9487" height="56" fill="white"/>
</clipPath>
</defs>
</svg>
