<svg width="46" height="40" viewBox="0 0 46 40" fill="none" xmlns="http://www.w3.org/2000/svg">
<path d="M0.603279 36.0062V37.1537H2.05246V37.698H0.603279V39.3963H0V35.4619H2.26885V36.0127H0.603279V36.0062Z" fill="white"/>
<path d="M3.6189 36.0064V37.1539H5.06808V37.6982H3.6189V38.8392H5.27136V39.39H3.01562V35.4556H5.27136V36.0064H3.6189Z" fill="white"/>
<path d="M6.125 35.4619H6.72828V39.3963H6.125V35.4619Z" fill="white"/>
<path d="M10.1189 36.0064H9.07629V39.39H8.47301V36.0064H7.42383V35.4556H10.1189V36.0064Z" fill="white"/>
<path d="M12.8919 38.5439H11.0296L10.7018 39.3963H10.0723L11.6329 35.4619H12.2821L13.8428 39.3963H13.2198L12.8919 38.5439ZM12.6887 38.0127L11.9608 36.1045L11.2329 38.0127H12.6887Z" fill="white"/>
<path d="M19.5802 35.4619V39.3963H19.0687L16.6031 36.3996V39.3963H16.0195V35.4619H16.5244L18.99 38.4455V35.4619H19.5802Z" fill="white"/>
<path d="M21.3966 39.1802C21.0818 39.0031 20.8392 38.7605 20.6556 38.4523C20.472 38.1441 20.3867 37.8031 20.3867 37.4293C20.3867 37.0556 20.4785 36.7146 20.6556 36.4064C20.8326 36.0982 21.0818 35.8556 21.3966 35.6785C21.7113 35.5015 22.0523 35.4097 22.4326 35.4097C22.8129 35.4097 23.1539 35.5015 23.4687 35.6785C23.7834 35.8556 24.0261 36.0982 24.2097 36.4064C24.3933 36.7146 24.4785 37.0556 24.4785 37.4293C24.4785 37.8031 24.3867 38.1441 24.2097 38.4523C24.0326 38.7605 23.7834 39.0031 23.4687 39.1802C23.1539 39.3572 22.8129 39.449 22.4326 39.449C22.0523 39.449 21.7048 39.3572 21.3966 39.1802ZM23.1605 38.6818C23.3834 38.5572 23.5539 38.3802 23.6851 38.1638C23.8162 37.9474 23.8752 37.6982 23.8752 37.4359C23.8752 37.1736 23.8097 36.9244 23.6851 36.708C23.5605 36.4916 23.3834 36.3146 23.1605 36.19C22.9375 36.0654 22.6949 35.9998 22.4326 35.9998C22.1703 35.9998 21.9277 36.0654 21.7047 36.19C21.4818 36.3146 21.3113 36.4916 21.1802 36.7146C21.049 36.9375 20.9834 37.1605 20.9834 37.4293C20.9834 37.6982 21.049 37.9343 21.1736 38.1572C21.2982 38.3802 21.4752 38.5507 21.6982 38.6818C21.9211 38.8129 22.1638 38.872 22.4261 38.872C22.6884 38.872 22.9375 38.8064 23.1605 38.6818Z" fill="white"/>
<path d="M29.3642 37.6982C29.4953 37.8621 29.5609 38.072 29.5609 38.3277C29.5609 38.5375 29.515 38.7211 29.4166 38.8851C29.3183 39.049 29.1871 39.1736 29.0101 39.2588C28.833 39.3441 28.6297 39.39 28.4002 39.39H26.7871V35.4556H28.0855C28.315 35.4556 28.5248 35.5015 28.7019 35.5867C28.8789 35.672 29.0232 35.7966 29.1215 35.9605C29.2199 36.1244 29.2724 36.308 29.2724 36.5179C29.2724 36.7146 29.233 36.8785 29.1543 37.0228C29.0756 37.167 28.9642 37.272 28.8133 37.3572C29.0494 37.4228 29.233 37.5343 29.3642 37.6982ZM28.551 36.1507C28.4461 36.0457 28.2887 35.9933 28.0789 35.9933H27.3838V37.1539H28.0789C28.2035 37.1539 28.3084 37.1277 28.4068 37.0752C28.5051 37.0228 28.5773 36.9572 28.6297 36.8654C28.6822 36.7736 28.7084 36.6752 28.7084 36.5638C28.7019 36.3933 28.6494 36.2556 28.551 36.1507ZM28.6756 38.7736C28.774 38.7211 28.8461 38.649 28.892 38.5638C28.9379 38.4785 28.9642 38.3736 28.9642 38.2621C28.9642 38.1506 28.9379 38.0523 28.8855 37.9605C28.833 37.8687 28.7543 37.7966 28.656 37.7441C28.5576 37.6916 28.4461 37.6654 28.315 37.6654H27.3707V38.8523H28.315C28.4658 38.8523 28.5773 38.8261 28.6756 38.7736Z" fill="white"/>
<path d="M31.7313 37.6914H30.9509V39.3963H30.3477V35.4619H31.8559C32.0854 35.4619 32.2886 35.5144 32.4722 35.6127C32.6559 35.7111 32.787 35.8488 32.8854 36.0258C32.9837 36.2029 33.0296 36.3865 33.0296 36.5963C33.0296 36.7603 32.9968 36.9111 32.9378 37.0488C32.8788 37.1865 32.787 37.3045 32.6821 37.4095C32.5772 37.5144 32.446 37.5865 32.2952 37.6324L33.3378 39.4029H32.6821L31.7313 37.6914ZM30.9509 37.1734H31.8034C31.9936 37.1734 32.1509 37.1209 32.2624 37.0226C32.3739 36.9242 32.4329 36.7799 32.4329 36.5963C32.4329 36.4783 32.4067 36.3734 32.3542 36.2816C32.3018 36.1898 32.2296 36.1177 32.1313 36.0718C32.0329 36.0258 31.928 35.9931 31.8034 35.9931H30.9509V37.1734Z" fill="white"/>
<path d="M36.4466 38.5439H34.5843L34.2565 39.3963H33.627L35.1876 35.4619H35.8368L37.3974 39.3963H36.7745L36.4466 38.5439ZM36.2433 38.0127L35.5155 36.1045L34.7876 38.0127H36.2433Z" fill="white"/>
<path d="M38.3483 39.2786C38.0991 39.1671 37.8892 39.0163 37.7188 38.8261L38.0991 38.3933C38.2302 38.5573 38.381 38.6884 38.5581 38.7802C38.7351 38.872 38.9187 38.9245 39.1089 38.9245C39.2401 38.9245 39.3515 38.9048 39.4499 38.8589C39.5483 38.813 39.6269 38.7474 39.686 38.6687C39.745 38.5901 39.7712 38.4851 39.7712 38.3737C39.7712 38.2491 39.7384 38.1442 39.6663 38.0589C39.5942 37.9737 39.5089 37.9015 39.404 37.8425C39.2991 37.7835 39.1483 37.7179 38.945 37.6327C38.7155 37.5343 38.5319 37.4425 38.3876 37.3573C38.2433 37.272 38.1253 37.1606 38.0335 37.0163C37.9417 36.872 37.8892 36.695 37.8892 36.4851C37.8892 36.2687 37.9417 36.0851 38.0401 35.9212C38.1384 35.7573 38.2827 35.6392 38.4532 35.554C38.6237 35.4688 38.8204 35.4229 39.0368 35.4229C39.2728 35.4229 39.4958 35.4688 39.7056 35.5606C39.9155 35.6524 40.0925 35.7835 40.2565 35.9474L39.9155 36.3606C39.7712 36.2163 39.6269 36.1114 39.4827 36.0458C39.3384 35.9802 39.1876 35.9474 39.0302 35.9474C38.9253 35.9474 38.8335 35.9671 38.7483 36.0065C38.663 36.0458 38.5974 36.0983 38.545 36.1704C38.4925 36.2425 38.4663 36.3278 38.4663 36.4327C38.4663 36.5507 38.4991 36.6491 38.5647 36.7278C38.6302 36.8065 38.7155 36.872 38.8138 36.931C38.9122 36.9901 39.0565 37.0491 39.2466 37.1278L39.2991 37.154C39.5155 37.2458 39.6991 37.3376 39.8433 37.4294C39.9876 37.5212 40.1122 37.6392 40.2106 37.7901C40.3089 37.9409 40.3548 38.131 40.3548 38.354C40.3548 38.5901 40.3024 38.7933 40.1909 38.9573C40.0794 39.1212 39.9286 39.2524 39.7384 39.3376C39.5483 39.4229 39.3384 39.4688 39.1089 39.4688C38.8597 39.4491 38.5974 39.3901 38.3483 39.2786Z" fill="white"/>
<path d="M41.1602 35.4619H41.7634V39.3963H41.1602V35.4619Z" fill="white"/>
<path d="M44.8398 38.8455V39.3963H42.8398V35.4619H43.4431V38.8455H44.8398Z" fill="white"/>
<path d="M37.3171 6.39372C36.2023 1.36421 30.222 -1.91448 25.5007 1.24618C24.34 2.01995 23.304 2.97077 22.2023 3.8429C22.1105 3.76421 22.0187 3.68552 21.9269 3.60683C20.9171 2.22323 19.481 1.16749 17.8089 0.629783C15.3761 -0.419398 12.7991 -0.13743 10.5171 1.43634C7.71709 3.37077 6.37283 6.77404 7.18594 10.0003C7.27119 10.3347 7.36955 10.6626 7.48103 10.9839C7.5466 11.1806 7.61217 11.3708 7.69086 11.5609C8.35971 13.2658 9.34332 14.8199 10.4318 16.3085C13.3105 20.256 16.8056 23.6265 20.4712 26.8265C21.6646 27.8691 22.7991 27.8888 23.9794 26.8331C25.3958 25.5609 26.8122 24.2888 28.1695 22.9445C31.1204 20.0265 33.9073 16.9642 35.9204 13.2921C37.1007 11.1413 37.8745 8.89863 37.3171 6.39372ZM32.5171 14.3347C29.2777 16.2888 26.0384 18.2495 22.7859 20.1839C22.5761 20.3085 22.1892 20.3609 22.0056 20.2495C18.6417 18.2495 15.2909 16.2232 11.94 14.2036C11.8548 14.1511 11.7827 14.079 11.6515 13.9806C11.8548 13.8429 11.9991 13.7314 12.163 13.6331C15.4023 11.679 18.6417 9.71831 21.8941 7.78388C22.104 7.65929 22.4909 7.60683 22.6745 7.71831C26.0384 9.71831 29.3892 11.7445 32.74 13.7708C32.8253 13.8232 32.8974 13.8954 33.0286 13.9937C32.8253 14.1249 32.6745 14.2363 32.5171 14.3347Z" fill="white"/>
<path d="M20.7329 12.8525C20.0312 12.8066 19.3558 12.8722 18.6279 13.1148C18.2476 13.2394 18.0771 13.4033 18.064 13.823C18.0115 15.8033 19.3361 17.6132 21.2312 18.105C23.1919 18.6165 25.205 17.7115 26.1427 15.9214C26.3394 15.541 26.3394 15.2919 26.0115 14.9771C24.5493 13.5673 22.8509 13.0951 20.7329 12.8525Z" fill="white"/>
<path d="M22.9367 9.75088C21.0744 9.4558 18.9498 10.6689 18.5039 12.341C21.5465 11.5935 24.2154 12.2624 26.5629 14.4525C26.7334 12.0328 25.2055 10.1115 22.9367 9.75088Z" fill="white"/>
</svg>
