<svg width="40" height="56" viewBox="0 0 40 56" fill="none" xmlns="http://www.w3.org/2000/svg">
<g clip-path="url(#clip0)">
<path d="M11.1528 35.4502V38.9852H10.6049V36.2927L9.45016 38.9852H9.18504L8.03617 36.2868V38.9852H7.49414V35.4502H8.18346L9.32055 38.0896L10.4635 35.4502H11.1528Z" fill="white"/>
<path d="M14.2814 38.2251H12.6082L12.3136 38.991H11.748L13.1503 35.4561H13.7335L15.1357 38.991H14.576L14.2814 38.2251ZM14.0988 37.742L13.4448 36.0275L12.7909 37.742H14.0988Z" fill="white"/>
<path d="M17.5211 35.9451H16.5843V38.9852H16.0423V35.9451H15.0996V35.4502H17.5211V35.9451Z" fill="white"/>
<path d="M18.6885 35.9451V36.9761H19.9906V37.4651H18.6885V38.4903H20.1732V38.9852H18.1465V35.4502H20.1732V35.9451H18.6885Z" fill="white"/>
<path d="M22.1767 37.4592H21.4815V38.991H20.9395V35.4561H22.2945C22.5007 35.4561 22.6834 35.5032 22.8483 35.5916C23.0133 35.6799 23.1311 35.8037 23.2195 35.9627C23.3079 36.1218 23.3491 36.2868 23.3491 36.4753C23.3491 36.6226 23.3197 36.7581 23.2666 36.8818C23.2136 37.0056 23.1311 37.1116 23.0369 37.2059C22.9426 37.3001 22.8248 37.3649 22.6893 37.4062L23.626 38.9969H23.0369L22.1767 37.4592ZM21.4815 36.9938H22.2474C22.4183 36.9938 22.5597 36.9466 22.6598 36.8583C22.76 36.7699 22.813 36.6403 22.813 36.4753C22.813 36.3693 22.7894 36.275 22.7423 36.1925C22.6952 36.11 22.6303 36.0452 22.542 36.004C22.4536 35.9627 22.3593 35.9333 22.2474 35.9333H21.4815V36.9938Z" fill="white"/>
<path d="M24.2324 35.4502H24.7745V38.9852H24.2324V35.4502Z" fill="white"/>
<path d="M27.9084 38.2251H26.2352L25.9406 38.991H25.375L26.7772 35.4561H27.3605L28.7627 38.991H28.203L27.9084 38.2251ZM27.7258 37.742L27.0718 36.0275L26.4178 37.742H27.7258Z" fill="white"/>
<path d="M31.1661 38.4961V38.991H29.3691V35.4561H29.9112V38.4961H31.1661Z" fill="white"/>
<path d="M6.64548 43.115H5.95027V44.6468H5.40234V41.1118H6.75742C6.96363 41.1118 7.14627 41.159 7.31123 41.2473C7.4762 41.3357 7.59403 41.4594 7.68241 41.6185C7.77078 41.7776 7.81202 41.9425 7.81202 42.1311C7.81202 42.2784 7.78256 42.4139 7.72954 42.5376C7.67651 42.6613 7.59403 42.7674 7.49977 42.8616C7.4055 42.9559 7.28767 43.0207 7.15216 43.0619L8.08893 44.6527H7.49977L6.64548 43.115ZM5.95027 42.6495H6.71618C6.88704 42.6495 7.02844 42.6024 7.12859 42.514C7.22875 42.4257 7.28178 42.296 7.28178 42.1311C7.28178 42.025 7.25821 41.9308 7.21108 41.8483C7.16394 41.7658 7.09913 41.701 7.01076 41.6597C6.92239 41.6185 6.82812 41.589 6.71618 41.589H5.95027V42.6495Z" fill="white"/>
<path d="M9.2432 41.6009V42.6319H10.5453V43.1209H9.2432V44.146H10.7279V44.6409H8.70117V41.106H10.7279V41.6009H9.2432Z" fill="white"/>
<path d="M12.0186 44.4526C11.7358 44.2936 11.5179 44.0756 11.3529 43.7987C11.1879 43.5218 11.1113 43.2154 11.1113 42.8796C11.1113 42.5437 11.1938 42.2374 11.3529 41.9605C11.512 41.6836 11.7358 41.4656 12.0186 41.3065C12.3014 41.1474 12.6078 41.0649 12.9495 41.0649C13.1911 41.0649 13.4326 41.1121 13.6683 41.2122C13.904 41.3124 14.1043 41.442 14.2692 41.607L13.8804 41.9781C13.7626 41.8544 13.6212 41.7602 13.4621 41.6895C13.303 41.6188 13.1263 41.5834 12.9495 41.5834C12.708 41.5834 12.49 41.6423 12.2955 41.7543C12.1011 41.8662 11.942 42.0253 11.8242 42.2197C11.7064 42.4141 11.6534 42.638 11.6534 42.8737C11.6534 43.1093 11.7123 43.3332 11.8242 43.5276C11.9362 43.7221 12.0952 43.8811 12.2955 43.9931C12.4959 44.105 12.7139 44.1639 12.9495 44.1639C13.1263 44.1639 13.2971 44.1286 13.4621 44.0579C13.6271 43.9872 13.7626 43.8929 13.8804 43.7692L14.2692 44.1404C14.1043 44.3053 13.904 44.4408 13.6683 44.5351C13.4326 44.6294 13.197 44.6824 12.9495 44.6824C12.6078 44.6883 12.3014 44.6117 12.0186 44.4526Z" fill="white"/>
<path d="M14.9062 41.106H15.4483V44.6409H14.9062V41.106Z" fill="white"/>
<path d="M17.0792 44.4526C16.7964 44.2936 16.5784 44.0756 16.4134 43.7987C16.2485 43.5218 16.1719 43.2154 16.1719 42.8796C16.1719 42.5437 16.2544 42.2374 16.4134 41.9605C16.5725 41.6836 16.7964 41.4656 17.0792 41.3065C17.362 41.1474 17.6683 41.0649 18.0101 41.0649C18.2516 41.0649 18.4932 41.1121 18.7288 41.2122C18.9645 41.3124 19.1648 41.442 19.3298 41.607L18.9409 41.9781C18.8231 41.8544 18.6817 41.7602 18.5226 41.6895C18.3636 41.6188 18.1868 41.5834 18.0101 41.5834C17.7685 41.5834 17.5505 41.6423 17.3561 41.7543C17.1617 41.8662 17.0026 42.0253 16.8848 42.2197C16.7669 42.4141 16.7139 42.638 16.7139 42.8737C16.7139 43.1093 16.7728 43.3332 16.8848 43.5276C16.9967 43.7221 17.1558 43.8811 17.3561 43.9931C17.5564 44.105 17.7744 44.1639 18.0101 44.1639C18.1868 44.1639 18.3577 44.1286 18.5226 44.0579C18.6876 43.9872 18.8231 43.8929 18.9409 43.7692L19.3298 44.1404C19.1648 44.3053 18.9645 44.4408 18.7288 44.5351C18.4932 44.6353 18.2575 44.6824 18.0101 44.6824C17.6683 44.6883 17.362 44.6117 17.0792 44.4526Z" fill="white"/>
<path d="M21.7637 44.1519V44.6468H19.9668V41.1118H20.5088V44.1519H21.7637Z" fill="white"/>
<path d="M24.592 43.8809H22.9188L22.6242 44.6468H22.0586L23.4608 41.1118H24.0441L25.4463 44.6468H24.8866L24.592 43.8809ZM24.4152 43.3978L23.7613 41.6833L23.1073 43.3978H24.4152Z" fill="white"/>
<path d="M26.0527 41.106H27.1957C27.5728 41.106 27.8909 41.1767 28.1619 41.3239C28.433 41.4712 28.6333 41.6716 28.7688 41.9367C28.9043 42.2018 28.975 42.5141 28.975 42.8734C28.975 43.2328 28.9043 43.5451 28.7688 43.8102C28.6333 44.0753 28.4271 44.2816 28.1619 44.423C27.8968 44.5643 27.5728 44.6409 27.1957 44.6409H26.0527V41.106ZM27.1721 44.1519C27.5846 44.1519 27.8909 44.04 28.103 43.822C28.3151 43.604 28.4153 43.2859 28.4153 42.8734C28.4153 42.461 28.3092 42.1429 28.103 41.9249C27.8968 41.7069 27.5846 41.595 27.1721 41.595H26.5889V44.146H27.1721V44.1519Z" fill="white"/>
<path d="M30.3819 44.4468C30.0991 44.2877 29.8811 44.0697 29.7162 43.7928C29.5512 43.5159 29.4746 43.2095 29.4746 42.8737C29.4746 42.5379 29.5571 42.2315 29.7162 41.9546C29.8752 41.6777 30.0991 41.4597 30.3819 41.3006C30.6647 41.1416 30.9711 41.0591 31.3128 41.0591C31.6545 41.0591 31.9609 41.1416 32.2437 41.3006C32.5265 41.4597 32.7445 41.6777 32.9094 41.9546C33.0744 42.2315 33.151 42.5379 33.151 42.8737C33.151 43.2095 33.0685 43.5159 32.9094 43.7928C32.7504 44.0697 32.5265 44.2877 32.2437 44.4468C31.9609 44.6058 31.6545 44.6883 31.3128 44.6883C30.9711 44.6883 30.6588 44.6117 30.3819 44.4468ZM31.9668 43.999C32.1671 43.8871 32.3203 43.728 32.4381 43.5336C32.5559 43.3391 32.609 43.1153 32.609 42.8796C32.609 42.6439 32.55 42.42 32.4381 42.2256C32.3262 42.0312 32.1671 41.8721 31.9668 41.7602C31.7665 41.6482 31.5485 41.5893 31.3128 41.5893C31.0771 41.5893 30.8591 41.6482 30.6588 41.7602C30.4585 41.8721 30.3053 42.0312 30.1875 42.2315C30.0697 42.4318 30.0166 42.6498 30.0166 42.8855C30.0166 43.1212 30.0756 43.3391 30.1875 43.5395C30.2994 43.7398 30.4585 43.893 30.6588 44.0108C30.8591 44.1286 31.0771 44.1816 31.3128 44.1816C31.5485 44.1816 31.7665 44.1168 31.9668 43.999Z" fill="white"/>
<path d="M12.2486 48.5294C12.2486 48.8653 12.1662 49.1716 12.0071 49.4485C11.848 49.7254 11.6241 49.9434 11.3413 50.1084C11.0585 50.2734 10.7522 50.3499 10.4105 50.3499C10.0687 50.3499 9.76238 50.2675 9.47958 50.1084C9.19678 49.9493 8.97879 49.7313 8.81382 49.4544C8.64886 49.1775 8.57227 48.8711 8.57227 48.5353C8.57227 48.1995 8.65475 47.8931 8.81382 47.6162C8.9729 47.3393 9.19678 47.1213 9.47958 46.9623C9.76238 46.8032 10.0687 46.7207 10.4105 46.7207C10.7286 46.7207 11.0291 46.7914 11.3001 46.9387C11.5711 47.086 11.7891 47.2804 11.9541 47.5337L11.4827 47.7989C11.3649 47.628 11.2117 47.4925 11.0232 47.3923C10.8347 47.2922 10.6284 47.2451 10.4105 47.2451C10.1748 47.2451 9.9568 47.304 9.75648 47.4159C9.55617 47.5279 9.40299 47.6869 9.28515 47.8872C9.16732 48.0876 9.1143 48.3056 9.1143 48.5471C9.1143 48.7828 9.16732 49.0008 9.28515 49.1952C9.40299 49.3896 9.55028 49.5487 9.75059 49.6606C9.95091 49.7726 10.1689 49.8315 10.4163 49.8315C10.6226 49.8315 10.817 49.7902 10.9937 49.7078C11.1705 49.6253 11.3119 49.5133 11.4297 49.366C11.5475 49.2188 11.63 49.0479 11.6713 48.8594H10.7168V48.388H12.2428C12.2428 48.4234 12.2486 48.4764 12.2486 48.5294Z" fill="white"/>
<path d="M13.462 47.2571V48.2881H14.764V48.7771H13.462V49.8023H14.9466V50.2972H12.9199V46.7622H14.9466V47.2571H13.462Z" fill="white"/>
<path d="M16.9501 48.7712H16.2549V50.3031H15.7129V46.7681H17.068C17.2742 46.7681 17.4568 46.8152 17.6218 46.9036C17.7867 46.992 17.9046 47.1157 17.993 47.2747C18.0813 47.4338 18.1226 47.5988 18.1226 47.7873C18.1226 47.9346 18.0931 48.0701 18.0401 48.1938C17.9871 48.3176 17.9046 48.4236 17.8103 48.5179C17.716 48.6122 17.5982 48.677 17.4627 48.7182L18.3995 50.3089H17.8103L16.9501 48.7712ZM16.2549 48.3058H17.0208C17.1917 48.3058 17.3331 48.2587 17.4332 48.1703C17.5334 48.0819 17.5864 47.9523 17.5864 47.7873C17.5864 47.6813 17.5629 47.587 17.5157 47.5045C17.4686 47.422 17.4038 47.3572 17.3154 47.316C17.227 47.2747 17.1328 47.2453 17.0208 47.2453H16.2549V48.3058Z" fill="white"/>
<path d="M21.1916 49.5371H19.5184L19.2238 50.303H18.6582L20.0604 46.7681H20.6437L22.0459 50.303H21.4862L21.1916 49.5371ZM21.009 49.0599L20.355 47.3454L19.701 49.0599H21.009Z" fill="white"/>
<path d="M22.6465 46.7622H23.7895C24.1665 46.7622 24.4847 46.8329 24.7557 46.9802C25.0267 47.1275 25.227 47.3278 25.3625 47.5929C25.498 47.858 25.5687 48.1703 25.5687 48.5297C25.5687 48.8891 25.498 49.2013 25.3625 49.4665C25.227 49.7316 25.0208 49.9378 24.7557 50.0792C24.4906 50.2206 24.1665 50.2972 23.7895 50.2972H22.6465V46.7622ZM23.7659 49.8082C24.1783 49.8082 24.4847 49.6962 24.6968 49.4783C24.9089 49.2603 25.009 48.9421 25.009 48.5297C25.009 48.1173 24.903 47.7991 24.6968 47.5811C24.4906 47.3632 24.1783 47.2512 23.7659 47.2512H23.1826V49.8023H23.7659V49.8082Z" fill="white"/>
<path d="M26.9776 50.1025C26.6948 49.9435 26.4768 49.7255 26.3119 49.4486C26.1469 49.1717 26.0703 48.8653 26.0703 48.5295C26.0703 48.1936 26.1528 47.8873 26.3119 47.6104C26.4709 47.3335 26.6948 47.1155 26.9776 46.9564C27.2604 46.7973 27.5668 46.7148 27.9085 46.7148C28.2502 46.7148 28.5566 46.7973 28.8394 46.9564C29.1222 47.1155 29.3402 47.3335 29.5051 47.6104C29.6701 47.8873 29.7467 48.1936 29.7467 48.5295C29.7467 48.8653 29.6642 49.1717 29.5051 49.4486C29.3461 49.7255 29.1222 49.9435 28.8394 50.1025C28.5566 50.2616 28.2502 50.3441 27.9085 50.3441C27.5668 50.3441 27.2604 50.2675 26.9776 50.1025ZM28.5625 49.6548C28.7628 49.5428 28.916 49.3838 29.0338 49.1893C29.1516 48.9949 29.2047 48.771 29.2047 48.5354C29.2047 48.2997 29.1457 48.0758 29.0338 47.8814C28.9219 47.687 28.7628 47.5279 28.5625 47.4159C28.3622 47.304 28.1442 47.2451 27.9085 47.2451C27.6728 47.2451 27.4548 47.304 27.2545 47.4159C27.0542 47.5279 26.901 47.687 26.7832 47.8873C26.6654 48.0876 26.6123 48.3056 26.6123 48.5412C26.6123 48.7769 26.6713 48.9949 26.7832 49.1952C26.8951 49.3955 27.0542 49.5487 27.2545 49.6666C27.4548 49.7844 27.6728 49.8374 27.9085 49.8374C28.1442 49.8374 28.3622 49.7726 28.5625 49.6548Z" fill="white"/>
<path d="M8.25971 52.418V55.953H7.80016L5.5849 53.2605V55.953H5.06055V52.418H5.5142L7.72946 55.0987V52.418H8.25971Z" fill="white"/>
<path d="M11.3889 55.1929H9.71565L9.42107 55.9588H8.85547L10.2577 52.4238H10.841L12.2432 55.9588H11.6835L11.3889 55.1929ZM11.2121 54.7098L10.5582 52.9953L9.90418 54.7098H11.2121Z" fill="white"/>
<path d="M14.7471 52.9128V53.9439H16.0492V54.4329H14.7471V55.9588H14.1992V52.4238H16.2377V52.9187H14.7471V52.9128Z" fill="white"/>
<path d="M18.9357 55.1933H17.2625L16.9679 55.9592H16.4023L17.8046 52.4242H18.3878L19.79 55.9592H19.2303L18.9357 55.1933ZM18.7531 54.7101L18.0991 52.9957L17.4452 54.7101H18.7531ZM18.4998 52.0766L19.1066 51.2871L19.3894 51.4992L18.8592 52.0766H18.4998Z" fill="white"/>
<path d="M22.706 54.4329C22.8239 54.5802 22.8828 54.7687 22.8828 54.9985C22.8828 55.187 22.8415 55.352 22.7532 55.4993C22.6648 55.6466 22.547 55.7585 22.3879 55.8351C22.2288 55.9117 22.0462 55.953 21.84 55.953H20.3906V52.418H21.5572C21.7634 52.418 21.9519 52.4592 22.111 52.5358C22.2701 52.6124 22.3997 52.7243 22.488 52.8716C22.5764 53.0189 22.6236 53.1839 22.6236 53.3724C22.6236 53.5492 22.5882 53.6965 22.5175 53.8261C22.4468 53.9557 22.3466 54.05 22.2111 54.1265C22.4232 54.1855 22.5882 54.2856 22.706 54.4329ZM21.9755 53.0366C21.8812 52.9423 21.7398 52.8952 21.5513 52.8952H20.9268V53.938H21.5513C21.6632 53.938 21.7575 53.9144 21.8459 53.8673C21.9342 53.8202 21.999 53.7613 22.0462 53.6788C22.0933 53.5963 22.1169 53.5079 22.1169 53.4078C22.111 53.2605 22.0638 53.1309 21.9755 53.0366ZM22.0874 55.3991C22.1758 55.352 22.2406 55.2872 22.2818 55.2106C22.3231 55.134 22.3466 55.0397 22.3466 54.9396C22.3466 54.8394 22.3231 54.7511 22.2759 54.6686C22.2288 54.5861 22.1581 54.5213 22.0697 54.4742C21.9814 54.427 21.8812 54.4034 21.7634 54.4034H20.915V55.4698H21.7634C21.8989 55.4698 22.0049 55.4463 22.0874 55.3991Z" fill="white"/>
<path d="M24.8329 54.427H24.1377V55.9588H23.5957V52.4238H24.9508C25.157 52.4238 25.3396 52.471 25.5046 52.5593C25.6696 52.6477 25.7874 52.7714 25.8758 52.9305C25.9641 53.0896 26.0054 53.2545 26.0054 53.4431C26.0054 53.5904 25.9759 53.7259 25.9229 53.8496C25.8699 53.9733 25.7874 54.0794 25.6931 54.1736C25.5989 54.2679 25.481 54.3327 25.3455 54.374L26.2823 55.9647H25.6931L24.8329 54.427ZM24.1318 53.9615H24.8978C25.0686 53.9615 25.21 53.9144 25.3102 53.826C25.4103 53.7377 25.4634 53.608 25.4634 53.4431C25.4634 53.337 25.4398 53.2428 25.3927 53.1603C25.3455 53.0778 25.2807 53.013 25.1923 52.9717C25.104 52.9305 25.0097 52.901 24.8978 52.901H24.1318V53.9615Z" fill="white"/>
<path d="M26.8887 52.418H27.4307V55.953H26.8887V52.418Z" fill="white"/>
<path d="M29.0636 55.7646C28.7808 55.6056 28.5628 55.3876 28.3978 55.1107C28.2328 54.8338 28.1562 54.5274 28.1562 54.1916C28.1562 53.8558 28.2387 53.5494 28.3978 53.2725C28.5569 52.9956 28.7808 52.7776 29.0636 52.6185C29.3464 52.4594 29.6527 52.377 29.9944 52.377C30.236 52.377 30.4776 52.4241 30.7132 52.5242C30.9489 52.6244 31.1492 52.754 31.3142 52.919L30.9253 53.2902C30.8075 53.1664 30.6661 53.0722 30.507 53.0015C30.3479 52.9308 30.1712 52.8954 29.9944 52.8954C29.7529 52.8954 29.5349 52.9543 29.3405 53.0663C29.146 53.1782 28.987 53.3373 28.8691 53.5317C28.7513 53.7261 28.6983 53.95 28.6983 54.1857C28.6983 54.4213 28.7572 54.6452 28.8691 54.8397C28.9811 55.0341 29.1402 55.1931 29.3405 55.3051C29.5408 55.417 29.7588 55.4759 29.9944 55.4759C30.1712 55.4759 30.342 55.4406 30.507 55.3699C30.672 55.2992 30.8075 55.2049 30.9253 55.0812L31.3142 55.4524C31.1492 55.6173 30.9489 55.7529 30.7132 55.8471C30.4776 55.9414 30.2419 55.9944 29.9944 55.9944C29.6527 56.0003 29.3464 55.9237 29.0636 55.7646Z" fill="white"/>
<path d="M34.1115 55.1929H32.4383L32.1437 55.9588H31.5781L32.9803 52.4238H33.5636L34.9658 55.9588H34.4061L34.1115 55.1929ZM33.9348 54.7098L33.2808 52.9953L32.6268 54.7098H33.9348Z" fill="white"/>
<path d="M31.2149 17.9463C31.2149 17.9816 31.209 18.0111 31.209 18.0464C31.2267 18.0052 31.2443 17.9522 31.2149 17.9463Z" fill="white"/>
<path d="M36.8588 17.9815L35.4801 18.388C35.0854 18.4292 34.6965 18.4764 34.3018 18.5058C33.4121 18.5706 32.5225 18.6472 31.627 18.6649C31.3677 18.6708 31.2263 18.5824 31.191 18.3232C31.1792 18.2348 31.1969 18.1465 31.2028 18.0463C31.1969 18.0522 31.1969 18.064 31.191 18.0699L31.2087 17.9461C31.191 17.6574 31.1733 17.6692 31.1851 17.5632C31.2617 16.7796 31.3736 16.0078 31.7212 15.289C31.9039 14.9178 32.1749 14.6468 32.5402 14.4406C32.9467 14.2108 33.4004 14.1225 33.8304 13.9693C34.4667 13.7336 35.1266 13.5569 35.757 13.2859C36.3285 13.0443 36.4581 12.8499 36.411 12.2254C36.3815 11.8365 36.3756 11.4418 36.3639 11.0529C36.3462 10.2929 36.3462 10.1633 35.4624 10.2458C34.1604 10.3636 32.8937 10.6523 31.6564 11.0824C30.6195 11.4418 29.5649 11.754 28.4396 11.6362C27.1317 11.5007 25.9239 11.0588 24.775 10.4402C24.451 10.2634 24.1505 10.0985 23.7734 10.122L22.6894 9.95708C21.9117 9.48575 21.134 9.00852 20.3504 8.54308L19.2015 7.64756C18.8127 7.37065 18.6065 7.41189 18.2883 7.76539C17.9702 8.12478 17.7168 8.54308 17.3692 8.85534C16.9686 9.22062 16.7742 9.65071 16.6858 10.1574C16.6445 10.3872 16.5385 10.5698 16.3323 10.6935C16.1143 10.8231 15.9081 10.9763 15.696 11.1177C14.7828 11.701 13.8814 12.3137 12.8386 12.6496C12.3024 12.8263 11.8075 13.0855 11.3067 13.3448C11.077 13.4626 10.9591 13.7218 10.6881 13.7807C10.258 13.8691 9.89273 14.1225 9.4921 14.2756C9.20341 14.3876 8.99131 14.6409 8.68495 14.6998C8.04865 14.8236 7.43592 15.018 6.84676 15.2949C6.78195 15.3244 6.69947 15.3244 6.62288 15.3302C6.16922 15.3774 5.70967 15.4068 5.26191 15.507C4.94965 15.5777 4.63739 15.7309 4.31335 15.672C3.88916 15.5954 3.48263 15.6661 3.07022 15.7132C2.94649 15.725 2.82866 15.7073 2.69905 15.778C2.42803 15.9312 2.15112 16.0785 1.85654 16.1845C1.179 16.432 0.636974 16.8208 0.395417 17.5455C0.242234 17.9992 0.212776 18.4646 0.212776 18.93C0.212776 19.095 0.218668 19.2482 0.0831599 19.3778C0.000676968 19.4485 -0.00521467 19.5781 0.00656861 19.7018C0.0419184 20.1614 0.0890515 20.615 0.106726 21.0746C0.112618 21.269 0.200993 21.3927 0.348283 21.4929C0.607515 21.6696 0.902097 21.7462 1.19668 21.8405C1.8153 22.0467 2.46927 22.0644 3.09968 22.2117C3.97753 22.4179 4.88484 22.4768 5.78037 22.5829C6.74071 22.6948 7.70694 22.7478 8.67906 22.736C9.41551 22.7243 10.152 22.7832 10.8943 22.7714C12.5027 22.7478 14.1053 22.6712 15.7078 22.4827C17.1866 22.3118 18.6595 22.0821 20.1324 21.8759C21.1752 21.7286 22.2063 21.487 23.2667 21.4399C23.744 21.4163 24.2094 21.3161 24.6925 21.3338C25.1933 21.3515 25.6116 21.5047 25.8591 21.9701C25.9415 22.1233 26.0594 22.1587 26.2185 22.1587C26.625 22.1528 27.0374 22.1292 27.4439 22.1233C28.8402 22.0997 30.2366 22.0703 31.6329 22.0349C32.7994 22.0055 33.966 21.9701 35.1266 21.923C35.6745 21.8994 36.2342 21.8817 36.7763 21.758C37.171 21.6638 37.2064 21.6284 37.2122 21.2278C37.2181 20.3087 37.2181 19.3896 37.2771 18.4705C37.2947 18.1111 37.2299 18.0345 36.8588 17.9815ZM8.30788 19.2659C8.27253 19.2659 8.23718 19.2659 8.17238 19.2659C7.95439 19.3425 7.86601 19.2069 7.79531 18.989C7.53608 18.2348 7.25917 17.4866 6.99405 16.7325C6.95281 16.6205 6.84087 16.485 7.03529 16.4143C7.20615 16.3554 7.40057 16.2611 7.5243 16.5027C7.65391 16.7501 7.81888 16.9799 7.90725 17.2509C8.08989 17.8165 8.31967 18.3644 8.54355 18.9183C8.66727 19.2364 8.6496 19.2659 8.30788 19.2659ZM12.5263 19.0597C12.4674 19.1775 12.326 19.1186 12.2258 19.1304C12.1846 19.1362 12.1433 19.1304 12.055 19.1304C11.7663 19.2128 11.5895 19.042 11.4363 18.7592C10.9179 17.793 10.2934 16.8856 9.62172 16.0196C9.59815 15.9842 9.56869 15.9548 9.55102 15.9135C9.50389 15.8134 9.3507 15.7191 9.4921 15.6072C9.61583 15.5129 9.76901 15.4363 9.93398 15.5718C10.0989 15.7073 10.2639 15.8369 10.3935 16.0078C11.0887 16.9092 11.7545 17.8342 12.4026 18.7651C12.4615 18.8593 12.5793 18.9418 12.5263 19.0597ZM16.3853 18.877C16.2439 18.8829 16.1025 18.9183 15.9552 18.9418C15.802 18.9536 15.6901 18.8947 15.6076 18.7651C15.3189 18.3055 14.9301 17.9108 14.6119 17.4748C14.1877 16.8974 13.7812 16.3142 13.2451 15.8369C12.7561 15.4068 12.3378 14.8943 11.7604 14.5584C11.7015 14.5231 11.6072 14.4701 11.672 14.3817C11.7427 14.2815 11.8546 14.258 11.9666 14.3228C12.3142 14.5172 12.6736 14.694 13.0153 14.9002C13.8401 15.3892 14.4116 16.1492 15.0361 16.8503C15.3896 17.245 15.7549 17.6221 16.079 18.0345C16.238 18.2348 16.3735 18.4469 16.4914 18.6767C16.5621 18.8063 16.5444 18.8711 16.3853 18.877ZM24.3508 15.996C24.0032 16.6618 23.6615 17.3275 23.2844 17.9756C23.1902 18.1347 23.0782 18.2171 22.9074 18.2348C22.1238 18.3232 21.3343 18.4116 20.5507 18.4941C20.3857 18.5117 20.2738 18.4469 20.1619 18.3114C19.4843 17.4453 18.7714 16.6205 17.9289 15.9076C17.0746 15.1888 16.2145 14.4819 15.2718 13.8868C14.8122 13.5981 14.3409 13.3212 13.8283 13.1268C13.7576 13.1032 13.6516 13.0973 13.6398 13.0148C13.628 12.9324 13.7282 12.897 13.7871 12.8617C14.1288 12.6554 14.4588 12.4316 14.8358 12.2843C15.9788 11.8306 17.0629 11.2591 18.0821 10.5698C18.2412 10.4638 18.3649 10.4343 18.5417 10.5462C19.3901 11.0883 20.3033 11.5066 21.2047 11.9543C21.3814 12.0427 21.5641 12.1134 21.5641 12.3609C21.5641 12.4551 21.6465 12.5258 21.729 12.573C22.3535 12.9382 22.9545 13.3683 23.6144 13.6335C24.1741 13.8573 24.3744 14.2874 24.5924 14.7529C24.6395 14.853 24.6454 14.965 24.6454 15.0887C24.6631 15.4245 24.504 15.7132 24.3508 15.996Z" fill="white"/>
<path d="M4.2428 17.292C4.24869 17.8753 4.35474 18.4409 4.47846 19.0006C4.5256 19.2068 5.0146 19.3717 5.18546 19.248C5.23259 19.2127 5.21492 19.1714 5.20313 19.1302C5.03228 18.4173 4.96747 17.6926 4.83196 16.9739C4.8025 16.8207 4.7318 16.7264 4.55505 16.7559C4.39598 16.7853 4.22512 16.7971 4.2369 17.0328C4.24869 17.1211 4.2428 17.2036 4.2428 17.292Z" fill="white"/>
<path d="M23.6674 6.4338C23.8619 6.4338 23.962 6.62822 24.1682 6.62822C25.105 6.62822 25.3466 5.36152 25.2346 4.68398C24.9813 3.09324 23.8147 3.1227 23.8147 2.78099C23.8147 2.75153 23.8206 2.73385 23.8324 2.71029C23.9561 2.4157 24.9224 1.79708 24.9165 1.04295C24.9165 0.683563 24.5571 0.559839 24.2507 0.559839C24.0386 0.559839 23.7971 0.630538 23.7617 0.630538C23.638 0.630538 23.4553 0.406656 23.4553 0.288824C23.4553 0.0649414 23.8383 0.0649414 24.0268 0.0649414H24.0622C24.722 0.0649414 25.4585 0.300607 25.4585 1.0783C25.4585 1.66157 24.9636 2.35679 24.451 2.71029C24.9872 3.04022 25.6352 3.67062 25.7708 4.70166C25.7825 4.79003 25.7884 4.89019 25.7884 4.99035C25.7884 5.92712 25.2228 7.09366 24.1682 7.09956C23.8913 7.09956 23.4082 7.01118 23.4082 6.6459C23.42 6.51628 23.5319 6.4338 23.6674 6.4338Z" fill="white"/>
<path d="M26.7838 1.80876L26.8015 1.72038C26.9252 1.06641 27.208 2.60191e-05 27.9327 2.60191e-05C29.0698 -0.00586562 29.2878 0.989821 29.388 1.94427C29.4233 2.30366 29.5058 3.28756 29.5058 3.34647C29.5058 3.46431 29.4292 4.78403 29.3938 5.22591C29.3349 5.96236 29.0345 7.00518 28.1566 7.01107C27.538 7.01107 27.1904 6.35121 27.0431 5.82685C26.7544 4.8076 26.6719 4.05936 26.666 3.01065C26.6719 2.42738 26.6896 2.3449 26.7838 1.80876ZM28.1919 6.59277C28.6103 6.59277 28.8224 5.49692 28.8695 5.2318L28.9225 4.76636C28.9932 4.15952 28.9814 3.98866 28.9814 3.40539C28.9814 2.85158 28.9402 2.45684 28.8518 1.76752C28.7988 1.31386 28.6044 0.406549 27.974 0.412441C27.7324 0.412441 27.4378 1.3551 27.3848 1.54363C27.2611 1.94427 27.1904 2.46273 27.155 2.89282C27.155 2.9046 27.1491 3.1167 27.1491 3.19918C27.1491 3.71176 27.3318 6.59277 28.1919 6.59277Z" fill="white"/>
<path d="M33.37 2.96368C33.6941 1.90319 33.37 1.14906 32.5923 0.907499C31.8559 0.683616 31.0605 1.1196 30.7188 2.22723C30.383 3.34664 30.8072 4.08898 31.5024 4.30108C32.2153 4.53086 33.0106 4.13612 33.37 2.96368ZM31.6556 3.85921C31.1842 3.71192 31.0841 3.0933 31.3197 2.39219C31.5377 1.69109 31.956 1.21386 32.4274 1.35526C32.9458 1.51434 32.9694 2.13885 32.7632 2.81639C32.5334 3.55284 32.1505 4.01239 31.6556 3.85921Z" fill="white"/>
<path d="M34.9366 1.31982L31.5371 7.34108H32.0379L35.4374 1.31982H34.9366Z" fill="white"/>
<path d="M35.5096 4.32443C34.7731 4.10055 33.9777 4.53653 33.6301 5.65594C33.2943 6.76946 33.7244 7.51181 34.4137 7.72391C35.1207 7.9419 35.9161 7.55305 36.2755 6.38061C36.6054 5.32012 36.2873 4.56599 35.5096 4.32443ZM35.6804 6.22743C35.4565 6.96389 35.0677 7.42343 34.5728 7.27025C34.1132 7.12885 34.0013 6.50434 34.2311 5.79734C34.4491 5.09624 34.8733 4.61902 35.3446 4.76631C35.8631 4.93127 35.8866 5.55579 35.6804 6.22743Z" fill="white"/>
<path d="M21.3032 2.45112C21.3563 2.48647 21.2797 2.59252 21.1913 2.53949L19.8421 1.73234C19.8362 1.73234 19.8127 1.71466 19.8068 1.70877C19.7537 1.67342 19.7243 1.65575 19.7655 1.60272C19.7891 1.56148 19.8009 1.55559 19.848 1.56737L21.3032 2.45112Z" fill="white"/>
<path d="M21.5169 5.35584C21.564 5.33817 21.5699 5.34406 21.6052 5.37941C21.6465 5.43243 21.6288 5.45011 21.5758 5.49135C21.5699 5.49724 21.5463 5.51492 21.5404 5.51492L20.3091 6.48704C20.2325 6.55185 20.1382 6.45758 20.1912 6.41634L21.5169 5.35584Z" fill="white"/>
<path d="M21.3337 3.86494C21.3985 3.85905 21.4044 3.98867 21.3042 4.00045L19.7488 4.20666C19.7429 4.20666 19.7135 4.21255 19.7076 4.21255C19.6428 4.21844 19.6133 4.21844 19.6074 4.15363C19.6015 4.1065 19.6074 4.09471 19.6486 4.07115L21.3337 3.86494Z" fill="white"/>
<path d="M37.9608 5.65617C37.9078 5.62083 37.9844 5.51478 38.0728 5.5678L39.4219 6.37495C39.4278 6.37495 39.4514 6.39263 39.4573 6.39852C39.5103 6.43387 39.5398 6.45155 39.4985 6.50457C39.475 6.54581 39.4632 6.5517 39.416 6.53992L37.9608 5.65617Z" fill="white"/>
<path d="M37.7479 2.74559C37.7007 2.76326 37.6949 2.75737 37.6595 2.72202C37.6183 2.669 37.6359 2.65132 37.689 2.61008C37.6949 2.60419 37.7184 2.58651 37.7243 2.58651L38.9557 1.61439C39.0323 1.54959 39.1265 1.64385 39.0735 1.68509L37.7479 2.74559Z" fill="white"/>
<path d="M37.9303 4.23625C37.8655 4.24214 37.8596 4.11253 37.9597 4.10074L39.5151 3.89454C39.521 3.89454 39.5505 3.88864 39.5564 3.88864C39.6212 3.88275 39.6506 3.88275 39.6565 3.94756C39.6624 3.99469 39.6565 4.00648 39.6153 4.03004L37.9303 4.23625Z" fill="white"/>
</g>
<defs>
<clipPath id="clip0">
<rect width="39.6684" height="56" fill="white"/>
</clipPath>
</defs>
</svg>
