<svg width="81" height="51" viewBox="0 0 81 51" fill="none" xmlns="http://www.w3.org/2000/svg">
<g clip-path="url(#clip0_89_2)">
<path d="M4.878 48.09C4.598 48.09 4.348 48.027 4.128 47.901C3.91 47.773 3.737 47.6 3.609 47.382C3.483 47.162 3.42 46.912 3.42 46.632V45.048C3.42 44.768 3.483 44.518 3.609 44.298C3.737 44.078 3.91 43.905 4.128 43.779C4.348 43.653 4.598 43.59 4.878 43.59C5.158 43.59 5.408 43.653 5.628 43.779C5.848 43.905 6.021 44.078 6.147 44.298C6.273 44.518 6.336 44.768 6.336 45.048V46.632C6.336 46.912 6.273 47.162 6.147 47.382C6.021 47.6 5.848 47.773 5.628 47.901C5.408 48.027 5.158 48.09 4.878 48.09ZM4.878 47.577C5.048 47.577 5.202 47.536 5.34 47.454C5.478 47.372 5.588 47.262 5.67 47.124C5.752 46.984 5.793 46.83 5.793 46.662V45.015C5.793 44.845 5.752 44.691 5.67 44.553C5.588 44.415 5.478 44.305 5.34 44.223C5.202 44.141 5.048 44.1 4.878 44.1C4.71 44.1 4.556 44.141 4.416 44.223C4.278 44.305 4.168 44.415 4.086 44.553C4.004 44.691 3.963 44.845 3.963 45.015V46.662C3.963 46.83 4.004 46.984 4.086 47.124C4.168 47.262 4.278 47.372 4.416 47.454C4.556 47.536 4.71 47.577 4.878 47.577ZM8.28886 48V44.271L7.47586 44.763V44.166L8.28886 43.68H8.83186V48H8.28886ZM11.4254 43.68H11.9684L10.8164 48H10.2734L11.4254 43.68ZM14.5654 48.09C14.2854 48.09 14.0354 48.027 13.8154 47.901C13.5974 47.773 13.4244 47.6 13.2964 47.382C13.1704 47.162 13.1074 46.912 13.1074 46.632V45.048C13.1074 44.768 13.1704 44.518 13.2964 44.298C13.4244 44.078 13.5974 43.905 13.8154 43.779C14.0354 43.653 14.2854 43.59 14.5654 43.59C14.8454 43.59 15.0954 43.653 15.3154 43.779C15.5354 43.905 15.7084 44.078 15.8344 44.298C15.9604 44.518 16.0234 44.768 16.0234 45.048V46.632C16.0234 46.912 15.9604 47.162 15.8344 47.382C15.7084 47.6 15.5354 47.773 15.3154 47.901C15.0954 48.027 14.8454 48.09 14.5654 48.09ZM14.5654 47.577C14.7354 47.577 14.8894 47.536 15.0274 47.454C15.1654 47.372 15.2754 47.262 15.3574 47.124C15.4394 46.984 15.4804 46.83 15.4804 46.662V45.015C15.4804 44.845 15.4394 44.691 15.3574 44.553C15.2754 44.415 15.1654 44.305 15.0274 44.223C14.8894 44.141 14.7354 44.1 14.5654 44.1C14.3974 44.1 14.2434 44.141 14.1034 44.223C13.9654 44.305 13.8554 44.415 13.7734 44.553C13.6914 44.691 13.6504 44.845 13.6504 45.015V46.662C13.6504 46.83 13.6914 46.984 13.7734 47.124C13.8554 47.262 13.9654 47.372 14.1034 47.454C14.2434 47.536 14.3974 47.577 14.5654 47.577ZM18.5013 48.09C18.2793 48.09 18.0723 48.044 17.8803 47.952C17.6903 47.86 17.5273 47.734 17.3913 47.574C17.2573 47.412 17.1613 47.226 17.1033 47.016L17.6163 46.878C17.6523 47.02 17.7163 47.143 17.8083 47.247C17.9003 47.349 18.0073 47.429 18.1293 47.487C18.2533 47.543 18.3823 47.571 18.5163 47.571C18.6923 47.571 18.8503 47.529 18.9903 47.445C19.1323 47.359 19.2443 47.246 19.3263 47.106C19.4083 46.964 19.4493 46.809 19.4493 46.641C19.4493 46.467 19.4063 46.31 19.3203 46.17C19.2363 46.028 19.1233 45.916 18.9813 45.834C18.8393 45.752 18.6843 45.711 18.5163 45.711C18.3263 45.711 18.1633 45.751 18.0273 45.831C17.8933 45.909 17.7873 46.005 17.7093 46.119L17.2353 45.939L17.3673 43.68H19.6863V44.187H17.6253L17.8623 43.965L17.7513 45.774L17.6343 45.621C17.7543 45.493 17.8973 45.394 18.0633 45.324C18.2313 45.254 18.4023 45.219 18.5763 45.219C18.8443 45.219 19.0843 45.282 19.2963 45.408C19.5083 45.532 19.6763 45.702 19.8003 45.918C19.9243 46.132 19.9863 46.373 19.9863 46.641C19.9863 46.907 19.9183 47.15 19.7823 47.37C19.6463 47.588 19.4653 47.763 19.2393 47.895C19.0153 48.025 18.7693 48.09 18.5013 48.09ZM22.1557 43.68H22.6987L21.5467 48H21.0037L22.1557 43.68ZM23.7178 47.997L23.7208 47.517L25.6378 45.792C25.7978 45.648 25.9048 45.512 25.9588 45.384C26.0148 45.254 26.0428 45.121 26.0428 44.985C26.0428 44.819 26.0048 44.669 25.9288 44.535C25.8528 44.401 25.7488 44.295 25.6168 44.217C25.4868 44.139 25.3388 44.1 25.1728 44.1C25.0008 44.1 24.8478 44.141 24.7138 44.223C24.5798 44.303 24.4738 44.41 24.3958 44.544C24.3198 44.678 24.2828 44.824 24.2848 44.982H23.7388C23.7388 44.71 23.8018 44.47 23.9278 44.262C24.0538 44.052 24.2248 43.888 24.4408 43.77C24.6588 43.65 24.9058 43.59 25.1818 43.59C25.4498 43.59 25.6898 43.652 25.9018 43.776C26.1138 43.898 26.2808 44.065 26.4028 44.277C26.5268 44.487 26.5888 44.725 26.5888 44.991C26.5888 45.179 26.5648 45.342 26.5168 45.48C26.4708 45.618 26.3988 45.746 26.3008 45.864C26.2028 45.98 26.0798 46.104 25.9318 46.236L24.3388 47.667L24.2698 47.487H26.5888V47.997H23.7178ZM29.1246 48.09C28.8446 48.09 28.5946 48.027 28.3746 47.901C28.1566 47.773 27.9836 47.6 27.8556 47.382C27.7296 47.162 27.6666 46.912 27.6666 46.632V45.048C27.6666 44.768 27.7296 44.518 27.8556 44.298C27.9836 44.078 28.1566 43.905 28.3746 43.779C28.5946 43.653 28.8446 43.59 29.1246 43.59C29.4046 43.59 29.6546 43.653 29.8746 43.779C30.0946 43.905 30.2676 44.078 30.3936 44.298C30.5196 44.518 30.5826 44.768 30.5826 45.048V46.632C30.5826 46.912 30.5196 47.162 30.3936 47.382C30.2676 47.6 30.0946 47.773 29.8746 47.901C29.6546 48.027 29.4046 48.09 29.1246 48.09ZM29.1246 47.577C29.2946 47.577 29.4486 47.536 29.5866 47.454C29.7246 47.372 29.8346 47.262 29.9166 47.124C29.9986 46.984 30.0396 46.83 30.0396 46.662V45.015C30.0396 44.845 29.9986 44.691 29.9166 44.553C29.8346 44.415 29.7246 44.305 29.5866 44.223C29.4486 44.141 29.2946 44.1 29.1246 44.1C28.9566 44.1 28.8026 44.141 28.6626 44.223C28.5246 44.305 28.4146 44.415 28.3326 44.553C28.2506 44.691 28.2096 44.845 28.2096 45.015V46.662C28.2096 46.83 28.2506 46.984 28.3326 47.124C28.4146 47.262 28.5246 47.372 28.6626 47.454C28.8026 47.536 28.9566 47.577 29.1246 47.577ZM31.6624 47.997L31.6654 47.517L33.5824 45.792C33.7424 45.648 33.8494 45.512 33.9034 45.384C33.9594 45.254 33.9874 45.121 33.9874 44.985C33.9874 44.819 33.9494 44.669 33.8734 44.535C33.7974 44.401 33.6934 44.295 33.5614 44.217C33.4314 44.139 33.2834 44.1 33.1174 44.1C32.9454 44.1 32.7924 44.141 32.6584 44.223C32.5244 44.303 32.4184 44.41 32.3404 44.544C32.2644 44.678 32.2274 44.824 32.2294 44.982H31.6834C31.6834 44.71 31.7464 44.47 31.8724 44.262C31.9984 44.052 32.1694 43.888 32.3854 43.77C32.6034 43.65 32.8504 43.59 33.1264 43.59C33.3944 43.59 33.6344 43.652 33.8464 43.776C34.0584 43.898 34.2254 44.065 34.3474 44.277C34.4714 44.487 34.5334 44.725 34.5334 44.991C34.5334 45.179 34.5094 45.342 34.4614 45.48C34.4154 45.618 34.3434 45.746 34.2454 45.864C34.1474 45.98 34.0244 46.104 33.8764 46.236L32.2834 47.667L32.2144 47.487H34.5334V47.997H31.6624ZM36.7962 48.084C36.5822 48.084 36.3832 48.045 36.1992 47.967C36.0152 47.887 35.8562 47.775 35.7222 47.631C35.5902 47.485 35.4932 47.312 35.4312 47.112L35.9442 46.965C36.0102 47.165 36.1202 47.317 36.2742 47.421C36.4282 47.525 36.6012 47.576 36.7932 47.574C36.9692 47.57 37.1212 47.53 37.2492 47.454C37.3792 47.376 37.4792 47.27 37.5492 47.136C37.6212 47.002 37.6572 46.847 37.6572 46.671C37.6572 46.403 37.5772 46.186 37.4172 46.02C37.2572 45.852 37.0472 45.768 36.7872 45.768C36.7152 45.768 36.6392 45.778 36.5592 45.798C36.4812 45.818 36.4082 45.846 36.3402 45.882L36.0822 45.459L37.6842 44.01L37.7532 44.19H35.6022V43.68H38.1492V44.193L36.7842 45.501L36.7782 45.312C37.0642 45.292 37.3142 45.339 37.5282 45.453C37.7422 45.567 37.9082 45.73 38.0262 45.942C38.1462 46.154 38.2062 46.397 38.2062 46.671C38.2062 46.947 38.1442 47.191 38.0202 47.403C37.8962 47.615 37.7282 47.782 37.5162 47.904C37.3042 48.024 37.0642 48.084 36.7962 48.084ZM40.8473 46.329V45.888H42.6473V46.329H40.8473ZM46.533 48.084C46.319 48.084 46.12 48.045 45.936 47.967C45.752 47.887 45.593 47.775 45.459 47.631C45.327 47.485 45.23 47.312 45.168 47.112L45.681 46.965C45.747 47.165 45.857 47.317 46.011 47.421C46.165 47.525 46.338 47.576 46.53 47.574C46.706 47.57 46.858 47.53 46.986 47.454C47.116 47.376 47.216 47.27 47.286 47.136C47.358 47.002 47.394 46.847 47.394 46.671C47.394 46.403 47.314 46.186 47.154 46.02C46.994 45.852 46.784 45.768 46.524 45.768C46.452 45.768 46.376 45.778 46.296 45.798C46.218 45.818 46.145 45.846 46.077 45.882L45.819 45.459L47.421 44.01L47.49 44.19H45.339V43.68H47.886V44.193L46.521 45.501L46.515 45.312C46.801 45.292 47.051 45.339 47.265 45.453C47.479 45.567 47.645 45.73 47.763 45.942C47.883 46.154 47.943 46.397 47.943 46.671C47.943 46.947 47.881 47.191 47.757 47.403C47.633 47.615 47.465 47.782 47.253 47.904C47.041 48.024 46.801 48.084 46.533 48.084ZM49.836 48V44.271L49.023 44.763V44.166L49.836 43.68H50.379V48H49.836ZM52.9725 43.68H53.5155L52.3635 48H51.8205L52.9725 43.68ZM55.4076 48V44.271L54.5946 44.763V44.166L55.4076 43.68H55.9506V48H55.4076ZM58.9101 48.09C58.6301 48.09 58.3801 48.027 58.1601 47.901C57.9421 47.773 57.7691 47.6 57.6411 47.382C57.5151 47.162 57.4521 46.912 57.4521 46.632V45.048C57.4521 44.768 57.5151 44.518 57.6411 44.298C57.7691 44.078 57.9421 43.905 58.1601 43.779C58.3801 43.653 58.6301 43.59 58.9101 43.59C59.1901 43.59 59.4401 43.653 59.6601 43.779C59.8801 43.905 60.0531 44.078 60.1791 44.298C60.3051 44.518 60.3681 44.768 60.3681 45.048V46.632C60.3681 46.912 60.3051 47.162 60.1791 47.382C60.0531 47.6 59.8801 47.773 59.6601 47.901C59.4401 48.027 59.1901 48.09 58.9101 48.09ZM58.9101 47.577C59.0801 47.577 59.2341 47.536 59.3721 47.454C59.5101 47.372 59.6201 47.262 59.7021 47.124C59.7841 46.984 59.8251 46.83 59.8251 46.662V45.015C59.8251 44.845 59.7841 44.691 59.7021 44.553C59.6201 44.415 59.5101 44.305 59.3721 44.223C59.2341 44.141 59.0801 44.1 58.9101 44.1C58.7421 44.1 58.5881 44.141 58.4481 44.223C58.3101 44.305 58.2001 44.415 58.1181 44.553C58.0361 44.691 57.9951 44.845 57.9951 45.015V46.662C57.9951 46.83 58.0361 46.984 58.1181 47.124C58.2001 47.262 58.3101 47.372 58.4481 47.454C58.5881 47.536 58.7421 47.577 58.9101 47.577ZM62.66 43.68H63.203L62.051 48H61.508L62.66 43.68ZM64.222 47.997L64.225 47.517L66.142 45.792C66.302 45.648 66.409 45.512 66.463 45.384C66.519 45.254 66.547 45.121 66.547 44.985C66.547 44.819 66.509 44.669 66.433 44.535C66.357 44.401 66.253 44.295 66.121 44.217C65.991 44.139 65.843 44.1 65.677 44.1C65.505 44.1 65.352 44.141 65.218 44.223C65.084 44.303 64.978 44.41 64.9 44.544C64.824 44.678 64.787 44.824 64.789 44.982H64.243C64.243 44.71 64.306 44.47 64.432 44.262C64.558 44.052 64.729 43.888 64.945 43.77C65.163 43.65 65.41 43.59 65.686 43.59C65.954 43.59 66.194 43.652 66.406 43.776C66.618 43.898 66.785 44.065 66.907 44.277C67.031 44.487 67.093 44.725 67.093 44.991C67.093 45.179 67.069 45.342 67.021 45.48C66.975 45.618 66.903 45.746 66.805 45.864C66.707 45.98 66.584 46.104 66.436 46.236L64.843 47.667L64.774 47.487H67.093V47.997H64.222ZM69.6288 48.09C69.3488 48.09 69.0988 48.027 68.8788 47.901C68.6608 47.773 68.4878 47.6 68.3598 47.382C68.2338 47.162 68.1708 46.912 68.1708 46.632V45.048C68.1708 44.768 68.2338 44.518 68.3598 44.298C68.4878 44.078 68.6608 43.905 68.8788 43.779C69.0988 43.653 69.3488 43.59 69.6288 43.59C69.9088 43.59 70.1588 43.653 70.3788 43.779C70.5988 43.905 70.7718 44.078 70.8978 44.298C71.0238 44.518 71.0868 44.768 71.0868 45.048V46.632C71.0868 46.912 71.0238 47.162 70.8978 47.382C70.7718 47.6 70.5988 47.773 70.3788 47.901C70.1588 48.027 69.9088 48.09 69.6288 48.09ZM69.6288 47.577C69.7988 47.577 69.9528 47.536 70.0908 47.454C70.2288 47.372 70.3388 47.262 70.4208 47.124C70.5028 46.984 70.5438 46.83 70.5438 46.662V45.015C70.5438 44.845 70.5028 44.691 70.4208 44.553C70.3388 44.415 70.2288 44.305 70.0908 44.223C69.9528 44.141 69.7988 44.1 69.6288 44.1C69.4608 44.1 69.3068 44.141 69.1668 44.223C69.0288 44.305 68.9188 44.415 68.8368 44.553C68.7548 44.691 68.7138 44.845 68.7138 45.015V46.662C68.7138 46.83 68.7548 46.984 68.8368 47.124C68.9188 47.262 69.0288 47.372 69.1668 47.454C69.3068 47.536 69.4608 47.577 69.6288 47.577ZM72.1666 47.997L72.1696 47.517L74.0866 45.792C74.2466 45.648 74.3536 45.512 74.4076 45.384C74.4636 45.254 74.4916 45.121 74.4916 44.985C74.4916 44.819 74.4536 44.669 74.3776 44.535C74.3016 44.401 74.1976 44.295 74.0656 44.217C73.9356 44.139 73.7876 44.1 73.6216 44.1C73.4496 44.1 73.2966 44.141 73.1626 44.223C73.0286 44.303 72.9226 44.41 72.8446 44.544C72.7686 44.678 72.7316 44.824 72.7336 44.982H72.1876C72.1876 44.71 72.2506 44.47 72.3766 44.262C72.5026 44.052 72.6736 43.888 72.8896 43.77C73.1076 43.65 73.3546 43.59 73.6306 43.59C73.8986 43.59 74.1386 43.652 74.3506 43.776C74.5626 43.898 74.7296 44.065 74.8516 44.277C74.9756 44.487 75.0376 44.725 75.0376 44.991C75.0376 45.179 75.0136 45.342 74.9656 45.48C74.9196 45.618 74.8476 45.746 74.7496 45.864C74.6516 45.98 74.5286 46.104 74.3806 46.236L72.7876 47.667L72.7186 47.487H75.0376V47.997H72.1666ZM77.3004 48.084C77.0864 48.084 76.8874 48.045 76.7034 47.967C76.5194 47.887 76.3604 47.775 76.2264 47.631C76.0944 47.485 75.9974 47.312 75.9354 47.112L76.4484 46.965C76.5144 47.165 76.6244 47.317 76.7784 47.421C76.9324 47.525 77.1054 47.576 77.2974 47.574C77.4734 47.57 77.6254 47.53 77.7534 47.454C77.8834 47.376 77.9834 47.27 78.0534 47.136C78.1254 47.002 78.1614 46.847 78.1614 46.671C78.1614 46.403 78.0814 46.186 77.9214 46.02C77.7614 45.852 77.5514 45.768 77.2914 45.768C77.2194 45.768 77.1434 45.778 77.0634 45.798C76.9854 45.818 76.9124 45.846 76.8444 45.882L76.5864 45.459L78.1884 44.01L78.2574 44.19H76.1064V43.68H78.6534V44.193L77.2884 45.501L77.2824 45.312C77.5684 45.292 77.8184 45.339 78.0324 45.453C78.2464 45.567 78.4124 45.73 78.5304 45.942C78.6504 46.154 78.7104 46.397 78.7104 46.671C78.7104 46.947 78.6484 47.191 78.5244 47.403C78.4004 47.615 78.2324 47.782 78.0204 47.904C77.8084 48.024 77.5684 48.084 77.3004 48.084Z" fill="#1A1A1A"/>
<path fill-rule="evenodd" clip-rule="evenodd" d="M13.3136 25.4009L13.8973 26.3268L13.9316 26.384C13.9316 26.384 7.90004 31.5853 12.0203 42.1824C10.2348 41.1307 8.67831 40.0447 7.62536 38.4328C6.58385 39.4045 5.79414 40.3762 5.16466 41.4736C3.82558 35.3006 5.59957 31.4596 8.87288 26.3611C9.26201 25.7553 9.8686 24.5892 9.8686 24.5892L10.4523 27.4128L13.325 25.4123L13.3136 25.4009ZM19.6885 27.3671L17.0332 25.3323L16.1634 26.6012C16.1634 26.6012 17.6971 35.6664 19.803 37.2668C19.8831 35.2206 19.9403 34.4547 20.4782 32.477C22.4239 33.1858 24.1979 33.1743 25.9604 33.0257C23.3738 31.1738 20.5698 24.0863 20.5698 24.0863L19.6885 27.3671Z" fill="#282727"/>
<path d="M15.0761 1.42894L16.8386 4.20681L19.6083 2.21772L20.3065 5.42998L23.5912 4.51546L23.1449 7.78488L26.5555 8.03637L25.0219 10.9628L28.1349 12.3689L25.6971 14.5866L28.1349 16.9758L25.0905 18.2333L26.567 21.3084L23.2708 21.4456L23.6027 24.8407L20.4553 23.8348L19.6083 27.1385L16.9988 25.1151L15.0761 27.9273L13.3135 25.1494L10.5438 27.1385L9.84564 23.9262L6.56089 24.8407L7.00725 21.5713L3.59661 21.3198L5.13025 18.4048L2.00574 16.9873L4.44355 14.7696L2.00574 12.3804L5.05014 11.1229L3.57372 8.04781L6.86991 7.91063L6.538 4.51546L9.68541 5.52143L10.5324 2.21772L13.1418 4.2411L15.0646 1.42894H15.0761ZM5.61095 14.4838C5.61095 19.6623 9.79986 23.8691 14.9616 23.8691C20.1234 23.8691 24.3123 19.6737 24.3123 14.4838C24.3123 9.29384 20.1234 5.09847 14.9616 5.09847C9.79986 5.09847 5.61095 9.29384 5.61095 14.4838Z" fill="#282727"/>
<path d="M14.3322 14.6781C11.8715 12.0946 8.65545 10.0598 4.69543 8.65368C8.46088 12.4032 11.883 16.45 14.0003 20.9997C19.185 13.5464 25.7087 6.69888 32.4384 3.22369C25.8689 5.00701 20.73 7.87633 14.3208 14.6781H14.3322Z" fill="#282727"/>
<path d="M32.4498 34.1574L33.5142 28.1559H35.4484C36.1008 28.1559 36.5929 28.3159 36.9019 28.6589C37.2224 28.9904 37.3254 29.4476 37.2224 30.0078C37.1652 30.3622 37.0278 30.6594 36.8104 30.8995C36.6043 31.1509 36.3068 31.3453 35.9405 31.4939L36.6616 34.1574H34.8761L34.5213 31.8254L34.1093 34.1574H32.4269H32.4498ZM34.9677 29.4019L34.7159 30.8309C34.9448 30.8309 35.1165 30.7623 35.2424 30.648C35.3683 30.5336 35.4484 30.3622 35.4942 30.1107C35.5285 29.8706 35.5171 29.6991 35.4369 29.5734C35.3568 29.4591 35.2309 29.3905 35.0249 29.3905H34.9563L34.9677 29.4019Z" fill="#282727"/>
<path d="M40.6102 32.6828C40.4614 33.1743 40.1982 33.563 39.8319 33.8488C39.4657 34.1346 39.0193 34.2718 38.5157 34.2718C37.9206 34.2718 37.4971 34.0774 37.2453 33.7002C36.9935 33.3229 36.9249 32.7742 37.0507 32.0655C37.1766 31.3567 37.4284 30.808 37.829 30.4079C38.2296 30.0078 38.7103 29.8249 39.294 29.8249C39.9235 29.8249 40.3698 29.9964 40.6216 30.3507C40.8734 30.7051 40.9421 31.231 40.8162 31.9283C40.8047 32.0083 40.7933 32.0769 40.7819 32.1112C40.7819 32.1455 40.759 32.1912 40.7475 32.2255H38.5157V32.2827C38.4471 32.5913 38.4471 32.82 38.4928 32.9457C38.5386 33.0829 38.6416 33.1515 38.8019 33.1515C38.9163 33.1515 39.0193 33.1172 39.1109 33.0372C39.191 32.9571 39.2711 32.8428 39.3398 32.6828H40.6216H40.6102ZM38.6416 31.5168H39.5458C39.5801 31.2767 39.5801 31.1052 39.5229 30.9795C39.4657 30.8652 39.3627 30.7966 39.2139 30.7966C39.0994 30.7966 38.985 30.8537 38.8934 30.9795C38.8019 31.1052 38.7103 31.2767 38.6416 31.5168Z" fill="#282727"/>
<path d="M43.2425 34.0889C43.1281 34.1574 42.9908 34.2032 42.8649 34.226C42.7275 34.2603 42.5787 34.2718 42.4185 34.2718C41.8806 34.2718 41.48 34.0774 41.2396 33.6773C40.9993 33.2772 40.9306 32.7399 41.0565 32.054C41.171 31.3796 41.4342 30.8309 41.8233 30.4308C42.2125 30.0307 42.6817 29.8249 43.2197 29.8249C43.3684 29.8249 43.5058 29.8363 43.6317 29.8592C43.7576 29.882 43.872 29.9278 43.9636 29.9849L43.7347 31.2767C43.7347 31.2767 43.6431 31.2195 43.5859 31.2081C43.5287 31.1967 43.4714 31.1852 43.4142 31.1852C43.254 31.1852 43.1166 31.2653 42.9908 31.4139C42.8763 31.5625 42.7847 31.7797 42.739 32.0426C42.6932 32.317 42.7046 32.5113 42.7618 32.6485C42.8305 32.7857 42.945 32.8542 43.1166 32.8542C43.1624 32.8542 43.2197 32.8542 43.2769 32.8314C43.3341 32.8085 43.4028 32.7971 43.4714 32.7628L43.2425 34.0774V34.0889Z" fill="#282727"/>
<path d="M43.7118 34.1574L44.8678 27.5957H46.39L45.2454 34.1574H43.7118Z" fill="#282727"/>
<path d="M48.1296 34.1574L48.2097 33.6888C48.0266 33.8945 47.8435 34.0431 47.6604 34.1346C47.4773 34.226 47.2941 34.2718 47.111 34.2718C46.6875 34.2718 46.4014 34.0774 46.2297 33.6888C46.0581 33.3001 46.0352 32.7514 46.1611 32.0426C46.287 31.3339 46.493 30.7851 46.802 30.3965C47.111 30.0078 47.4658 29.8135 47.9007 29.8135C48.0953 29.8135 48.267 29.8592 48.4043 29.9506C48.5531 30.0421 48.679 30.1907 48.7935 30.385L48.8736 29.9278H50.4072L49.6633 34.146H48.1296V34.1574ZM47.7176 32.0426C47.6604 32.3398 47.6604 32.5685 47.6947 32.7171C47.7291 32.8657 47.8092 32.9457 47.9351 32.9457C48.061 32.9457 48.164 32.8657 48.2555 32.7171C48.3471 32.5685 48.4158 32.3398 48.473 32.054C48.5302 31.7568 48.5302 31.5282 48.4959 31.3796C48.4615 31.231 48.3814 31.151 48.2555 31.151C48.1296 31.151 48.0266 31.231 47.9351 31.3796C47.8435 31.5282 47.7748 31.7568 47.7176 32.054" fill="#282727"/>
<path d="M50.2126 34.1574L50.9565 29.9392H52.4215L52.3071 30.5679C52.4902 30.3279 52.6848 30.145 52.9022 30.0307C53.1082 29.9163 53.3486 29.8592 53.6118 29.8592C53.8751 29.8592 54.0353 29.9163 54.1841 30.0421C54.3329 30.1678 54.4015 30.3393 54.4359 30.5794C54.5961 30.3393 54.7792 30.1564 54.9852 30.0421C55.1912 29.9278 55.4201 29.8706 55.6834 29.8706C56.0038 29.8706 56.2327 29.9735 56.3701 30.1564C56.5074 30.3507 56.5418 30.6365 56.4731 30.9909L55.9123 34.1574H54.3786L54.8136 31.6997C54.8364 31.5625 54.8364 31.471 54.7907 31.4139C54.7563 31.3453 54.6877 31.3224 54.5961 31.3224C54.516 31.3224 54.4359 31.3567 54.3672 31.4367C54.31 31.5053 54.2642 31.6082 54.2413 31.7454L53.8178 34.1689H52.2956L52.7305 31.7111C52.7534 31.5739 52.7534 31.4825 52.7077 31.4253C52.6733 31.3567 52.6046 31.3339 52.5131 31.3339C52.4215 31.3339 52.3529 31.3681 52.2842 31.4482C52.2155 31.5168 52.1812 31.6196 52.1468 31.7568L51.7234 34.1803H50.2012V34.1574H50.2126Z" fill="#282727"/>
<path d="M60.25 32.6828C60.1012 33.1743 59.8379 33.563 59.4717 33.8488C59.1054 34.1346 58.6591 34.2718 58.1555 34.2718C57.5603 34.2718 57.1369 34.0774 56.8851 33.7002C56.6333 33.3229 56.5646 32.7742 56.6905 32.0655C56.8164 31.3567 57.0682 30.808 57.4688 30.4079C57.8694 30.0078 58.3501 29.8249 58.9338 29.8249C59.5632 29.8249 60.0096 29.9964 60.2614 30.3507C60.5132 30.7051 60.5819 31.231 60.456 31.9283C60.4445 32.0083 60.4331 32.0769 60.4216 32.1112C60.4216 32.1455 60.3987 32.1912 60.3873 32.2255H58.1555V32.2827C58.0868 32.5913 58.0868 32.82 58.1326 32.9457C58.1784 33.0829 58.2814 33.1515 58.4416 33.1515C58.5561 33.1515 58.6591 33.1172 58.7506 33.0372C58.8308 32.9571 58.9109 32.8428 58.9681 32.6828H60.25ZM58.2814 31.5168H59.1856C59.2199 31.2767 59.2199 31.1052 59.1627 30.9795C59.1054 30.8537 59.0024 30.7966 58.8536 30.7966C58.7392 30.7966 58.6247 30.8537 58.5332 30.9795C58.4416 31.0938 58.3501 31.2767 58.2814 31.5168Z" fill="#282727"/>
<path d="M60.1126 34.1574L62.4932 28.1559H64.3817L64.6335 34.1574H62.9968L63.0197 33.2772H62.024L61.7378 34.1574H60.1012H60.1126ZM62.4131 32.0655H63.0769L63.1342 29.8363L62.4131 32.0655Z" fill="#282727"/>
<path d="M67.6206 35.1291L67.1285 34.2718H66.9453C66.2243 34.2718 65.7093 33.9974 65.4117 33.4487C65.1141 32.9114 65.0455 32.1341 65.2286 31.1509C65.4117 30.1564 65.7322 29.3905 66.2243 28.8418C66.7164 28.2931 67.323 28.0187 68.0326 28.0187C68.7422 28.0187 69.2458 28.2931 69.5434 28.8418C69.841 29.3905 69.8982 30.1564 69.7265 31.1509C69.6235 31.7225 69.4747 32.2141 69.2687 32.6485C69.0627 33.0714 68.7995 33.4258 68.479 33.7116L69.0856 34.4775L67.6321 35.1177L67.6206 35.1291ZM66.9339 31.1167C66.8194 31.7454 66.7851 32.1684 66.8309 32.397C66.8652 32.6256 66.9911 32.7399 67.1971 32.7399C67.4031 32.7399 67.5634 32.6256 67.6893 32.397C67.8037 32.1684 67.9296 31.7454 68.0441 31.1167C68.1585 30.4879 68.1929 30.0535 68.1471 29.8363C68.1127 29.6077 67.9869 29.4934 67.7808 29.4934C67.5748 29.4934 67.4146 29.6077 67.2887 29.8363C67.1628 30.065 67.0483 30.4994 66.9339 31.1167Z" fill="#282727"/>
<path d="M70.0242 32.0083L70.6994 28.1559H72.3819L71.6723 32.1798C71.6379 32.3627 71.6494 32.4884 71.6952 32.5685C71.7409 32.6485 71.8325 32.6942 71.9698 32.6942C72.1072 32.6942 72.2102 32.6599 72.2903 32.5685C72.3704 32.4884 72.4277 32.3627 72.4505 32.1798L73.1601 28.1559H74.8426L74.1673 32.0083C74.03 32.7971 73.7553 33.3687 73.3662 33.7345C72.977 34.1003 72.4048 34.2832 71.6952 34.2832C70.9856 34.2832 70.4934 34.1003 70.2187 33.7345C69.9555 33.3687 69.8868 32.7971 70.0242 32.0083Z" fill="#282727"/>
<path d="M74.4878 34.1574L75.5407 28.1445H77.2232L76.1588 34.1574H74.4878Z" fill="#282727"/>
<path d="M34.9677 8.88231C34.4871 8.88231 34.1094 9.05378 33.8347 9.39673C33.56 9.73967 33.4227 10.2084 33.4227 10.8028C33.4227 11.3972 33.56 11.9002 33.8232 12.2317C34.0865 12.5518 34.4756 12.7119 34.9677 12.7119C35.1852 12.7119 35.3912 12.689 35.5972 12.6433C35.8032 12.5976 36.0093 12.5404 36.2267 12.4832V13.2034C35.8261 13.352 35.3683 13.4321 34.8647 13.4321C34.1094 13.4321 33.5371 13.2034 33.1365 12.7576C32.7359 12.3118 32.5414 11.6602 32.5414 10.8142C32.5414 10.277 32.6444 9.81969 32.8275 9.41959C33.0221 9.01948 33.3082 8.71083 33.6744 8.50507C34.0407 8.2993 34.4756 8.18498 34.9792 8.18498C35.5057 8.18498 35.9864 8.2993 36.4327 8.5165L36.1237 9.21382C35.952 9.1338 35.7689 9.06521 35.5743 8.99662C35.3798 8.93946 35.1738 8.90517 34.9677 8.90517V8.88231Z" fill="#282727"/>
<path d="M40.2325 13.3635H37.3369V8.24214H40.2325V8.9509H38.1724V10.3455H40.0952V11.0429H38.1724V12.6547H40.2325V13.3635Z" fill="#282727"/>
<path d="M42.1781 11.3172V13.3635H41.3427V8.24214H42.7847C43.4486 8.24214 43.9292 8.36789 44.2497 8.60795C44.5702 8.85945 44.7304 9.22525 44.7304 9.72824C44.7304 10.3684 44.3985 10.8142 43.7347 11.0886L45.1768 13.352H44.2268L43.0022 11.3058H42.1781V11.3172ZM42.1781 10.6199H42.7618C43.151 10.6199 43.4371 10.5513 43.6088 10.4027C43.7919 10.2541 43.872 10.0483 43.872 9.7511C43.872 9.45388 43.7805 9.25955 43.5859 9.1338C43.3913 9.00805 43.1052 8.93947 42.7275 8.93947H42.1781V10.6199Z" fill="#282727"/>
<path d="M47.7061 13.3635H46.8706V8.96233H45.3599V8.24214H49.2054V8.96233H47.6947V13.3635H47.7061Z" fill="#282727"/>
<path d="M49.9951 13.3635V8.24214H50.8306V13.3635H49.9951Z" fill="#282727"/>
<path d="M53.0053 13.3635H52.1698V8.24214H55.0654V8.9509H53.0053V10.5513H54.9281V11.2601H53.0053V13.3635Z" fill="#282727"/>
<path d="M56.0039 13.3635V8.24214H56.8394V13.3635H56.0039Z" fill="#282727"/>
<path d="M60.3759 8.88231C59.8953 8.88231 59.5176 9.05378 59.2429 9.39673C58.9682 9.73967 58.8309 10.2084 58.8309 10.8028C58.8309 11.3972 58.9682 11.9002 59.2314 12.2317C59.4947 12.5518 59.8838 12.7119 60.3759 12.7119C60.5934 12.7119 60.7994 12.689 61.0054 12.6433C61.2114 12.5976 61.4175 12.5404 61.6349 12.4832V13.2034C61.2343 13.352 60.7765 13.4321 60.2729 13.4321C59.5176 13.4321 58.9453 13.2034 58.5447 12.7576C58.1442 12.3118 57.9496 11.6602 57.9496 10.8142C57.9496 10.277 58.0526 9.81969 58.2357 9.41959C58.4303 9.01948 58.7164 8.71083 59.0826 8.50507C59.4489 8.2993 59.8838 8.18498 60.3874 8.18498C60.9139 8.18498 61.3946 8.2993 61.8409 8.5165L61.5319 9.21382C61.3602 9.1338 61.1771 9.06521 60.9825 8.99662C60.788 8.93946 60.582 8.90517 60.3759 8.90517V8.88231Z" fill="#282727"/>
<path d="M65.9267 13.3635L65.4231 11.9345H63.466L62.9624 13.3635H62.0812L63.9925 8.23071H64.9081L66.8195 13.3635H65.9267ZM65.1942 11.2258L64.7136 9.83113C64.6792 9.73968 64.6334 9.59107 64.5648 9.3853C64.5075 9.19096 64.4618 9.03092 64.4389 8.93947C64.3702 9.22526 64.2786 9.53391 64.1642 9.87686L63.7064 11.2143H65.1942V11.2258Z" fill="#282727"/>
<path d="M71.6493 10.7571C71.6493 11.603 71.409 12.2432 70.9397 12.7004C70.4705 13.1577 69.7952 13.3749 68.9139 13.3749H67.4833V8.25357H69.0627C69.8868 8.25357 70.5162 8.47077 70.9626 8.9166C71.4204 9.36243 71.6379 9.9683 71.6379 10.7685L71.6493 10.7571ZM70.768 10.7799C70.768 9.55677 70.1958 8.93946 69.0398 8.93946H68.3188V12.6547H68.9139C70.15 12.6547 70.768 12.026 70.768 10.7799Z" fill="#282727"/>
<path d="M77.3033 10.8028C77.3033 11.6373 77.0973 12.2889 76.6738 12.7462C76.2503 13.2034 75.6666 13.4435 74.8998 13.4435C74.133 13.4435 73.5378 13.2149 73.1144 12.7576C72.7024 12.3003 72.4963 11.6487 72.4963 10.8028C72.4963 9.95687 72.7024 9.3167 73.1258 8.85944C73.5493 8.40218 74.133 8.18498 74.9113 8.18498C75.6895 8.18498 76.2618 8.41361 76.6853 8.88231C77.1087 9.351 77.3033 9.99117 77.3033 10.8257V10.8028ZM73.4005 10.8028C73.4005 11.4315 73.5264 11.9117 73.7782 12.2317C74.03 12.5518 74.4077 12.7233 74.9113 12.7233C75.4148 12.7233 75.7811 12.5633 76.0443 12.2432C76.2961 11.9231 76.422 11.443 76.422 10.8028C76.422 10.1626 76.2961 9.70538 76.0443 9.37386C75.7925 9.05378 75.4148 8.88231 74.9227 8.88231C74.4306 8.88231 74.0414 9.04235 73.7896 9.37386C73.5378 9.70538 73.412 10.1741 73.412 10.8028H73.4005Z" fill="#282727"/>
<path d="M34.7846 19.9938V22.9774H32.5642V14.781H35.2538C37.4856 14.781 38.5958 15.5812 38.5958 17.2045C38.5958 18.1533 38.138 18.8849 37.1995 19.4108L39.5915 22.9888H37.0736L35.3339 20.0052H34.7731L34.7846 19.9938ZM34.7846 18.3248H35.1966C35.9634 18.3248 36.364 17.9818 36.364 17.2959C36.364 16.7243 35.9863 16.45 35.2195 16.45H34.7846V18.3248Z" fill="#282727"/>
<path d="M45.3828 22.9774L44.9822 21.4456H42.3155L41.9035 22.9774H39.4657L42.1439 14.7467H45.0967L47.8092 22.9774H45.3828ZM44.513 19.6165L44.1582 18.2676C44.0781 17.9704 43.9751 17.5817 43.8606 17.1016C43.7462 16.6215 43.6661 16.2785 43.6317 16.0842C43.5974 16.2785 43.5287 16.5872 43.4372 17.0216C43.3341 17.456 43.1167 18.3248 42.7733 19.6051H44.513V19.6165Z" fill="#282727"/>
<path d="M56.0839 22.9774H53.8292V18.6334C53.8292 18.1076 53.8407 17.6274 53.8636 17.193C53.7262 17.3645 53.5546 17.536 53.3485 17.7189L52.4215 18.4848L51.277 17.0787L54.0925 14.781H56.0954V22.9774H56.0839Z" fill="#282727"/>
<path d="M63.8667 18.8849C63.8667 20.3367 63.6263 21.3998 63.1342 22.0743C62.6421 22.7488 61.8981 23.0803 60.9024 23.0803C59.9067 23.0803 59.1742 22.7259 58.682 22.0286C58.1899 21.3198 57.9381 20.2796 57.9381 18.8849C57.9381 17.4903 58.1785 16.3585 58.6706 15.6841C59.1627 15.0096 59.9067 14.6667 60.9024 14.6667C61.8981 14.6667 62.6192 15.021 63.1113 15.7298C63.6149 16.4386 63.8667 17.4903 63.8667 18.8963V18.8849ZM60.147 18.8849C60.147 19.8109 60.2042 20.451 60.3187 20.794C60.4331 21.1483 60.6277 21.3198 60.9024 21.3198C61.1771 21.3198 61.3831 21.1369 61.4861 20.7825C61.6006 20.4282 61.6578 19.788 61.6578 18.8849C61.6578 17.9818 61.6006 17.3416 61.4861 16.9758C61.3716 16.61 61.1771 16.4271 60.9024 16.4271C60.6277 16.4271 60.4331 16.61 60.3187 16.953C60.2042 17.3073 60.147 17.9475 60.147 18.8849Z" fill="#282727"/>
<path d="M70.6078 18.8849C70.6078 20.3367 70.3674 21.3998 69.8753 22.0743C69.3831 22.7488 68.6392 23.0803 67.6435 23.0803C66.6478 23.0803 65.9153 22.7259 65.4231 22.0286C64.931 21.3198 64.6792 20.2796 64.6792 18.8849C64.6792 17.4903 64.9196 16.3585 65.4117 15.6841C65.9038 15.0096 66.6478 14.6667 67.6435 14.6667C68.6392 14.6667 69.3603 15.021 69.8524 15.7298C70.356 16.4386 70.6078 17.4903 70.6078 18.8963V18.8849ZM66.8881 18.8849C66.8881 19.8109 66.9453 20.451 67.0598 20.794C67.1742 21.1483 67.3688 21.3198 67.6435 21.3198C67.9182 21.3198 68.1242 21.1369 68.2272 20.7825C68.3416 20.4282 68.3989 19.788 68.3989 18.8849C68.3989 17.9818 68.3416 17.3416 68.2272 16.9758C68.1127 16.61 67.9182 16.4271 67.6435 16.4271C67.3688 16.4271 67.1742 16.61 67.0598 16.953C66.9453 17.3073 66.8881 17.9475 66.8881 18.8849Z" fill="#282727"/>
<path d="M77.349 18.8849C77.349 20.3367 77.1086 21.3998 76.6165 22.0743C76.1244 22.7488 75.3804 23.0803 74.3847 23.0803C73.389 23.0803 72.6565 22.7259 72.1643 22.0286C71.6722 21.3198 71.4204 20.2796 71.4204 18.8849C71.4204 17.4903 71.6608 16.3585 72.1529 15.6841C72.645 15.0096 73.389 14.6667 74.3847 14.6667C75.3804 14.6667 76.1015 15.021 76.5936 15.7298C77.0972 16.4386 77.349 17.4903 77.349 18.8963V18.8849ZM73.6293 18.8849C73.6293 19.8109 73.6865 20.451 73.801 20.794C73.9154 21.1483 74.11 21.3198 74.3847 21.3198C74.6594 21.3198 74.8654 21.1369 74.9684 20.7825C75.0828 20.4282 75.1401 19.788 75.1401 18.8849C75.1401 17.9818 75.0828 17.3416 74.9684 16.9758C74.8539 16.61 74.6594 16.4271 74.3847 16.4271C74.11 16.4271 73.9154 16.61 73.801 16.953C73.6865 17.3073 73.6293 17.9475 73.6293 18.8849Z" fill="#282727"/>
<path d="M77.2918 25.6295H32.5414V25.881H77.2918V25.6295Z" fill="#282727"/>
</g>
<defs>
<clipPath id="clip0_89_2">
<rect width="81" height="51" fill="white"/>
</clipPath>
</defs>
</svg>
