<?xml version="1.0" standalone="no"?>
<!DOCTYPE svg PUBLIC "-//W3C//DTD SVG 20010904//EN"
 "http://www.w3.org/TR/2001/REC-SVG-20010904/DTD/svg10.dtd">
<svg version="1.0" xmlns="http://www.w3.org/2000/svg"
 width="220.000000pt" height="40.000000pt" viewBox="0 0 220.000000 40.000000"
 preserveAspectRatio="xMidYMid meet">

<g transform="translate(0.000000,40.000000) scale(0.100000,-0.100000)"
fill="#000000" stroke="none">
<path d="M510 209 l0 -160 23 3 c22 3 22 6 25 161 l3 157 -26 0 -25 0 0 -161z"/>
<path d="M592 353 c2 -12 12 -18 28 -18 36 0 33 29 -3 33 -23 3 -28 0 -25 -15z"/>
<path d="M92 284 c-20 -14 -22 -23 -22 -125 0 -102 1 -109 20 -109 19 0 20 7
20 106 0 58 5 114 10 125 13 23 2 24 -28 3z"/>
<path d="M148 288 c8 -8 12 -51 12 -126 0 -112 0 -113 23 -110 21 3 22 8 27
125 4 107 3 120 -11 113 -8 -5 -22 -5 -30 1 -20 13 -35 11 -21 -3z"/>
<path d="M238 293 c9 -3 12 -38 12 -124 l0 -119 25 0 25 0 0 105 c0 92 -3 108
-20 125 -11 11 -28 20 -37 19 -11 0 -13 -3 -5 -6z"/>
<path d="M355 275 c-22 -21 -25 -33 -25 -102 0 -87 16 -124 53 -122 12 0 16 3
10 6 -7 2 -13 22 -13 43 0 37 3 40 45 59 45 20 45 20 45 71 0 45 -3 52 -26 60
-34 13 -39 13 -25 -4 7 -8 11 -35 9 -62 -2 -36 -8 -50 -27 -62 l-23 -16 3 77
c3 42 3 77 1 77 -1 0 -14 -11 -27 -25z"/>
<path d="M597 293 c-4 -3 -7 -60 -7 -125 l0 -118 25 0 25 0 0 125 c0 115 -2
125 -18 125 -10 0 -22 -3 -25 -7z"/>
<path d="M702 284 c-19 -13 -22 -24 -20 -57 3 -36 7 -43 43 -62 38 -19 40 -23
40 -68 0 -26 3 -47 8 -47 18 0 47 42 47 68 0 31 -17 51 -67 76 -27 14 -33 22
-33 49 0 18 5 38 12 45 17 17 -4 15 -30 -4z"/>
<path d="M764 284 c3 -9 6 -27 6 -40 0 -19 5 -24 25 -24 31 0 34 31 5 60 -24
24 -45 26 -36 4z"/>
<path d="M880 293 c-46 -16 -54 -81 -14 -112 14 -11 35 -23 46 -27 17 -5 19
-13 16 -55 -2 -31 1 -49 8 -49 21 0 44 37 44 73 0 31 -5 38 -42 59 -41 23 -43
26 -43 71 0 26 0 47 0 46 0 0 -7 -3 -15 -6z"/>
<path d="M929 263 c5 -29 11 -39 29 -41 18 -3 22 1 22 22 0 14 -9 31 -22 40
-32 23 -36 20 -29 -21z"/>
<path d="M1040 287 c-33 -16 -36 -72 -5 -72 16 0 21 9 26 43 3 23 5 42 5 42
-1 0 -12 -6 -26 -13z"/>
<path d="M1098 255 c4 -41 2 -46 -25 -57 -50 -21 -63 -38 -63 -83 0 -49 14
-65 55 -64 16 0 23 3 15 6 -23 9 -30 24 -30 65 0 34 20 68 40 68 5 0 10 -30
12 -67 3 -62 5 -68 26 -71 22 -3 22 -2 22 107 0 102 -2 111 -22 125 -32 23
-34 21 -30 -29z"/>
<path d="M430 107 c0 -18 -5 -38 -12 -45 -16 -16 5 -17 33 -2 28 15 27 80 -1
80 -16 0 -20 -7 -20 -33z"/>
<path d="M680 105 c0 -34 20 -55 51 -55 10 0 10 3 1 12 -7 7 -12 27 -12 45 0
26 -4 33 -20 33 -16 0 -20 -7 -20 -35z"/>
<path d="M847 134 c-25 -25 10 -84 49 -84 12 0 15 3 7 8 -6 4 -13 23 -15 42
-3 33 -24 51 -41 34z"/>
</g>
</svg>
